{"glyphs":{"0":{"ha":842,"x_min":49,"x_max":793,"o":"m 556 422 q 520 611 556 544 q 419 678 485 678 q 320 611 354 678 q 286 422 286 544 q 320 228 286 292 q 419 165 354 165 q 520 228 485 165 q 556 422 556 292 m 421 -22 q 270 6 339 -22 q 152 90 201 33 q 76 228 103 146 q 49 422 49 311 q 76 612 49 529 q 152 751 103 694 q 270 836 201 807 q 421 865 339 865 q 570 836 501 865 q 688 751 639 807 q 765 612 738 694 q 793 422 793 529 q 765 228 793 311 q 688 90 738 146 q 570 6 639 33 q 421 -22 501 -22 z "},"1":{"ha":546,"x_min":14,"x_max":451,"o":"m 76 576 q 35 615 56 590 q 14 685 14 640 q 115 801 14 768 l 271 854 l 322 854 q 417 819 382 854 q 451 725 451 785 l 451 1 q 408 -7 436 -3 q 346 -11 379 -11 q 246 12 276 -11 q 215 100 215 35 l 215 619 l 76 576 z "},"2":{"ha":725,"x_min":49,"x_max":676,"o":"m 83 722 q 151 830 83 794 q 335 865 219 865 q 479 845 417 865 q 583 790 542 825 q 646 708 625 756 q 667 607 667 661 q 501 329 667 461 l 319 183 l 653 183 q 669 144 661 168 q 676 93 676 121 q 654 22 676 43 q 596 0 632 0 l 114 0 q 66 53 83 21 q 49 131 49 86 q 68 210 49 178 q 111 263 88 243 l 303 426 q 363 481 339 457 q 401 525 386 506 q 422 561 415 544 q 428 593 428 578 q 397 654 428 632 q 310 676 365 676 q 210 659 254 676 q 138 622 167 642 q 99 664 114 639 q 83 722 83 689 z "},"3":{"ha":719,"x_min":35,"x_max":671,"o":"m 324 865 q 567 799 483 865 q 650 622 650 733 q 615 509 650 556 q 531 439 579 463 q 585 411 560 428 q 629 369 610 394 q 660 311 649 344 q 671 233 671 278 q 645 126 671 174 q 574 46 619 79 q 465 -5 528 13 q 326 -22 401 -22 q 108 18 182 -22 q 35 121 35 58 q 53 185 35 158 q 97 228 71 213 q 172 187 125 208 q 293 165 218 165 q 398 190 364 165 q 432 256 432 215 q 405 317 432 296 q 311 338 378 338 l 181 338 q 164 375 171 353 q 157 428 157 397 q 163 483 157 460 q 181 521 169 506 l 311 521 q 411 597 411 521 q 379 656 411 633 q 283 678 347 678 q 183 665 226 678 q 113 632 140 651 q 74 673 89 649 q 58 731 58 697 q 131 833 58 800 q 324 865 203 865 z "},"4":{"ha":836,"x_min":43,"x_max":815,"o":"m 392 835 q 452 849 418 843 q 514 854 486 854 q 576 848 546 854 q 629 827 606 842 q 667 788 653 813 q 681 725 681 763 l 681 356 l 790 356 q 807 315 799 340 q 815 263 815 290 q 792 188 815 210 q 732 165 768 165 l 681 165 l 681 1 q 635 -6 665 -1 q 576 -11 604 -11 q 522 -8 546 -11 q 483 5 499 -6 q 458 35 467 15 q 450 88 450 54 l 450 165 l 121 165 q 66 215 89 182 q 43 294 43 247 q 49 353 43 321 q 74 408 56 385 l 392 835 m 463 617 l 457 617 l 286 356 l 463 356 l 463 617 z "},"5":{"ha":725,"x_min":63,"x_max":694,"o":"m 94 715 q 132 810 99 775 q 225 844 165 844 l 625 844 q 642 806 635 829 q 650 753 650 782 q 628 678 650 701 q 567 654 606 654 l 300 654 l 290 524 q 344 536 317 531 q 413 542 371 542 q 538 520 485 542 q 626 461 592 499 q 678 374 661 424 q 694 267 694 324 q 674 157 694 210 q 612 65 654 104 q 504 1 569 25 q 347 -22 439 -22 q 231 -12 283 -22 q 142 17 179 -3 q 83 65 104 36 q 63 131 63 93 q 85 196 63 169 q 135 238 107 222 q 218 187 174 208 q 331 165 263 165 q 426 194 396 165 q 456 265 456 224 q 429 332 456 306 q 343 358 403 358 q 281 350 306 358 q 224 326 256 342 q 116 363 156 329 q 76 468 76 397 q 76 478 76 472 q 78 504 76 485 l 94 715 l 94 715 z "},"6":{"ha":775,"x_min":49,"x_max":731,"o":"m 671 742 q 658 685 671 713 q 626 644 644 658 q 548 670 589 661 q 472 679 507 679 q 344 635 389 679 q 283 510 299 592 q 357 545 311 529 q 451 561 403 561 q 655 488 579 561 q 731 276 731 414 q 710 163 731 217 q 647 67 689 108 q 544 2 606 26 q 400 -22 482 -22 q 142 88 236 -22 q 49 400 49 197 q 77 603 49 515 q 158 749 106 690 q 282 836 210 807 q 442 865 354 865 q 612 835 553 865 q 671 742 671 804 m 401 165 q 470 196 447 165 q 493 275 493 226 q 469 352 493 324 q 399 381 444 381 q 342 369 372 381 q 294 339 313 358 l 294 304 q 326 197 294 229 q 401 165 357 165 z "},"7":{"ha":669,"x_min":28,"x_max":656,"o":"m 594 844 q 637 802 618 829 q 656 735 656 775 q 651 690 656 713 q 638 644 647 667 l 349 -10 q 312 -11 329 -11 q 279 -11 294 -11 q 178 13 217 -11 q 139 94 139 36 q 153 158 139 124 q 190 239 167 192 l 393 654 l 53 654 q 36 694 44 669 q 28 747 28 719 q 51 822 28 800 q 111 844 75 844 l 594 844 z "},"8":{"ha":778,"x_min":43,"x_max":743,"o":"m 43 233 q 82 363 43 311 q 178 443 121 415 q 95 516 125 471 q 65 624 65 561 q 89 726 65 681 q 156 803 113 771 q 258 851 199 835 q 390 868 318 868 q 633 803 544 868 q 721 625 721 738 q 688 510 721 554 q 601 440 654 467 q 655 410 629 428 q 700 367 681 392 q 731 308 719 342 q 743 231 743 274 q 718 124 743 171 q 647 43 693 76 q 535 -8 600 10 q 390 -25 469 -25 q 249 -8 313 -25 q 139 43 185 10 q 68 124 93 76 q 43 233 43 172 m 507 247 q 473 317 507 288 q 375 360 439 347 q 302 312 325 342 q 279 247 279 282 q 310 178 279 203 q 390 153 340 153 q 475 176 443 153 q 507 247 507 200 m 297 611 q 325 548 297 571 q 399 515 353 525 q 465 553 442 531 q 489 613 489 576 q 463 671 489 650 q 390 692 438 692 q 322 669 347 692 q 297 611 297 647 z "},"9":{"ha":775,"x_min":44,"x_max":726,"o":"m 96 101 q 109 158 96 131 q 140 199 122 185 q 219 173 178 182 q 294 164 260 164 q 438 210 385 164 q 490 335 490 257 l 490 338 q 420 303 463 315 q 329 290 378 290 q 215 308 267 290 q 124 360 163 325 q 65 447 86 394 q 44 567 44 499 q 65 681 44 626 q 128 776 86 735 q 231 841 169 817 q 375 865 293 865 q 633 756 539 865 q 726 443 726 646 q 698 240 726 328 q 617 94 669 153 q 493 7 565 36 q 333 -22 421 -22 q 159 8 222 -22 q 96 101 96 39 m 383 468 q 437 479 410 468 q 482 510 464 490 l 482 528 q 374 678 482 678 q 303 649 328 678 q 279 572 279 621 q 309 496 279 524 q 383 468 339 468 z "},"\u0000":{"ha":0,"x_min":0,"x_max":0,"o":""},"\r":{"ha":310,"x_min":0,"x_max":0,"o":""}," ":{"ha":278,"x_min":0,"x_max":0,"o":""},"!":{"ha":414,"x_min":74,"x_max":340,"o":"m 329 775 q 328 688 329 743 q 322 567 326 632 q 311 438 318 503 q 294 321 304 372 q 278 313 289 317 q 254 306 267 308 q 229 301 242 303 q 207 300 217 300 q 140 313 167 300 q 106 361 113 325 q 94 453 99 393 q 85 584 89 514 q 78 725 81 654 q 76 849 76 796 q 140 873 104 864 q 210 882 175 882 q 298 856 267 882 q 329 775 329 829 m 74 106 q 109 200 74 164 q 207 236 144 236 q 305 200 269 236 q 340 106 340 164 q 305 11 340 47 q 207 -25 269 -25 q 109 11 144 -25 q 74 106 74 47 z "},"\"":{"ha":569,"x_min":35,"x_max":531,"o":"m 219 525 q 185 514 204 517 q 139 511 165 511 q 80 524 104 511 q 53 572 56 538 l 35 849 q 146 882 76 882 q 225 863 199 882 q 251 799 251 843 q 249 744 251 779 q 241 670 246 710 q 231 592 236 631 q 219 525 225 553 m 499 525 q 464 514 483 517 q 418 511 444 511 q 359 524 383 511 q 332 572 335 538 l 314 849 q 425 882 356 882 q 504 863 478 882 q 531 799 531 843 q 528 744 531 779 q 520 670 525 710 q 510 592 515 631 q 499 525 504 553 z "},"#":{"ha":992,"x_min":42,"x_max":950,"o":"m 782 496 l 750 356 l 888 356 q 904 319 896 342 q 913 269 913 296 q 891 200 913 221 q 833 179 869 179 l 711 179 l 672 -1 q 637 -5 653 -4 q 606 -6 621 -6 q 522 15 553 -6 q 492 90 492 35 q 495 134 492 111 q 503 179 499 157 l 378 179 l 339 -1 q 303 -5 319 -4 q 272 -6 288 -6 q 189 15 219 -6 q 158 90 158 35 q 162 134 158 111 q 169 179 165 157 l 67 179 q 49 216 57 193 q 42 265 42 239 q 63 335 42 314 q 121 356 85 356 l 208 356 l 239 496 l 104 496 q 87 533 94 510 q 79 582 79 556 q 101 651 79 631 q 158 672 122 672 l 278 672 l 318 854 q 355 857 338 857 q 386 857 372 857 q 469 838 438 857 q 501 764 501 819 q 497 719 501 742 q 488 672 493 696 l 611 672 l 651 854 q 688 857 671 857 q 719 857 706 857 q 803 838 771 857 q 835 764 835 819 q 831 719 835 742 q 821 672 826 696 l 925 672 q 942 635 933 658 q 950 586 950 613 q 928 517 950 538 q 871 496 907 496 l 782 496 m 417 356 l 542 356 l 572 496 l 449 496 l 417 356 z "},"$":{"ha":785,"x_min":61,"x_max":729,"o":"m 354 172 q 450 194 422 172 q 478 244 478 217 q 456 288 478 272 q 393 318 433 304 l 335 338 q 224 380 274 358 q 138 432 174 401 q 81 505 101 463 q 61 608 61 547 q 119 767 61 703 q 286 856 178 832 l 286 965 q 325 973 300 969 q 379 976 350 976 q 467 956 440 976 q 494 878 494 936 l 494 863 q 633 818 581 851 q 685 726 685 785 q 668 665 685 690 q 628 621 651 639 q 546 655 597 640 q 433 669 494 669 q 342 652 371 669 q 313 608 313 635 q 331 574 313 588 q 385 550 349 561 l 458 526 q 659 419 589 485 q 729 242 729 353 q 669 80 729 147 q 494 -11 610 13 l 494 -119 q 456 -127 481 -124 q 401 -131 431 -131 q 313 -110 340 -131 q 286 -32 286 -90 l 286 -21 q 195 -3 236 -15 q 124 29 154 10 q 78 75 94 49 q 61 135 61 101 q 85 203 61 175 q 136 247 108 232 q 231 194 175 217 q 354 172 288 172 z "},"%":{"ha":1110,"x_min":40,"x_max":1069,"o":"m 488 636 q 425 474 488 532 q 264 415 363 415 q 102 474 164 415 q 40 636 40 532 q 102 797 40 739 q 264 856 164 856 q 425 797 363 856 q 488 636 488 739 m 208 636 q 224 574 208 594 q 264 554 240 554 q 303 574 288 554 q 319 636 319 594 q 303 696 319 676 q 264 715 288 715 q 224 696 240 715 q 208 636 208 676 m 753 857 q 838 831 800 850 q 876 781 876 813 q 865 735 876 758 q 836 686 854 711 l 356 -10 q 267 15 303 -6 q 232 67 232 35 q 243 112 232 89 q 272 160 254 135 l 753 857 m 1069 210 q 1007 47 1069 106 q 846 -11 944 -11 q 684 47 746 -11 q 622 210 622 106 q 684 371 622 313 q 846 429 746 429 q 1007 371 944 429 q 1069 210 1069 313 m 790 210 q 806 148 790 168 q 846 128 822 128 q 885 148 869 128 q 901 210 901 168 q 885 269 901 250 q 846 289 869 289 q 806 269 822 289 q 790 210 790 250 z "},"&":{"ha":935,"x_min":50,"x_max":901,"o":"m 786 -19 q 678 33 731 -19 l 651 58 q 522 -4 593 14 q 388 -22 451 -22 q 243 -1 306 -22 q 138 58 181 21 q 72 147 94 96 q 50 257 50 197 q 65 345 50 306 q 103 416 79 385 q 160 470 128 447 q 228 508 192 493 q 181 590 190 557 q 172 653 172 624 q 190 735 172 696 q 240 803 207 774 q 321 849 272 832 q 432 865 369 865 q 556 834 519 865 q 592 754 592 803 q 583 709 592 732 q 556 668 574 686 q 520 679 540 675 q 478 683 500 683 q 418 667 442 683 q 394 619 394 651 q 410 580 394 599 q 457 529 425 561 l 633 357 q 646 445 643 400 q 649 525 649 490 q 698 541 675 536 q 744 546 721 546 q 799 536 778 546 q 831 509 819 526 q 847 468 843 492 q 851 417 851 444 q 838 313 851 368 q 794 203 825 258 l 901 100 q 865 14 899 47 q 786 -19 832 -19 m 401 158 q 451 164 418 158 q 519 192 483 169 l 340 371 q 291 331 310 357 q 272 272 272 304 q 305 191 272 224 q 401 158 338 158 z "},"'":{"ha":304,"x_min":35,"x_max":265,"o":"m 233 531 q 196 517 218 522 q 146 511 174 511 q 82 527 108 511 q 53 578 56 543 l 35 843 q 85 870 54 858 q 153 882 115 882 q 235 861 206 882 q 265 793 265 840 q 263 740 265 774 q 255 669 260 707 q 244 595 250 632 q 233 531 239 558 z "},"(":{"ha":424,"x_min":58,"x_max":421,"o":"m 310 -189 q 215 -154 253 -189 q 150 -71 176 -119 q 84 114 110 4 q 58 369 58 224 q 84 625 58 515 q 150 810 110 735 q 215 893 176 858 q 310 928 253 928 q 376 907 347 928 q 421 863 406 886 q 362 759 388 813 q 319 646 336 706 q 292 518 301 586 q 283 369 283 450 q 292 221 283 289 q 319 93 301 153 q 362 -20 336 33 q 421 -124 388 -74 q 376 -168 406 -147 q 310 -189 347 -189 z "},")":{"ha":424,"x_min":4,"x_max":367,"o":"m 115 -189 q 49 -168 78 -189 q 4 -124 19 -147 q 63 -20 38 -74 q 106 93 89 33 q 133 221 124 153 q 142 369 142 289 q 133 518 142 450 q 106 646 124 586 q 63 759 89 706 q 4 863 38 813 q 49 907 19 886 q 115 928 78 928 q 210 893 172 928 q 275 810 249 858 q 341 625 315 735 q 367 369 367 515 q 341 114 367 224 q 275 -71 315 4 q 210 -154 249 -119 q 115 -189 172 -189 z "},"*":{"ha":488,"x_min":28,"x_max":453,"o":"m 104 792 q 126 789 114 792 q 150 782 138 786 l 171 775 l 171 875 q 201 892 182 882 q 246 901 221 901 q 297 885 278 901 q 317 835 317 868 q 316 810 317 828 q 314 772 315 793 l 396 807 q 436 775 419 796 q 453 725 453 754 q 435 679 453 692 q 388 654 418 667 l 361 643 l 426 551 q 394 501 417 521 q 340 482 372 482 q 290 501 307 482 q 258 546 274 519 l 247 564 l 194 486 q 163 482 178 482 q 93 500 117 482 q 69 550 69 518 q 77 582 69 567 q 100 617 85 597 l 119 643 l 36 667 q 28 718 28 692 q 48 772 28 753 q 104 792 68 792 z "},"+":{"ha":757,"x_min":42,"x_max":715,"o":"m 488 494 l 692 494 q 708 454 700 479 q 715 401 715 429 q 692 329 715 350 q 631 308 668 308 l 488 308 l 488 68 q 444 61 474 65 q 389 57 415 57 q 303 76 332 57 q 274 156 274 94 l 274 308 l 65 308 q 49 347 56 324 q 42 397 42 369 q 65 472 42 449 q 126 494 89 494 l 274 494 l 274 729 q 316 737 288 732 q 371 742 344 742 q 457 722 426 742 q 488 642 488 703 l 488 494 z "},",":{"ha":338,"x_min":-14,"x_max":304,"o":"m 207 -101 q 156 -146 183 -132 q 90 -160 129 -160 q -14 -125 29 -160 q 38 52 17 -39 q 72 217 58 143 q 129 238 96 229 q 196 247 163 247 q 272 228 239 247 q 304 158 304 208 q 296 94 304 129 q 274 23 288 58 q 242 -46 260 -12 q 207 -101 225 -79 z "},"-":{"ha":492,"x_min":42,"x_max":450,"o":"m 68 258 q 50 299 58 274 q 42 351 42 324 q 65 426 42 403 q 126 449 89 449 l 424 449 q 441 408 432 433 q 450 356 450 383 q 426 281 450 304 q 365 258 403 258 l 68 258 z "},".":{"ha":331,"x_min":31,"x_max":300,"o":"m 31 113 q 67 210 31 171 q 165 249 103 249 q 264 210 228 249 q 300 113 300 171 q 264 15 300 54 q 165 -24 228 -24 q 67 15 103 -24 q 31 113 31 54 z "},"/":{"ha":476,"x_min":4,"x_max":472,"o":"m 196 -147 q 158 -151 176 -150 q 125 -151 140 -151 q 35 -126 67 -151 q 4 -46 4 -101 q 15 30 4 -8 q 35 97 26 68 l 279 979 q 318 983 300 982 q 351 983 336 983 q 440 960 407 983 q 472 883 472 936 q 461 807 472 843 q 440 735 450 771 l 196 -147 z "},":":{"ha":358,"x_min":44,"x_max":322,"o":"m 53 549 q 89 646 53 607 q 188 685 125 685 q 286 646 250 685 q 322 549 322 607 q 286 451 322 490 q 188 413 250 413 q 89 451 125 413 q 53 549 53 490 m 44 113 q 81 210 44 171 q 179 249 117 249 q 278 210 242 249 q 314 113 314 171 q 278 15 314 54 q 179 -24 242 -24 q 81 15 117 -24 q 44 113 44 54 z "},";":{"ha":369,"x_min":4,"x_max":322,"o":"m 53 549 q 89 646 53 607 q 188 685 125 685 q 286 646 250 685 q 322 549 322 607 q 286 451 322 490 q 188 413 250 413 q 89 451 125 413 q 53 549 53 490 m 225 -101 q 174 -146 201 -132 q 108 -160 147 -160 q 4 -125 47 -160 q 56 52 35 -39 q 90 217 76 143 q 147 238 114 229 q 214 247 181 247 q 290 228 257 247 q 322 158 322 208 q 314 94 322 129 q 292 23 306 58 q 260 -46 278 -12 q 225 -101 243 -79 z "},"<":{"ha":681,"x_min":42,"x_max":639,"o":"m 635 214 q 638 194 638 206 q 639 174 639 183 q 633 126 639 149 q 615 88 628 104 q 583 60 603 71 q 532 50 563 50 q 475 62 503 50 q 404 96 447 74 l 78 261 q 42 386 42 308 q 58 478 42 444 q 107 526 75 511 l 522 735 q 615 685 590 717 q 639 618 639 654 q 615 542 639 569 q 543 492 590 515 l 265 382 l 635 214 z "},"=":{"ha":707,"x_min":44,"x_max":663,"o":"m 68 463 q 51 501 58 478 q 44 551 44 524 q 68 626 44 603 q 129 649 92 649 l 639 649 q 655 608 647 633 q 663 556 663 583 q 639 483 663 504 q 578 463 615 463 l 68 463 m 68 172 q 51 210 58 188 q 44 261 44 233 q 68 335 44 313 q 129 358 92 358 l 639 358 q 655 318 647 343 q 663 265 663 293 q 639 193 663 214 q 578 172 615 172 l 68 172 z "},">":{"ha":682,"x_min":42,"x_max":639,"o":"m 46 564 q 42 583 43 572 q 42 604 42 594 q 47 651 42 629 q 65 690 53 674 q 98 717 78 707 q 149 728 118 728 q 209 715 178 728 q 276 683 240 701 l 603 521 q 639 396 639 474 q 622 305 639 338 q 574 256 606 272 l 164 47 q 72 97 96 65 q 47 164 47 128 q 72 240 47 213 q 143 290 96 267 l 415 400 l 46 564 z "},"?":{"ha":692,"x_min":33,"x_max":643,"o":"m 189 292 q 144 338 165 307 q 124 414 124 369 q 147 478 124 457 q 214 511 169 500 l 322 538 q 375 565 358 549 q 392 613 392 581 q 366 662 392 639 q 278 685 340 685 q 171 671 221 685 q 90 636 121 657 q 50 680 67 654 q 33 742 33 706 q 54 805 33 778 q 112 849 75 832 q 199 875 149 867 q 311 883 250 883 q 455 863 393 883 q 558 807 517 843 q 622 721 600 771 q 643 613 643 671 q 564 422 643 492 q 329 319 485 351 l 189 292 m 143 107 q 178 201 143 165 q 276 238 214 238 q 374 201 339 238 q 410 107 410 165 q 374 13 410 49 q 276 -24 339 -24 q 178 13 214 -24 q 143 107 143 49 z "},"@":{"ha":1485,"x_min":68,"x_max":1429,"o":"m 889 42 q 812 11 856 22 q 715 0 768 0 q 601 18 653 0 q 511 72 549 36 q 453 158 474 107 q 432 274 432 208 q 458 412 432 349 q 529 519 483 475 q 640 589 575 564 q 783 614 704 614 q 919 594 864 614 q 1014 549 975 575 q 1068 456 1068 511 q 1068 442 1068 449 q 1067 428 1068 435 l 1038 178 q 1054 174 1043 175 q 1072 172 1065 172 q 1171 231 1135 172 q 1207 385 1207 290 q 1175 530 1207 464 q 1087 643 1143 596 q 952 717 1031 690 q 781 743 874 743 q 582 708 672 743 q 427 612 492 674 q 327 466 363 550 q 292 283 292 382 q 323 111 292 188 q 410 -19 354 35 q 541 -102 465 -74 q 707 -131 617 -131 q 809 -125 769 -131 q 879 -115 849 -119 q 897 -153 889 -131 q 904 -194 904 -175 q 894 -246 904 -224 q 860 -283 885 -268 q 794 -307 836 -299 q 690 -315 753 -315 q 473 -282 583 -315 q 272 -177 363 -249 q 125 8 182 -106 q 68 283 68 122 q 123 549 68 431 q 274 750 178 668 q 499 876 369 832 q 779 921 629 921 q 1042 883 922 921 q 1247 775 1161 844 q 1381 606 1333 706 q 1429 383 1429 506 q 1336 95 1429 197 q 1072 -7 1243 -7 q 980 5 1031 -7 q 889 42 929 17 m 667 275 q 694 199 667 219 q 756 178 721 178 q 825 199 796 178 l 846 415 q 820 426 835 422 q 782 429 806 429 q 700 390 733 429 q 667 275 667 350 z "},"A":{"ha":871,"x_min":32,"x_max":847,"o":"m 560 175 l 308 175 q 284 82 294 125 q 264 1 274 39 q 223 -10 244 -6 q 171 -15 201 -15 q 66 9 100 -15 q 32 76 32 33 q 38 115 32 96 q 50 161 43 135 q 77 255 60 199 q 115 376 94 311 q 160 508 136 440 q 204 635 183 575 q 242 744 225 696 q 269 817 260 792 q 341 843 293 831 q 438 856 389 856 q 560 835 507 856 q 629 771 614 815 q 683 604 654 700 q 742 406 713 508 q 799 205 771 304 q 847 29 826 106 q 797 -2 831 10 q 718 -14 764 -14 q 624 8 650 -14 q 585 79 597 31 l 560 175 m 436 638 q 393 511 417 581 q 347 363 369 442 l 519 363 q 480 512 500 442 q 444 638 460 582 l 436 638 z "},"B":{"ha":860,"x_min":90,"x_max":813,"o":"m 783 621 q 749 515 783 558 q 651 446 714 471 q 813 247 813 393 q 710 44 813 110 q 417 -22 608 -22 q 361 -21 393 -22 q 295 -15 329 -19 q 228 -5 261 -11 q 167 13 194 1 q 90 114 90 42 l 90 763 q 106 808 90 792 q 150 833 122 824 q 268 858 197 850 q 414 865 339 865 q 688 806 592 865 q 783 621 783 746 m 564 258 q 450 343 564 343 l 326 343 l 326 174 q 376 166 346 168 q 435 164 407 164 q 527 187 490 164 q 564 258 564 210 m 326 513 l 428 513 q 515 535 488 513 q 542 600 542 557 q 510 660 542 638 q 417 682 479 682 q 369 681 396 682 q 326 676 342 679 l 326 513 z "},"C":{"ha":793,"x_min":49,"x_max":754,"o":"m 751 719 q 733 657 751 683 q 692 615 715 631 q 615 656 656 639 q 519 672 574 672 q 356 606 413 672 q 299 421 299 540 q 360 234 299 297 q 532 171 422 171 q 628 186 589 171 q 704 221 668 201 q 741 174 728 201 q 754 111 754 147 q 738 53 754 79 q 681 8 721 26 q 610 -14 656 -3 q 499 -25 564 -25 q 322 1 404 -25 q 179 82 240 28 q 83 220 118 136 q 49 421 49 304 q 83 613 49 529 q 176 753 117 696 q 314 839 235 810 q 483 868 393 868 q 681 826 611 868 q 751 719 751 785 z "},"D":{"ha":925,"x_min":90,"x_max":876,"o":"m 626 418 q 568 606 626 543 q 413 669 510 669 q 373 668 393 669 q 332 664 353 667 l 332 181 q 369 176 347 178 q 411 174 392 174 q 567 235 507 174 q 626 418 626 296 m 876 422 q 843 228 876 311 q 748 89 810 144 q 600 6 686 33 q 410 -22 514 -22 q 356 -21 386 -22 q 292 -15 325 -19 q 227 -5 260 -11 q 167 13 194 1 q 90 114 90 42 l 90 763 q 106 808 90 792 q 150 833 122 824 q 276 859 210 853 q 396 865 343 865 q 592 839 504 865 q 744 758 681 813 q 842 619 807 703 q 876 422 876 536 z "},"E":{"ha":761,"x_min":90,"x_max":708,"o":"m 219 -4 q 125 31 160 -4 q 90 125 90 65 l 90 713 q 125 807 90 772 q 219 842 160 842 l 678 842 q 695 803 688 826 q 703 750 703 779 q 681 675 703 699 q 619 651 658 651 l 326 651 l 326 522 l 639 522 q 656 483 649 507 q 664 431 664 460 q 642 356 664 379 q 581 333 619 333 l 326 333 l 326 188 l 683 188 q 701 147 693 172 q 708 93 708 122 q 686 19 708 42 q 625 -4 664 -4 l 219 -4 l 219 -4 z "},"F":{"ha":738,"x_min":90,"x_max":707,"o":"m 90 713 q 125 807 90 772 q 219 842 160 842 l 682 842 q 699 801 692 826 q 707 747 707 776 q 684 671 707 694 q 622 647 661 647 l 331 647 l 331 490 l 635 490 q 653 451 644 475 q 661 397 661 426 q 638 322 661 344 q 576 299 615 299 l 333 299 l 333 1 q 286 -7 318 -3 q 221 -11 254 -11 q 119 14 147 -11 q 90 104 90 39 l 90 713 l 90 713 z "},"G":{"ha":922,"x_min":49,"x_max":853,"o":"m 853 135 q 838 71 853 92 q 789 31 822 50 q 740 9 769 19 q 676 -9 711 -1 q 603 -21 642 -17 q 528 -25 565 -25 q 340 1 428 -25 q 188 81 253 26 q 86 219 124 135 q 49 419 49 303 q 86 613 49 529 q 189 753 124 696 q 342 839 254 810 q 531 868 429 868 q 740 826 663 868 q 817 717 817 785 q 799 654 817 681 q 757 613 781 628 q 669 653 722 633 q 549 672 617 672 q 447 654 493 672 q 368 603 401 636 q 317 524 335 571 q 299 421 299 478 q 316 311 299 358 q 365 233 333 264 q 438 185 396 201 q 532 169 481 169 q 585 175 563 169 q 621 188 608 181 l 621 321 l 472 321 q 456 361 464 336 q 449 414 449 386 q 472 486 449 464 q 531 508 494 508 l 765 508 q 830 485 807 508 q 853 421 853 463 l 853 135 z "},"H":{"ha":933,"x_min":90,"x_max":843,"o":"m 333 1 q 286 -7 318 -3 q 221 -11 254 -11 q 119 14 147 -11 q 90 104 90 39 l 90 844 q 139 852 107 847 q 203 857 171 857 q 303 833 272 857 q 333 742 333 810 l 333 517 l 600 517 l 600 844 q 649 852 617 847 q 713 857 681 857 q 813 832 782 857 q 843 739 843 807 l 843 1 q 796 -7 828 -3 q 731 -11 764 -11 q 628 14 657 -11 q 600 104 600 39 l 600 325 l 333 325 l 333 1 l 333 1 z "},"I":{"ha":424,"x_min":90,"x_max":333,"o":"m 221 -11 q 119 14 147 -11 q 90 104 90 39 l 90 844 q 139 852 107 847 q 203 857 171 857 q 303 833 272 857 q 333 742 333 810 l 333 1 q 286 -7 318 -3 q 221 -11 254 -11 z "},"J":{"ha":572,"x_min":29,"x_max":486,"o":"m 486 250 q 415 53 486 126 q 207 -21 344 -21 q 138 -15 169 -21 q 81 6 106 -8 q 43 44 57 21 q 29 103 29 68 q 37 151 29 131 q 56 185 44 172 q 101 177 82 179 q 142 175 119 175 q 219 202 196 175 q 243 282 243 229 l 243 844 q 292 852 260 847 q 356 857 324 857 q 456 833 425 857 q 486 742 486 810 l 486 250 l 486 250 z "},"K":{"ha":854,"x_min":90,"x_max":831,"o":"m 333 315 l 333 1 q 286 -7 318 -3 q 221 -11 254 -11 q 119 14 147 -11 q 90 104 90 39 l 90 844 q 139 852 107 847 q 203 857 171 857 q 303 833 272 857 q 333 742 333 810 l 333 517 l 622 850 q 758 815 717 850 q 799 731 799 779 q 781 663 799 694 q 722 590 763 631 l 549 417 q 713 239 639 317 q 831 113 786 161 q 819 58 831 82 q 790 18 808 35 q 747 -7 771 1 q 697 -15 724 -15 q 604 13 640 -15 q 535 81 568 42 l 333 315 z "},"L":{"ha":713,"x_min":90,"x_max":678,"o":"m 219 -4 q 125 31 160 -4 q 90 125 90 65 l 90 844 q 139 852 107 847 q 203 857 171 857 q 303 833 272 857 q 333 742 333 810 l 333 192 l 651 192 q 669 151 661 176 q 678 97 678 126 q 656 21 678 46 q 594 -4 633 -4 l 219 -4 l 219 -4 z "},"M":{"ha":1107,"x_min":72,"x_max":1043,"o":"m 672 207 q 626 183 654 192 q 560 174 597 174 q 477 186 510 174 q 435 229 444 199 q 371 427 396 351 q 332 560 346 503 l 325 560 q 319 410 321 478 q 316 279 317 343 q 313 150 315 215 q 307 6 311 85 q 260 -6 289 -1 q 201 -11 231 -11 q 106 8 140 -11 q 72 79 72 28 q 76 205 72 122 q 87 388 81 288 q 100 593 93 488 q 113 788 107 699 q 161 826 124 806 q 267 847 199 847 q 382 824 340 847 q 443 750 424 801 q 470 674 456 717 q 499 585 485 631 q 528 494 514 539 q 553 413 542 449 l 560 413 q 626 638 593 529 q 688 821 660 747 q 741 840 708 832 q 814 847 774 847 q 925 827 882 847 q 975 769 968 807 q 987 684 981 742 q 1000 554 993 626 q 1014 401 1007 482 q 1027 247 1021 321 q 1038 110 1033 172 q 1043 15 1042 49 q 994 -5 1019 1 q 928 -11 968 -11 q 839 7 875 -11 q 800 78 803 25 q 790 350 792 229 q 783 553 788 471 l 776 553 q 736 417 763 499 q 672 207 710 335 z "},"N":{"ha":943,"x_min":90,"x_max":853,"o":"m 853 29 q 797 -1 833 10 q 708 -11 760 -11 q 611 4 657 -11 q 536 78 565 19 l 399 358 q 361 440 378 401 q 325 528 344 478 l 315 525 q 323 363 322 438 q 324 221 324 289 l 324 0 q 278 -7 308 -3 q 215 -11 247 -11 q 117 13 144 -11 q 90 100 90 38 l 90 799 q 150 840 110 826 q 236 854 190 854 q 334 838 288 854 q 408 765 381 822 l 547 485 q 585 403 568 442 q 621 315 601 365 l 626 317 q 620 442 621 383 q 619 556 619 501 l 619 846 q 665 853 635 849 q 728 857 696 857 q 826 833 799 857 q 853 746 853 808 l 853 29 l 853 29 z "},"O":{"ha":976,"x_min":49,"x_max":928,"o":"m 928 422 q 894 230 928 314 q 802 90 861 146 q 663 4 743 33 q 488 -25 582 -25 q 313 4 393 -25 q 174 90 232 33 q 82 231 115 147 q 49 422 49 314 q 83 614 49 531 q 176 753 117 697 q 315 839 235 810 q 488 868 394 868 q 660 839 581 868 q 800 753 740 810 q 894 614 860 697 q 928 422 928 531 m 678 422 q 626 610 678 547 q 488 672 575 672 q 351 610 403 672 q 299 422 299 549 q 350 233 299 296 q 489 171 401 171 q 626 233 575 171 q 678 422 678 296 z "},"P":{"ha":807,"x_min":90,"x_max":774,"o":"m 333 261 l 333 1 q 286 -7 318 -3 q 221 -11 254 -11 q 119 14 147 -11 q 90 104 90 39 l 90 763 q 106 808 90 792 q 150 833 122 824 q 262 858 197 850 q 379 865 326 865 q 672 783 571 865 q 774 561 774 701 q 748 438 774 493 q 676 344 722 383 q 563 283 629 304 q 414 261 496 261 l 333 261 m 399 451 q 492 480 457 451 q 526 561 526 508 q 494 642 526 614 q 399 671 461 671 q 362 670 376 671 q 332 667 347 669 l 332 451 l 399 451 z "},"Q":{"ha":979,"x_min":49,"x_max":979,"o":"m 928 424 q 876 190 928 286 q 738 42 825 94 q 860 -5 796 15 q 978 -42 924 -25 q 979 -56 979 -50 q 979 -68 979 -62 q 938 -183 979 -147 q 831 -219 897 -219 q 699 -184 767 -219 q 560 -82 631 -149 l 496 -22 l 488 -22 q 313 7 393 -22 q 174 92 232 36 q 82 232 115 149 q 49 424 49 315 q 83 615 49 532 q 176 753 117 697 q 315 839 235 810 q 488 868 394 868 q 660 839 581 868 q 800 753 740 810 q 894 615 860 697 q 928 424 928 532 m 678 424 q 626 610 678 549 q 488 672 575 672 q 351 611 403 672 q 299 424 299 550 q 350 235 299 297 q 489 174 401 174 q 626 235 575 174 q 678 424 678 297 z "},"R":{"ha":846,"x_min":90,"x_max":807,"o":"m 779 567 q 738 426 779 488 q 629 324 697 364 q 683 254 656 288 q 733 190 710 221 q 776 133 757 160 q 807 86 794 107 q 756 12 793 38 q 674 -14 719 -14 q 621 -7 643 -14 q 582 13 599 0 q 551 43 565 25 q 525 82 538 61 l 407 272 l 333 272 l 333 1 q 286 -7 318 -3 q 221 -11 254 -11 q 119 14 147 -11 q 90 104 90 39 l 90 763 q 106 808 90 792 q 150 833 122 824 q 260 858 197 850 q 393 865 322 865 q 682 784 585 865 q 779 567 779 703 m 400 457 q 496 484 458 457 q 533 564 533 511 q 499 644 533 617 q 392 671 465 671 q 360 669 375 671 q 331 665 346 668 l 331 457 l 400 457 z "},"S":{"ha":765,"x_min":56,"x_max":724,"o":"m 349 172 q 444 194 417 172 q 472 244 472 217 q 450 288 472 272 q 388 318 428 304 l 329 338 q 218 380 268 358 q 132 432 168 401 q 76 505 96 463 q 56 608 56 547 q 147 797 56 726 q 401 868 238 868 q 513 860 461 868 q 601 834 564 851 q 658 790 638 817 q 679 726 679 763 q 663 665 679 690 q 622 621 646 639 q 540 655 592 640 q 428 669 489 669 q 336 652 365 669 q 307 608 307 635 q 325 574 307 588 q 379 550 343 561 l 453 526 q 653 419 583 485 q 724 242 724 353 q 700 134 724 183 q 630 49 676 85 q 515 -6 583 14 q 357 -25 446 -25 q 238 -15 293 -25 q 142 16 183 -4 q 78 66 101 36 q 56 135 56 96 q 79 203 56 175 q 131 247 103 232 q 226 194 169 217 q 349 172 282 172 z "},"T":{"ha":772,"x_min":25,"x_max":744,"o":"m 719 842 q 737 801 729 826 q 744 747 744 776 q 722 671 744 694 q 660 647 699 647 l 503 647 l 503 1 q 456 -7 488 -3 q 390 -11 424 -11 q 288 14 317 -11 q 260 104 260 39 l 260 647 l 50 647 q 33 688 40 663 q 25 742 25 713 q 48 818 25 794 q 110 842 71 842 l 719 842 l 719 842 z "},"U":{"ha":922,"x_min":86,"x_max":836,"o":"m 461 -25 q 304 -1 374 -25 q 186 66 235 22 q 112 172 138 110 q 86 308 86 233 l 86 844 q 135 852 103 847 q 199 857 167 857 q 299 833 268 857 q 329 742 329 810 l 329 313 q 366 208 329 246 q 461 171 403 171 q 556 208 519 171 q 593 313 593 246 l 593 844 q 642 852 610 847 q 706 857 674 857 q 806 833 775 857 q 836 742 836 810 l 836 308 q 810 172 836 233 q 736 66 785 110 q 618 -1 688 22 q 461 -25 549 -25 z "},"V":{"ha":881,"x_min":24,"x_max":849,"o":"m 594 28 q 534 -1 575 11 q 444 -14 493 -14 q 344 3 386 -14 q 288 51 303 21 q 250 134 272 83 q 203 247 228 185 q 153 380 179 310 q 104 522 128 450 q 60 664 81 594 q 24 794 39 733 q 80 830 43 814 q 158 846 117 846 q 242 824 210 846 q 290 744 275 803 q 366 484 328 608 q 446 225 404 360 l 454 225 q 531 510 492 356 q 607 817 571 664 q 660 838 632 829 q 725 846 689 846 q 813 823 776 846 q 849 747 849 800 q 834 658 849 717 q 797 527 819 600 q 745 375 774 454 q 688 226 717 296 q 635 102 660 156 q 594 28 610 49 z "},"W":{"ha":1199,"x_min":35,"x_max":1156,"o":"m 479 636 q 527 652 494 643 q 593 661 560 661 q 690 644 651 661 q 738 593 729 626 q 766 487 753 536 q 792 392 779 438 q 816 303 804 347 q 839 210 828 258 l 846 210 q 868 372 858 294 q 886 523 878 449 q 903 670 894 597 q 919 818 911 743 q 1029 847 971 847 q 1118 825 1081 847 q 1156 750 1156 803 q 1149 663 1156 719 q 1133 538 1143 607 q 1108 392 1122 468 q 1079 246 1094 315 q 1048 120 1064 176 q 1018 33 1032 64 q 950 1 997 14 q 853 -11 903 -11 q 742 6 788 -11 q 688 56 697 24 q 649 188 669 111 q 604 356 628 264 q 564 179 585 265 q 526 33 543 93 q 464 1 506 14 q 372 -11 422 -11 q 259 6 310 -11 q 193 56 208 24 q 166 130 181 81 q 136 242 151 179 q 105 379 121 306 q 76 526 89 453 q 51 670 63 600 q 35 799 40 740 q 89 832 54 817 q 164 847 124 847 q 251 824 217 847 q 293 747 285 801 q 330 511 315 606 q 353 356 344 417 q 367 263 363 296 q 375 210 371 229 l 382 210 q 406 313 394 265 q 428 408 417 360 q 453 510 440 456 q 479 636 465 565 z "},"X":{"ha":835,"x_min":32,"x_max":806,"o":"m 411 258 l 235 -8 q 214 -10 224 -10 q 194 -11 204 -11 q 78 21 115 -11 q 40 100 40 53 q 58 170 40 140 q 107 240 75 200 l 253 426 l 32 739 q 51 778 39 758 q 83 813 64 797 q 126 840 101 829 q 182 850 151 850 q 253 830 222 850 q 315 761 283 810 l 424 594 l 585 836 q 615 844 596 840 q 656 847 635 847 q 753 817 718 847 q 789 742 789 786 q 769 672 789 703 q 714 599 749 642 q 644 511 678 554 q 575 425 611 468 l 806 100 q 758 19 794 49 q 658 -11 721 -11 q 590 9 618 -11 q 529 78 561 29 l 411 258 z "},"Y":{"ha":797,"x_min":7,"x_max":781,"o":"m 781 743 q 772 699 781 726 q 735 620 763 672 q 660 485 708 568 q 532 274 611 401 l 532 1 q 485 -7 517 -3 q 422 -11 454 -11 q 322 14 350 -11 q 294 101 294 39 l 294 278 q 217 395 258 329 q 135 530 175 461 q 60 664 94 599 q 7 779 26 729 q 56 825 25 804 q 133 846 88 846 q 222 824 188 846 q 286 740 256 801 l 408 494 l 417 494 q 452 575 436 538 q 483 651 468 613 q 515 729 499 689 q 550 819 531 769 q 606 839 575 832 q 664 846 636 846 q 747 820 713 846 q 781 743 781 794 z "},"Z":{"ha":778,"x_min":47,"x_max":736,"o":"m 101 0 q 63 53 78 19 q 47 129 47 86 q 65 200 47 164 q 108 267 83 236 l 428 647 l 86 647 q 67 688 75 664 q 60 743 60 713 q 83 821 60 796 q 147 846 107 846 l 665 846 q 726 713 726 796 q 710 644 726 678 q 669 579 694 610 l 351 199 l 710 199 q 728 157 719 182 q 736 101 736 132 q 713 24 736 49 q 650 0 690 0 l 101 0 l 101 0 z "},"[":{"ha":421,"x_min":64,"x_max":414,"o":"m 390 914 q 407 877 400 900 q 414 829 414 854 q 392 760 414 781 q 336 739 371 739 l 283 739 l 283 -7 l 390 -7 q 407 -44 400 -21 q 414 -92 414 -67 q 392 -161 414 -140 q 336 -182 371 -182 l 169 -182 q 89 -150 114 -182 q 64 -76 64 -118 l 64 808 q 89 882 64 850 q 169 914 114 914 l 390 914 z "},"\\":{"ha":500,"x_min":14,"x_max":481,"o":"m 481 -28 q 426 -64 461 -49 q 360 -79 392 -79 q 294 -63 322 -79 q 256 -4 267 -47 l 14 879 q 68 915 33 900 q 135 931 103 931 q 200 915 172 931 q 239 856 228 899 l 481 -28 z "},"]":{"ha":440,"x_min":7,"x_max":357,"o":"m 31 -182 q 14 -145 21 -168 q 7 -97 7 -122 q 28 -28 7 -49 q 85 -7 50 -7 l 138 -7 l 138 739 l 31 739 q 14 776 21 753 q 7 824 7 799 q 28 893 7 872 q 85 914 50 914 l 251 914 q 332 882 307 914 q 357 808 357 850 l 357 -76 q 332 -150 357 -118 q 251 -182 307 -182 l 31 -182 z "},"^":{"ha":678,"x_min":49,"x_max":629,"o":"m 213 892 q 263 915 229 906 q 338 925 296 925 q 418 911 385 925 q 467 872 451 897 q 506 802 483 850 q 553 697 529 754 q 597 580 576 639 q 629 476 618 521 q 583 445 613 460 q 521 431 554 431 q 453 449 478 431 q 411 515 429 467 l 333 733 l 328 733 q 283 596 304 669 q 246 454 261 522 q 198 436 225 442 q 147 431 171 431 q 77 449 106 431 q 49 513 49 468 q 65 587 49 538 q 107 692 82 636 q 160 802 132 749 q 213 892 189 856 z "},"_":{"ha":707,"x_min":0,"x_max":707,"o":"m 24 -261 q 7 -223 14 -246 q 0 -172 0 -200 q 24 -98 0 -121 q 85 -75 47 -75 l 683 -75 q 699 -115 692 -90 q 707 -168 707 -140 q 683 -240 707 -219 q 622 -261 660 -261 l 24 -261 z "},"`":{"ha":419,"x_min":22,"x_max":350,"o":"m 25 897 q 23 913 24 903 q 22 929 22 924 q 51 1009 22 981 q 124 1038 81 1038 q 177 1026 151 1038 q 226 986 203 1015 l 350 832 q 314 760 343 783 q 251 736 285 736 q 202 744 222 736 q 161 772 182 753 l 25 897 z "},"a":{"ha":756,"x_min":39,"x_max":683,"o":"m 361 150 q 413 155 385 150 q 456 168 442 160 l 456 279 l 356 271 q 292 254 317 268 q 267 213 267 240 q 288 167 267 185 q 361 150 310 150 m 350 696 q 487 681 425 696 q 592 634 549 665 q 660 555 636 603 q 683 442 683 507 l 683 131 q 663 72 683 94 q 615 32 643 49 q 361 -22 525 -22 q 228 -8 288 -22 q 127 33 169 6 q 62 104 85 61 q 39 204 39 147 q 96 351 39 300 q 272 415 153 403 l 454 435 l 454 444 q 419 502 454 485 q 317 519 383 519 q 215 508 265 519 q 124 481 164 497 q 93 519 106 493 q 81 572 81 544 q 98 630 81 608 q 151 667 115 651 q 247 689 192 682 q 350 696 301 696 z "},"b":{"ha":819,"x_min":75,"x_max":776,"o":"m 447 696 q 576 673 515 696 q 681 606 636 650 q 751 494 725 561 q 776 340 776 428 q 749 185 776 253 q 674 72 722 118 q 555 2 625 26 q 400 -22 485 -22 q 244 -1 308 -22 q 136 53 181 21 q 75 164 75 96 l 75 906 q 119 914 90 910 q 181 918 147 918 q 281 895 250 918 q 311 807 311 872 l 311 669 q 373 688 339 681 q 447 696 407 696 m 403 511 q 352 504 375 511 q 310 486 329 497 l 310 185 q 347 170 325 176 q 397 164 368 164 q 497 208 460 164 q 535 340 535 253 q 499 470 535 429 q 403 511 464 511 z "},"c":{"ha":679,"x_min":43,"x_max":633,"o":"m 453 510 q 387 499 418 510 q 333 465 356 488 q 296 410 310 443 q 282 335 282 378 q 331 207 282 249 q 451 165 379 165 q 525 176 493 165 q 581 197 557 186 q 620 156 607 178 q 633 101 633 133 q 578 13 633 46 q 422 -21 524 -21 q 265 2 335 -21 q 145 70 194 25 q 69 181 96 115 q 43 335 43 247 q 73 494 43 426 q 154 607 103 563 q 273 674 206 651 q 415 696 340 696 q 569 660 515 696 q 624 567 624 624 q 611 517 624 540 q 582 478 599 494 q 525 499 558 489 q 453 510 492 510 z "},"d":{"ha":814,"x_min":43,"x_max":739,"o":"m 400 696 q 503 681 460 696 l 503 906 q 547 914 518 910 q 608 918 575 918 q 708 895 678 918 q 739 807 739 872 l 739 149 q 678 44 739 83 q 574 -2 638 18 q 428 -22 511 -22 q 144 67 246 -22 q 43 335 43 157 q 71 494 43 426 q 147 607 99 563 q 260 674 194 651 q 400 696 325 696 m 504 496 q 471 507 489 503 q 433 511 453 511 q 322 467 361 511 q 282 335 282 424 q 319 206 282 247 q 426 164 357 164 q 472 169 451 164 q 504 182 493 175 l 504 496 z "},"e":{"ha":763,"x_min":43,"x_max":721,"o":"m 275 244 q 340 174 294 194 q 443 154 386 154 q 554 169 501 154 q 639 203 607 183 q 676 164 661 189 q 692 111 692 139 q 672 51 692 76 q 617 10 653 26 q 533 -15 582 -7 q 426 -22 485 -22 q 274 1 344 -22 q 153 69 204 24 q 72 185 101 115 q 43 347 43 254 q 73 505 43 439 q 152 613 103 571 q 264 676 201 656 q 392 696 326 696 q 526 674 465 696 q 630 613 586 651 q 697 519 674 574 q 721 401 721 465 q 694 329 721 354 q 621 297 668 304 l 275 244 m 393 524 q 305 492 340 524 q 263 401 269 460 l 499 440 q 490 469 497 454 q 471 496 483 483 q 439 516 458 508 q 393 524 419 524 z "},"f":{"ha":597,"x_min":75,"x_max":583,"o":"m 299 622 l 526 622 q 542 584 535 607 q 550 533 550 561 q 528 463 550 485 q 471 442 507 442 l 311 442 l 311 1 q 267 -7 296 -3 q 206 -11 239 -11 q 106 12 136 -11 q 75 100 75 35 l 75 675 q 99 797 75 746 q 165 880 124 847 q 263 928 207 913 q 383 943 319 943 q 535 916 486 943 q 583 824 583 889 q 572 774 583 796 q 546 740 560 751 q 491 752 519 747 q 425 757 463 757 q 332 737 365 757 q 299 667 299 717 l 299 622 z "},"g":{"ha":785,"x_min":42,"x_max":711,"o":"m 489 51 q 427 34 461 40 q 351 28 393 28 q 233 45 289 28 q 134 102 176 63 q 67 204 92 142 q 42 357 42 267 q 67 503 42 440 q 140 610 93 567 q 253 674 186 653 q 401 696 319 696 q 478 690 440 696 q 548 675 515 685 q 607 654 581 665 q 651 631 633 643 q 695 587 679 611 q 711 525 711 563 l 711 10 q 684 -117 711 -64 q 609 -206 657 -171 q 497 -258 561 -242 q 358 -275 432 -275 q 226 -263 283 -275 q 136 -229 169 -251 q 86 -135 86 -196 q 99 -76 86 -103 q 129 -37 113 -50 q 220 -75 169 -60 q 326 -90 271 -90 q 444 -65 400 -90 q 489 15 489 -40 l 489 51 m 396 204 q 445 210 424 204 q 485 228 467 217 l 485 494 q 453 506 469 501 q 411 511 438 511 q 314 474 351 511 q 276 356 276 438 q 310 236 276 268 q 396 204 344 204 z "},"h":{"ha":813,"x_min":75,"x_max":739,"o":"m 739 1 q 695 -7 724 -3 q 633 -11 667 -11 q 533 12 564 -11 q 503 100 503 35 l 503 408 q 474 488 503 465 q 404 511 446 511 q 353 504 376 511 q 311 486 331 497 l 311 1 q 267 -7 296 -3 q 206 -11 239 -11 q 106 12 136 -11 q 75 100 75 35 l 75 906 q 119 914 90 910 q 181 918 147 918 q 281 895 250 918 q 311 807 311 872 l 311 669 q 374 688 339 681 q 449 696 408 696 q 663 627 586 696 q 739 422 739 558 l 739 1 l 739 1 z "},"i":{"ha":392,"x_min":67,"x_max":325,"o":"m 78 665 q 122 674 93 669 q 183 678 150 678 q 283 655 253 678 q 314 567 314 632 l 314 1 q 270 -7 299 -3 q 208 -11 242 -11 q 108 12 139 -11 q 78 100 78 35 l 78 665 m 67 863 q 102 951 67 915 q 196 988 138 988 q 290 951 254 988 q 325 863 325 915 q 290 774 325 810 q 196 738 254 738 q 102 774 138 738 q 67 863 67 810 z "},"j":{"ha":399,"x_min":-10,"x_max":325,"o":"m 321 -12 q 305 -129 321 -81 q 262 -209 289 -178 q 199 -256 235 -240 q 122 -271 163 -271 q 26 -234 61 -271 q -10 -142 -8 -197 q 63 -83 40 -117 q 85 10 85 -49 l 85 665 q 128 674 100 669 q 190 678 157 678 q 290 655 260 678 q 321 567 321 632 l 321 -12 m 67 863 q 102 951 67 915 q 196 988 138 988 q 290 951 254 988 q 325 863 325 915 q 290 774 325 810 q 196 738 254 738 q 102 774 138 738 q 67 863 67 810 z "},"k":{"ha":771,"x_min":75,"x_max":732,"o":"m 311 1 q 267 -7 296 -3 q 206 -11 239 -11 q 106 12 136 -11 q 75 100 75 35 l 75 906 q 119 914 90 910 q 181 918 147 918 q 281 895 250 918 q 311 807 311 872 l 311 440 l 550 685 q 666 653 622 685 q 710 572 710 621 q 703 534 710 551 q 681 499 696 517 q 644 460 667 481 q 590 414 621 440 l 508 343 l 732 122 q 694 22 725 57 q 603 -12 663 -12 q 524 9 558 -12 q 449 82 489 31 l 311 253 l 311 1 l 311 1 z "},"l":{"ha":394,"x_min":79,"x_max":315,"o":"m 210 -11 q 110 12 140 -11 q 79 100 79 35 l 79 906 q 123 914 94 910 q 185 918 151 918 q 285 895 254 918 q 315 807 315 872 l 315 1 q 272 -7 300 -3 q 210 -11 243 -11 z "},"m":{"ha":1176,"x_min":72,"x_max":1103,"o":"m 1103 1 q 1059 -7 1088 -3 q 997 -11 1031 -11 q 897 12 928 -11 q 867 100 867 35 l 867 432 q 844 492 867 474 q 786 511 822 511 q 741 503 763 511 q 704 483 719 494 q 705 473 704 478 q 706 464 706 468 l 706 1 q 662 -7 690 -3 q 600 -11 633 -11 q 500 12 531 -11 q 469 100 469 35 l 469 432 q 445 492 469 474 q 386 511 421 511 q 340 503 360 511 q 308 489 321 496 l 308 1 q 265 -7 293 -3 q 203 -11 236 -11 q 103 12 133 -11 q 72 100 72 35 l 72 518 q 88 579 72 556 q 132 622 104 603 q 249 676 179 656 q 396 696 318 696 q 505 681 453 696 q 603 633 557 665 q 697 678 644 660 q 822 696 749 696 q 926 682 875 696 q 1016 638 976 668 q 1079 559 1056 608 q 1103 439 1103 510 l 1103 1 z "},"n":{"ha":810,"x_min":72,"x_max":736,"o":"m 736 1 q 692 -7 721 -3 q 631 -11 664 -11 q 531 12 561 -11 q 500 100 500 35 l 500 428 q 474 491 500 471 q 407 511 449 511 q 355 504 379 511 q 308 486 331 497 l 308 1 q 265 -7 293 -3 q 203 -11 236 -11 q 103 12 133 -11 q 72 100 72 35 l 72 518 q 88 579 72 556 q 132 622 104 603 q 251 676 179 656 q 410 696 322 696 q 651 627 567 696 q 736 435 736 558 l 736 1 z "},"o":{"ha":814,"x_min":43,"x_max":771,"o":"m 771 338 q 745 188 771 254 q 672 74 719 121 q 557 3 624 28 q 407 -22 490 -22 q 257 2 324 -22 q 142 73 190 26 q 69 186 94 119 q 43 338 43 253 q 69 486 43 419 q 144 599 96 553 q 258 671 192 646 q 407 696 325 696 q 556 670 489 696 q 670 598 622 644 q 744 485 718 551 q 771 338 771 418 m 407 511 q 317 466 349 511 q 285 338 285 421 q 317 206 285 250 q 407 163 349 163 q 497 207 465 163 q 529 338 529 251 q 497 466 529 421 q 407 511 465 511 z "},"p":{"ha":813,"x_min":72,"x_max":769,"o":"m 421 -21 q 360 -16 388 -21 q 308 -3 332 -11 l 308 -247 q 265 -256 293 -251 q 203 -260 236 -260 q 103 -237 133 -260 q 72 -149 72 -214 l 72 528 q 88 590 72 565 q 132 633 104 615 q 242 678 175 661 q 393 696 310 696 q 546 675 476 696 q 665 611 615 654 q 742 501 715 568 q 769 342 769 435 q 743 185 769 253 q 669 72 717 118 q 559 3 622 26 q 421 -21 496 -21 m 385 165 q 491 210 454 165 q 528 342 528 254 q 494 471 528 431 q 393 511 460 511 q 344 505 367 511 q 307 490 322 499 l 307 185 q 343 171 324 176 q 385 165 363 165 z "},"q":{"ha":815,"x_min":43,"x_max":740,"o":"m 740 -251 q 697 -260 725 -256 q 635 -264 668 -264 q 535 -241 565 -264 q 504 -153 504 -218 l 504 -4 q 452 -17 481 -12 q 392 -22 424 -22 q 251 1 315 -22 q 141 68 188 24 q 69 180 94 113 q 43 335 43 247 q 70 491 43 424 q 148 604 97 558 q 269 673 199 650 q 428 696 340 696 q 504 690 467 696 q 575 676 542 685 q 635 657 608 668 q 681 633 663 646 q 724 590 708 614 q 740 528 740 565 l 740 -251 m 426 164 q 506 182 472 164 l 506 494 q 476 506 494 501 q 433 511 457 511 q 322 467 361 511 q 282 335 282 424 q 319 206 282 247 q 426 164 357 164 z "},"r":{"ha":571,"x_min":72,"x_max":550,"o":"m 308 1 q 265 -7 293 -3 q 203 -11 236 -11 q 103 12 133 -11 q 72 100 72 35 l 72 513 q 93 583 72 553 q 150 635 114 613 q 263 679 199 664 q 399 694 328 694 q 550 588 550 694 q 543 541 550 563 q 526 504 536 519 q 450 510 500 510 q 376 501 414 510 q 308 476 338 493 l 308 1 z "},"s":{"ha":683,"x_min":56,"x_max":642,"o":"m 642 201 q 563 36 642 96 q 329 -24 483 -24 q 221 -15 271 -24 q 135 10 171 -7 q 80 54 100 28 q 60 117 60 81 q 74 173 60 150 q 107 211 88 196 q 199 172 147 189 q 319 154 251 154 q 385 167 363 154 q 408 200 408 179 q 392 231 408 219 q 336 249 375 242 l 294 257 q 115 331 174 281 q 56 476 56 382 q 78 569 56 528 q 140 639 100 611 q 237 682 181 667 q 361 697 293 697 q 458 690 413 697 q 536 667 503 682 q 589 627 569 651 q 608 569 608 603 q 597 515 608 538 q 567 476 585 492 q 533 491 556 483 q 485 505 511 499 q 431 515 458 511 q 382 519 404 519 q 311 509 336 519 q 286 476 286 499 q 300 451 286 461 q 353 433 314 442 l 396 424 q 585 340 529 393 q 642 201 642 286 z "},"t":{"ha":551,"x_min":75,"x_max":514,"o":"m 329 -21 q 141 35 207 -21 q 75 215 75 90 l 75 832 q 119 841 90 836 q 179 846 147 846 q 278 822 247 846 q 308 735 308 799 l 308 660 l 490 660 q 506 622 499 644 q 514 571 514 599 q 492 501 514 522 q 435 479 471 479 l 308 479 l 308 232 q 331 181 308 196 q 396 165 354 165 q 439 169 417 165 q 478 178 461 172 q 499 144 490 163 q 508 99 508 125 q 469 13 508 46 q 329 -21 429 -21 z "},"u":{"ha":808,"x_min":72,"x_max":736,"o":"m 72 672 q 116 681 88 676 q 178 685 144 685 q 278 662 247 685 q 308 574 308 639 l 308 268 q 336 187 308 211 q 417 163 364 163 q 469 168 449 163 q 500 179 489 174 l 500 672 q 544 681 515 676 q 606 685 572 685 q 706 662 675 685 q 736 574 736 639 l 736 144 q 678 40 736 75 q 562 -6 629 10 q 415 -22 494 -22 q 277 -6 340 -22 q 168 46 214 11 q 97 135 122 81 q 72 268 72 190 l 72 672 z "},"v":{"ha":757,"x_min":28,"x_max":724,"o":"m 608 689 q 690 668 657 689 q 724 596 724 647 q 714 531 724 574 q 688 435 704 489 q 650 322 671 382 q 607 206 629 263 q 563 101 585 150 q 524 21 540 51 q 467 -4 504 6 q 382 -14 429 -14 q 288 0 328 -14 q 233 44 249 14 q 203 110 221 68 q 167 204 186 151 q 126 315 147 257 q 87 432 106 374 q 53 544 68 490 q 28 640 38 599 q 80 674 47 660 q 151 689 113 689 q 231 669 200 689 q 278 593 263 649 l 332 381 q 361 267 347 318 q 382 189 375 217 l 389 189 q 444 417 415 292 q 497 663 474 542 q 551 682 521 675 q 608 689 581 689 z "},"w":{"ha":1099,"x_min":32,"x_max":1064,"o":"m 556 379 q 532 278 546 331 q 503 178 518 226 q 476 90 489 131 q 457 24 464 49 q 404 -3 438 7 q 325 -14 371 -14 q 226 2 268 -14 q 171 47 185 18 q 149 110 161 69 q 123 201 136 150 q 97 310 110 251 q 72 426 83 368 q 49 540 60 485 q 32 640 39 594 q 84 674 51 660 q 156 689 117 689 q 235 667 204 689 q 274 593 267 646 q 297 419 288 488 q 313 306 307 350 q 323 240 319 263 q 329 203 326 217 l 335 203 q 349 267 339 225 q 374 364 360 310 q 403 481 388 418 q 433 607 418 544 q 488 631 461 622 q 556 639 515 639 q 639 624 604 639 q 683 576 674 608 q 715 458 700 515 q 743 351 731 400 q 765 263 756 301 q 779 203 775 225 l 786 203 q 816 425 801 310 q 843 660 831 540 q 896 682 868 675 q 951 689 924 689 q 1032 668 1000 689 q 1064 596 1064 647 q 1057 530 1064 574 q 1039 431 1050 486 q 1013 314 1028 375 q 984 197 999 253 q 956 94 969 140 q 933 24 943 49 q 874 -3 914 7 q 788 -14 833 -14 q 650 44 671 -14 q 629 108 642 69 q 603 190 617 146 q 576 284 589 235 q 556 379 564 333 z "},"x":{"ha":726,"x_min":35,"x_max":699,"o":"m 39 89 q 55 148 39 122 q 110 218 71 174 l 219 346 l 35 565 q 78 651 46 618 q 160 685 111 685 q 231 663 206 685 q 286 600 256 640 l 374 483 q 449 583 411 533 q 524 683 486 632 q 536 685 531 685 q 547 685 542 685 q 651 657 613 685 q 689 585 689 629 q 685 551 689 567 q 672 520 681 536 q 647 485 663 504 q 608 442 631 467 l 515 339 l 699 99 q 657 15 692 46 q 574 -15 622 -15 q 490 15 521 -14 q 429 86 458 44 l 354 193 l 213 -11 q 197 -12 206 -11 q 183 -12 189 -12 q 76 17 113 -12 q 39 89 39 46 z "},"y":{"ha":765,"x_min":28,"x_max":732,"o":"m 178 172 q 145 250 163 207 q 109 349 128 293 q 70 476 90 404 q 28 640 50 547 q 80 674 47 660 q 151 689 113 689 q 232 669 200 689 q 279 593 264 649 q 334 401 307 496 q 389 211 361 306 l 394 211 q 427 314 411 258 q 458 428 443 369 q 487 547 474 488 q 510 663 500 606 q 558 682 533 675 q 611 689 583 689 q 696 668 660 689 q 732 596 732 647 q 715 463 732 540 q 669 303 697 386 q 607 142 642 221 q 538 3 572 63 q 392 -198 458 -133 q 258 -262 326 -262 q 165 -228 203 -262 q 121 -137 128 -193 q 210 -53 165 -100 q 288 43 254 -6 q 237 76 264 50 q 178 172 210 101 z "},"z":{"ha":668,"x_min":47,"x_max":635,"o":"m 569 674 q 605 628 592 654 q 618 568 618 601 q 605 513 618 540 q 572 463 592 486 l 339 182 l 611 182 q 627 143 619 167 q 635 92 635 119 q 613 22 635 43 q 556 0 592 0 l 96 0 q 60 46 74 19 q 47 106 47 72 q 60 160 47 133 q 93 211 74 188 l 332 492 l 76 492 q 60 531 68 507 q 53 582 53 554 q 74 652 53 631 q 132 674 96 674 l 569 674 l 569 674 z "},"{":{"ha":468,"x_min":33,"x_max":431,"o":"m 276 369 q 351 217 351 333 l 351 63 q 374 -5 351 15 q 428 -33 397 -25 q 431 -53 431 -44 q 431 -71 431 -62 q 397 -160 431 -133 q 310 -187 364 -187 q 183 -139 233 -187 q 133 8 133 -90 l 133 153 q 112 246 133 214 q 43 290 90 278 q 36 327 39 307 q 33 369 33 347 q 36 412 33 392 q 43 449 39 432 q 112 493 90 461 q 133 586 133 525 l 133 726 q 185 874 133 825 q 314 922 238 922 q 400 897 369 922 q 431 806 431 871 q 431 788 431 797 q 428 768 431 779 q 374 740 397 760 q 351 672 351 719 l 351 522 q 276 369 351 404 z "},"|":{"ha":390,"x_min":90,"x_max":300,"o":"m 300 -235 q 260 -241 286 -237 q 207 -244 233 -244 q 121 -226 151 -244 q 90 -147 90 -208 l 90 939 q 131 945 104 942 q 183 949 157 949 q 269 930 239 949 q 300 850 300 911 l 300 -235 z "},"}":{"ha":468,"x_min":38,"x_max":435,"o":"m 192 369 q 117 522 117 404 l 117 672 q 94 740 117 719 q 40 768 71 760 q 38 788 38 779 q 38 806 38 797 q 68 897 38 871 q 154 922 99 922 q 283 874 231 922 q 335 726 335 825 l 335 586 q 356 493 335 525 q 425 449 378 461 q 432 412 429 432 q 435 369 435 392 q 432 327 435 347 q 425 290 429 307 q 356 246 378 278 q 335 153 335 214 l 335 8 q 285 -139 335 -90 q 158 -187 235 -187 q 71 -160 104 -187 q 38 -71 38 -133 q 38 -53 38 -62 q 40 -33 38 -44 q 94 -5 71 -25 q 117 63 117 15 l 117 217 q 192 369 117 333 z "},"~":{"ha":699,"x_min":25,"x_max":676,"o":"m 451 435 q 503 453 485 435 q 535 492 522 471 q 590 482 564 492 q 635 456 615 472 q 665 415 654 439 q 676 361 676 390 q 663 298 676 325 q 626 253 649 271 q 572 228 603 236 q 508 219 542 219 q 443 226 475 219 q 379 242 411 233 q 315 258 347 251 q 249 265 282 265 q 195 245 214 265 q 165 210 176 225 q 112 219 138 210 q 67 246 86 229 q 36 287 47 263 q 25 340 25 311 q 40 404 25 378 q 80 448 56 431 q 133 474 104 465 q 192 482 163 482 q 260 474 226 482 q 325 458 293 467 q 388 442 357 450 q 451 435 419 435 z "}," ":{"ha":278,"x_min":0,"x_max":0,"o":""},"¡":{"ha":414,"x_min":74,"x_max":340,"o":"m 85 -122 q 86 -35 85 -90 q 92 85 88 21 q 103 215 96 150 q 119 332 110 281 q 136 340 125 336 q 160 347 147 344 q 185 351 172 350 q 207 353 197 353 q 274 340 247 353 q 308 292 301 328 q 319 199 314 260 q 329 69 325 139 q 335 -72 333 -1 q 338 -196 338 -143 q 274 -220 310 -211 q 204 -229 239 -229 q 116 -203 147 -229 q 85 -122 85 -176 m 340 547 q 305 453 340 489 q 207 417 269 417 q 109 453 144 417 q 74 547 74 489 q 109 642 74 606 q 207 678 144 678 q 305 642 269 678 q 340 547 340 606 z "},"¢":{"ha":683,"x_min":40,"x_max":631,"o":"m 450 510 q 384 499 415 510 q 330 465 353 488 q 293 410 307 443 q 279 335 279 378 q 328 207 279 249 q 449 165 376 165 q 522 176 490 165 q 578 197 554 186 q 617 156 604 178 q 631 101 631 133 q 588 21 631 53 q 467 -18 546 -11 l 467 -119 q 428 -127 453 -124 q 374 -131 403 -131 q 285 -110 313 -131 q 258 -32 258 -90 l 258 3 q 97 122 154 39 q 40 335 40 204 q 101 552 40 469 q 258 669 163 635 l 258 797 q 297 805 272 801 q 351 808 322 808 q 440 788 413 808 q 467 710 467 768 l 467 692 q 581 649 542 682 q 621 567 621 615 q 608 517 621 540 q 579 478 596 494 q 522 499 556 489 q 450 510 489 510 z "},"£":{"ha":700,"x_min":49,"x_max":679,"o":"m 161 333 l 132 333 q 74 354 96 333 q 53 428 53 375 q 61 477 53 454 q 76 515 69 500 l 143 515 q 141 544 142 531 q 140 571 140 558 q 166 705 140 649 q 235 797 192 761 q 338 851 279 833 q 461 868 396 868 q 605 836 556 868 q 654 742 654 804 q 642 688 654 714 q 614 651 629 663 q 564 672 590 664 q 500 679 538 679 q 406 653 440 679 q 372 563 372 626 q 372 540 372 551 q 374 515 372 528 l 557 515 q 572 477 564 500 q 581 428 581 454 q 559 354 581 375 q 501 333 538 333 l 390 333 l 390 315 q 349 183 390 239 l 656 183 q 672 144 664 168 q 679 93 679 121 q 657 22 679 43 q 599 0 635 0 l 139 0 q 76 28 103 0 q 49 110 49 57 q 49 120 49 117 q 50 131 49 124 q 133 197 106 156 q 161 318 161 239 l 161 333 z "},"¤":{"ha":785,"x_min":76,"x_max":703,"o":"m 685 404 q 669 306 685 350 q 628 228 654 263 l 703 138 q 665 85 688 101 q 615 68 642 68 q 570 88 590 68 q 531 131 550 107 l 517 147 q 389 124 457 124 q 320 129 353 124 q 257 147 288 135 l 193 63 q 125 88 154 69 q 96 138 96 106 q 107 178 96 157 q 138 224 118 200 l 143 232 q 104 308 118 265 q 90 404 90 351 q 105 501 90 457 q 146 579 119 544 l 76 664 q 115 717 92 700 q 164 733 138 733 q 209 714 189 733 q 249 671 229 694 l 256 660 q 386 685 315 685 q 526 657 463 685 l 589 739 q 657 714 628 732 q 686 664 686 696 q 675 623 686 644 q 644 578 664 601 l 636 568 q 672 494 660 535 q 685 404 685 453 m 489 404 q 460 499 489 467 q 388 531 432 531 q 315 499 343 531 q 286 404 286 467 q 315 310 286 342 q 388 278 343 278 q 460 310 432 278 q 489 404 489 342 z "},"¥":{"ha":829,"x_min":46,"x_max":776,"o":"m 776 747 q 772 718 776 735 q 756 674 768 701 q 720 603 743 646 q 660 499 697 561 l 746 499 q 759 467 753 485 q 765 426 765 449 q 747 369 765 386 q 700 353 728 353 l 103 353 q 90 383 96 364 q 83 424 83 403 q 101 481 83 464 q 147 499 119 499 l 193 499 q 109 648 149 574 q 46 781 69 722 q 93 826 64 806 q 167 846 122 846 q 253 825 219 846 q 315 744 286 804 l 425 522 l 433 522 q 467 599 453 564 q 494 667 481 633 q 521 737 507 700 q 554 821 535 774 q 608 839 578 832 q 665 846 639 846 q 744 821 713 846 q 776 747 776 796 m 542 142 l 542 1 q 495 -7 526 -3 q 432 -11 464 -11 q 332 14 360 -11 q 304 101 304 39 l 304 142 l 103 142 q 90 172 96 153 q 83 213 83 192 q 101 270 83 253 q 147 288 119 288 l 746 288 q 759 256 753 274 q 765 215 765 238 q 747 158 765 175 q 700 142 728 142 l 542 142 z "},"¦":{"ha":407,"x_min":90,"x_max":300,"o":"m 300 435 q 260 428 286 432 q 207 425 233 425 q 121 443 151 425 q 90 522 90 461 l 90 939 q 131 945 104 942 q 183 949 157 949 q 269 930 239 949 q 300 850 300 911 l 300 435 m 300 -235 q 260 -241 286 -237 q 207 -244 233 -244 q 121 -226 151 -244 q 90 -147 90 -208 l 90 269 q 131 276 104 272 q 183 279 157 279 q 269 260 239 279 q 300 181 300 242 l 300 -235 z "},"§":{"ha":758,"x_min":69,"x_max":689,"o":"m 689 386 q 673 313 689 347 q 632 254 657 278 q 689 125 689 206 q 603 -35 689 24 q 349 -94 517 -94 q 238 -86 289 -94 q 151 -60 188 -78 q 94 -17 115 -43 q 74 46 74 10 q 88 102 74 79 q 121 140 101 125 q 215 101 161 118 q 339 83 268 83 q 431 96 406 83 q 456 129 456 108 q 440 157 456 149 q 383 172 424 165 l 301 185 q 124 255 179 204 q 69 394 69 306 q 128 522 69 475 q 74 657 74 572 q 96 746 74 707 q 158 812 118 785 q 255 853 199 839 q 379 868 311 868 q 479 860 432 868 q 563 838 526 853 q 619 798 599 822 q 640 740 640 774 q 628 685 640 708 q 599 647 617 663 q 564 662 588 654 q 513 676 540 669 q 455 686 485 682 q 400 690 425 690 q 330 680 356 690 q 304 647 304 669 q 319 624 304 632 q 367 611 333 617 l 444 600 q 630 526 571 582 q 689 386 689 471 m 289 401 q 303 369 289 386 q 354 344 317 351 l 453 324 q 469 372 469 349 q 452 408 469 392 q 396 432 435 425 l 304 449 q 292 425 296 438 q 289 401 289 413 z "},"¨":{"ha":519,"x_min":-8,"x_max":525,"o":"m 226 875 q 194 794 226 826 q 108 761 161 761 q 24 794 56 761 q -8 875 -8 826 q 24 957 -8 924 q 108 990 56 990 q 194 957 161 990 q 226 875 226 924 m 525 875 q 493 794 525 826 q 408 761 461 761 q 323 794 356 761 q 290 875 290 826 q 323 957 290 924 q 408 990 356 990 q 493 957 461 990 q 525 875 525 924 z "},"©":{"ha":990,"x_min":49,"x_max":942,"o":"m 49 428 q 81 597 49 518 q 171 735 113 676 q 311 826 229 793 q 493 860 393 860 q 675 826 593 860 q 817 735 757 793 q 909 597 876 676 q 942 428 942 518 q 909 258 942 336 q 817 122 876 179 q 675 31 757 64 q 493 -3 593 -3 q 311 31 393 -3 q 171 122 229 64 q 81 258 113 179 q 49 428 49 336 m 493 735 q 369 712 424 735 q 276 648 315 689 q 217 551 238 607 q 197 428 197 494 q 217 306 197 361 q 276 210 238 250 q 369 147 315 169 q 493 125 424 125 q 617 147 563 125 q 710 210 672 169 q 769 306 749 250 q 789 428 789 361 q 769 551 789 494 q 710 648 749 607 q 617 712 672 689 q 493 735 563 735 m 547 518 q 483 496 510 518 q 457 433 457 474 q 482 367 457 390 q 546 343 507 343 q 591 350 572 343 q 624 364 610 357 q 656 294 656 336 q 617 239 656 263 q 515 215 578 215 q 430 230 469 215 q 361 272 390 244 q 315 341 332 300 q 299 435 299 382 q 319 528 299 489 q 371 594 339 568 q 442 634 403 621 q 521 647 482 647 q 614 624 579 647 q 649 567 649 601 q 621 499 649 526 q 590 512 608 506 q 547 518 571 518 z "},"ª":{"ha":493,"x_min":19,"x_max":438,"o":"m 228 510 q 263 513 244 510 q 290 521 281 515 l 290 594 l 225 589 q 183 578 200 586 q 167 550 167 569 q 181 521 167 532 q 228 510 196 510 m 221 865 q 379 825 321 865 q 438 700 438 785 l 438 497 q 424 459 438 474 q 393 433 411 444 q 228 399 338 399 q 76 435 132 399 q 19 544 19 471 q 56 642 19 608 q 171 683 92 675 l 289 696 l 289 701 q 200 751 289 751 q 133 744 167 751 q 74 725 100 736 q 55 750 63 733 q 47 785 47 767 q 92 846 47 828 q 153 861 118 857 q 221 865 189 865 z "},"«":{"ha":797,"x_min":40,"x_max":753,"o":"m 407 131 q 381 58 407 90 q 299 26 354 26 q 244 42 268 26 q 196 83 219 58 l 61 219 q 47 256 53 233 q 40 301 40 279 q 51 373 40 346 q 79 415 63 400 l 283 613 q 363 569 336 597 q 390 507 390 540 q 388 478 390 492 q 379 452 386 465 q 360 424 372 439 q 326 392 347 410 l 235 307 l 407 131 m 753 131 q 726 58 753 90 q 644 26 700 26 q 590 42 614 26 q 542 83 565 58 l 407 219 q 392 256 399 233 q 386 301 386 279 q 397 373 386 346 q 425 415 408 400 l 629 613 q 709 569 682 597 q 736 507 736 540 q 734 478 736 492 q 725 452 732 465 q 706 424 718 439 q 672 392 693 410 l 581 307 l 753 131 z "},"¬":{"ha":733,"x_min":42,"x_max":692,"o":"m 588 622 q 664 594 636 622 q 692 518 692 567 l 692 253 q 648 245 678 249 q 590 242 618 242 q 539 246 561 242 q 502 261 517 250 q 480 293 488 272 q 472 346 472 314 l 472 442 l 65 442 q 49 480 57 457 q 42 531 42 503 q 63 601 42 579 q 121 622 85 622 l 588 622 z "},"­":{"ha":492,"x_min":42,"x_max":450,"o":"m 68 258 q 50 299 58 274 q 42 351 42 324 q 65 426 42 403 q 126 449 89 449 l 424 449 q 441 408 432 433 q 450 356 450 383 q 426 281 450 304 q 365 258 403 258 l 68 258 z "},"®":{"ha":860,"x_min":51,"x_max":808,"o":"m 51 517 q 78 660 51 593 q 156 776 106 726 q 275 853 206 825 q 429 882 344 882 q 582 853 513 882 q 702 776 651 825 q 781 660 753 726 q 808 517 808 593 q 781 374 808 440 q 702 258 753 307 q 582 181 651 210 q 429 153 513 153 q 275 181 344 153 q 156 258 206 210 q 78 374 106 307 q 51 517 51 440 m 176 517 q 194 413 176 460 q 244 333 211 367 q 324 280 278 299 q 429 261 371 261 q 534 280 488 261 q 613 333 581 299 q 662 413 644 367 q 679 517 679 460 q 662 620 679 572 q 613 703 644 668 q 534 757 581 738 q 429 776 488 776 q 324 757 371 776 q 244 703 278 738 q 194 620 211 668 q 176 517 176 572 m 403 467 l 403 361 q 381 358 394 360 q 350 357 368 357 q 313 365 326 357 q 300 401 300 374 l 300 661 q 322 688 300 679 q 367 697 342 694 q 419 700 392 700 q 534 669 496 700 q 572 582 572 638 q 555 523 572 546 q 513 488 538 500 l 582 393 q 560 364 576 374 q 526 354 544 354 q 488 366 501 354 q 461 397 474 378 l 417 467 l 403 467 m 424 542 q 457 551 444 542 q 469 582 469 560 q 422 621 469 621 q 410 620 415 621 q 403 619 406 619 l 403 542 l 424 542 z "},"¯":{"ha":506,"x_min":19,"x_max":486,"o":"m 42 783 q 27 822 35 799 q 19 869 19 844 q 40 941 19 921 q 96 961 61 961 l 464 961 q 481 923 475 946 q 486 875 486 900 q 466 803 486 824 q 411 783 446 783 l 42 783 z "},"°":{"ha":501,"x_min":22,"x_max":479,"o":"m 479 660 q 462 572 479 610 q 414 507 444 533 q 342 467 383 481 q 251 453 300 453 q 160 467 201 453 q 88 507 118 481 q 40 572 57 533 q 22 660 22 610 q 40 747 22 708 q 88 811 57 785 q 160 851 118 838 q 251 865 201 865 q 342 851 300 865 q 414 811 383 838 q 462 747 444 785 q 479 660 479 708 m 251 732 q 206 715 225 732 q 186 660 186 699 q 206 602 186 619 q 251 585 225 585 q 297 602 278 585 q 315 660 315 619 q 297 715 315 699 q 251 732 278 732 z "},"±":{"ha":729,"x_min":56,"x_max":674,"o":"m 474 622 l 650 622 q 666 582 658 607 q 674 529 674 557 q 650 457 674 478 q 589 436 626 436 l 474 436 l 474 265 q 431 258 460 263 q 375 254 401 254 q 289 273 318 254 q 260 353 260 292 l 260 436 l 79 436 q 63 474 69 451 q 56 525 56 497 q 79 599 56 576 q 140 622 103 622 l 260 622 l 260 788 q 302 795 274 790 q 357 800 331 800 q 443 781 413 800 q 474 700 474 761 l 474 622 m 79 0 q 63 38 69 15 q 56 89 56 61 q 79 163 56 140 q 140 186 103 186 l 650 186 q 666 146 658 171 q 674 93 674 121 q 650 21 674 42 q 589 0 626 0 l 79 0 z "},"²":{"ha":389,"x_min":31,"x_max":358,"o":"m 174 974 q 304 934 257 974 q 351 826 351 894 q 324 744 351 783 q 254 671 297 706 l 200 628 l 344 628 q 353 603 349 618 q 358 574 358 589 q 345 531 358 543 q 310 518 332 518 l 64 518 q 40 545 49 529 q 31 583 31 561 q 50 650 31 635 l 151 739 q 185 769 172 757 q 203 792 197 782 q 212 808 210 801 q 214 822 214 815 q 200 852 214 840 q 161 864 186 864 q 110 855 131 864 q 74 836 89 846 q 54 862 63 846 q 46 899 46 878 q 79 955 46 936 q 174 974 113 974 z "},"³":{"ha":397,"x_min":19,"x_max":363,"o":"m 169 797 q 215 829 215 797 q 156 864 215 864 q 106 857 128 864 q 65 840 83 850 q 32 901 32 863 q 72 957 32 939 q 178 975 111 975 q 307 939 261 975 q 353 843 353 903 q 335 789 353 814 q 294 751 318 764 q 342 713 322 739 q 363 643 363 686 q 311 544 363 581 q 178 507 260 507 q 60 530 100 507 q 19 588 19 553 q 30 624 19 607 q 57 649 40 642 q 103 627 79 636 q 161 618 128 618 q 209 628 193 618 q 225 656 225 639 q 172 693 225 693 l 107 693 q 97 715 101 701 q 93 744 93 728 q 107 797 93 779 l 169 797 z "},"´":{"ha":414,"x_min":74,"x_max":390,"o":"m 246 1044 q 354 1014 318 1044 q 390 944 390 983 q 376 891 390 913 q 329 842 363 869 l 197 733 q 104 763 135 733 q 74 825 74 792 q 80 857 74 842 q 106 893 86 872 l 246 1044 z "},"µ":{"ha":808,"x_min":72,"x_max":736,"o":"m 736 144 q 678 40 736 79 q 584 -4 638 14 q 451 -22 531 -22 q 357 -10 396 -22 q 290 22 318 1 q 303 -78 297 -31 q 308 -175 308 -125 l 308 -222 q 263 -238 289 -232 q 203 -244 236 -244 q 103 -222 133 -244 q 72 -133 72 -199 l 72 672 q 116 681 88 676 q 178 685 144 685 q 278 662 247 685 q 308 574 308 639 l 308 268 q 336 187 308 211 q 417 163 364 163 q 469 168 449 163 q 500 179 489 174 l 500 672 q 544 681 515 676 q 606 685 572 685 q 706 662 675 685 q 736 574 736 639 l 736 144 l 736 144 z "},"¶":{"ha":764,"x_min":22,"x_max":688,"o":"m 557 851 q 612 847 588 851 q 653 831 636 843 q 678 797 669 818 q 688 740 688 775 l 688 -96 q 642 -103 672 -99 q 582 -108 613 -108 q 527 -104 551 -108 q 486 -87 503 -100 q 460 -53 469 -75 q 451 3 451 -32 l 451 653 l 356 653 l 356 315 q 335 285 356 297 q 268 274 314 274 q 179 290 224 274 q 100 341 135 307 q 44 427 65 375 q 22 551 22 479 q 49 683 22 626 q 120 776 75 739 q 225 833 165 814 q 351 851 285 851 l 557 851 z "},"·":{"ha":331,"x_min":31,"x_max":300,"o":"m 31 376 q 67 474 31 435 q 165 513 103 513 q 264 474 228 513 q 300 376 300 435 q 264 279 300 318 q 165 240 228 240 q 67 279 103 240 q 31 376 31 318 z "},"¸":{"ha":271,"x_min":-28,"x_max":269,"o":"m 175 53 q 249 -21 228 24 q 269 -117 269 -65 q 225 -234 269 -187 q 101 -281 181 -281 q 8 -252 43 -281 q -28 -171 -28 -224 q -22 -129 -28 -147 l -8 -129 q 53 -108 35 -129 q 72 -57 72 -87 q 67 -25 72 -43 q 49 7 61 -7 l 175 53 z "},"¹":{"ha":308,"x_min":10,"x_max":250,"o":"m 114 818 l 57 801 q 25 828 40 810 q 10 875 10 847 q 22 915 10 900 q 54 938 35 931 l 154 974 l 176 974 q 230 953 210 974 q 250 899 250 932 l 250 521 q 224 515 242 518 q 188 513 207 513 q 133 525 151 513 q 114 576 114 538 l 114 818 z "},"º":{"ha":550,"x_min":35,"x_max":507,"o":"m 507 633 q 442 460 507 521 q 271 400 376 400 q 99 463 164 400 q 35 633 35 525 q 99 803 35 740 q 271 865 164 865 q 367 849 324 865 q 441 802 410 832 q 490 729 472 772 q 507 633 507 686 m 271 746 q 213 717 233 746 q 192 633 192 688 q 213 549 192 578 q 271 519 235 519 q 329 549 308 519 q 350 633 350 579 q 328 716 350 686 q 271 746 307 746 z "},"»":{"ha":797,"x_min":44,"x_max":757,"o":"m 390 508 q 417 581 390 549 q 499 613 443 613 q 553 597 529 613 q 601 556 578 581 l 736 419 q 751 383 744 406 q 757 338 757 360 q 746 266 757 293 q 718 224 735 239 l 514 26 q 434 70 461 42 q 407 132 407 99 q 419 186 407 163 q 471 247 431 210 l 563 332 l 390 508 m 44 508 q 71 581 44 549 q 153 613 97 613 q 208 597 183 613 q 256 556 232 581 l 390 419 q 405 383 399 406 q 411 338 411 360 q 400 266 411 293 q 372 224 389 239 l 168 26 q 88 70 115 42 q 61 132 61 99 q 73 186 61 163 q 125 247 85 210 l 217 332 l 44 508 z "},"¿":{"ha":692,"x_min":33,"x_max":643,"o":"m 488 363 q 532 316 511 347 q 553 240 553 285 q 530 176 553 197 q 463 143 507 154 l 354 117 q 301 90 318 106 q 285 42 285 74 q 310 -8 285 15 q 399 -31 336 -31 q 506 -17 456 -31 q 586 18 556 -3 q 626 -26 610 0 q 643 -87 643 -51 q 622 -151 643 -124 q 565 -195 601 -178 q 476 -221 528 -212 q 365 -229 425 -229 q 222 -209 283 -229 q 118 -153 160 -189 q 55 -67 76 -117 q 33 42 33 -17 q 112 233 33 163 q 347 335 190 303 l 488 363 m 533 547 q 498 453 533 489 q 400 417 463 417 q 302 453 338 417 q 267 547 267 489 q 302 642 267 606 q 400 678 338 678 q 498 642 463 678 q 533 547 533 606 z "},"À":{"ha":871,"x_min":32,"x_max":847,"o":"m 560 175 l 308 175 q 284 82 294 125 q 264 1 274 39 q 223 -10 244 -6 q 171 -15 201 -15 q 66 9 100 -15 q 32 76 32 33 q 38 115 32 96 q 50 161 43 135 q 77 255 60 199 q 115 376 94 311 q 160 508 136 440 q 204 635 183 575 q 242 744 225 696 q 269 817 260 792 q 341 843 293 831 q 438 856 389 856 q 560 835 507 856 q 629 771 614 815 q 683 604 654 700 q 742 406 713 508 q 799 205 771 304 q 847 29 826 106 q 797 -2 831 10 q 718 -14 764 -14 q 624 8 650 -14 q 585 79 597 31 l 560 175 m 436 638 q 393 511 417 581 q 347 363 369 442 l 519 363 q 480 512 500 442 q 444 638 460 582 l 436 638 m 213 1026 q 210 1042 211 1032 q 210 1058 210 1053 q 239 1138 210 1110 q 311 1167 268 1167 q 363 1154 339 1167 q 414 1115 386 1142 l 533 997 q 497 925 526 949 q 435 901 468 901 q 385 912 406 901 q 340 938 364 922 l 213 1026 z "},"Á":{"ha":871,"x_min":32,"x_max":847,"o":"m 560 175 l 308 175 q 284 82 294 125 q 264 1 274 39 q 223 -10 244 -6 q 171 -15 201 -15 q 66 9 100 -15 q 32 76 32 33 q 38 115 32 96 q 50 161 43 135 q 77 255 60 199 q 115 376 94 311 q 160 508 136 440 q 204 635 183 575 q 242 744 225 696 q 269 817 260 792 q 341 843 293 831 q 438 856 389 856 q 560 835 507 856 q 629 771 614 815 q 683 604 654 700 q 742 406 713 508 q 799 205 771 304 q 847 29 826 106 q 797 -2 831 10 q 718 -14 764 -14 q 624 8 650 -14 q 585 79 597 31 l 560 175 m 436 638 q 393 511 417 581 q 347 363 369 442 l 519 363 q 480 512 500 442 q 444 638 460 582 l 436 638 m 538 1175 q 628 1147 596 1175 q 661 1076 661 1118 q 648 1026 661 1049 q 596 981 635 1004 l 457 900 q 373 925 401 900 q 344 983 344 950 q 349 1015 344 1000 q 376 1050 354 1031 l 538 1175 z "},"Â":{"ha":871,"x_min":32,"x_max":847,"o":"m 450 1019 q 383 957 417 988 q 319 901 350 926 q 247 926 276 901 q 218 989 218 951 q 232 1039 218 1018 q 283 1089 246 1060 l 324 1119 q 394 1163 364 1150 q 453 1176 425 1176 q 518 1163 489 1176 q 579 1118 547 1150 l 692 1006 q 666 931 692 956 q 596 906 640 906 q 544 924 568 906 q 488 978 521 942 l 450 1019 m 560 175 l 308 175 q 284 82 294 125 q 264 1 274 39 q 223 -10 244 -6 q 171 -15 201 -15 q 66 9 100 -15 q 32 76 32 33 q 38 115 32 96 q 50 161 43 135 q 77 255 60 199 q 115 376 94 311 q 160 508 136 440 q 204 635 183 575 q 242 744 225 696 q 269 817 260 792 q 341 843 293 831 q 438 856 389 856 q 560 835 507 856 q 629 771 614 815 q 683 604 654 700 q 742 406 713 508 q 799 205 771 304 q 847 29 826 106 q 797 -2 831 10 q 718 -14 764 -14 q 624 8 650 -14 q 585 79 597 31 l 560 175 m 436 638 q 393 511 417 581 q 347 363 369 442 l 519 363 q 480 512 500 442 q 444 638 460 582 l 436 638 z "},"Ã":{"ha":871,"x_min":32,"x_max":847,"o":"m 560 175 l 308 175 q 284 82 294 125 q 264 1 274 39 q 223 -10 244 -6 q 171 -15 201 -15 q 66 9 100 -15 q 32 76 32 33 q 38 115 32 96 q 50 161 43 135 q 77 255 60 199 q 115 376 94 311 q 160 508 136 440 q 204 635 183 575 q 242 744 225 696 q 269 817 260 792 q 341 843 293 831 q 438 856 389 856 q 560 835 507 856 q 629 771 614 815 q 683 604 654 700 q 742 406 713 508 q 799 205 771 304 q 847 29 826 106 q 797 -2 831 10 q 718 -14 764 -14 q 624 8 650 -14 q 585 79 597 31 l 560 175 m 436 638 q 393 511 417 581 q 347 363 369 442 l 519 363 q 480 512 500 442 q 444 638 460 582 l 436 638 m 321 1171 q 378 1165 350 1171 q 431 1151 406 1158 q 478 1137 457 1143 q 517 1131 500 1131 q 564 1149 547 1131 q 588 1179 581 1167 l 593 1179 q 669 1148 638 1179 q 701 1068 701 1117 q 663 976 701 1006 q 565 947 624 947 q 503 953 532 947 q 451 967 475 960 q 407 981 428 975 q 369 988 386 988 q 323 970 339 988 q 299 939 307 953 l 293 939 q 217 969 250 939 q 185 1050 185 1000 q 197 1103 185 1081 q 228 1142 208 1126 q 272 1164 247 1157 q 321 1171 296 1171 z "},"Ä":{"ha":871,"x_min":32,"x_max":847,"o":"m 560 175 l 308 175 q 284 82 294 125 q 264 1 274 39 q 223 -10 244 -6 q 171 -15 201 -15 q 66 9 100 -15 q 32 76 32 33 q 38 115 32 96 q 50 161 43 135 q 77 255 60 199 q 115 376 94 311 q 160 508 136 440 q 204 635 183 575 q 242 744 225 696 q 269 817 260 792 q 341 843 293 831 q 438 856 389 856 q 560 835 507 856 q 629 771 614 815 q 683 604 654 700 q 742 406 713 508 q 799 205 771 304 q 847 29 826 106 q 797 -2 831 10 q 718 -14 764 -14 q 624 8 650 -14 q 585 79 597 31 l 560 175 m 436 638 q 393 511 417 581 q 347 363 369 442 l 519 363 q 480 512 500 442 q 444 638 460 582 l 436 638 m 408 1039 q 376 958 408 990 q 290 925 343 925 q 206 958 238 925 q 174 1039 174 990 q 206 1121 174 1088 q 290 1154 238 1154 q 376 1121 343 1154 q 408 1039 408 1088 m 707 1039 q 675 958 707 990 q 590 925 643 925 q 505 958 538 925 q 472 1039 472 990 q 505 1121 472 1088 q 590 1154 538 1154 q 675 1121 643 1154 q 707 1039 707 1088 z "},"Å":{"ha":871,"x_min":32,"x_max":847,"o":"m 560 175 l 308 175 q 284 82 294 125 q 264 1 274 39 q 223 -10 244 -6 q 171 -15 201 -15 q 66 9 100 -15 q 32 76 32 33 q 38 115 32 96 q 50 161 43 135 q 77 255 60 199 q 115 376 94 311 q 160 508 136 440 q 204 635 183 575 q 242 744 225 696 q 269 817 260 792 q 341 843 293 831 q 438 856 389 856 q 560 835 507 856 q 629 771 614 815 q 683 604 654 700 q 742 406 713 508 q 799 205 771 304 q 847 29 826 106 q 797 -2 831 10 q 718 -14 764 -14 q 624 8 650 -14 q 585 79 597 31 l 560 175 m 436 638 q 393 511 417 581 q 347 363 369 442 l 519 363 q 480 512 500 442 q 444 638 460 582 l 436 638 m 263 1047 q 312 1155 263 1111 q 446 1199 361 1199 q 586 1155 536 1199 q 636 1047 636 1111 q 586 940 636 983 q 446 897 536 897 q 312 940 361 897 q 263 1047 263 983 m 403 1047 q 416 1016 403 1028 q 447 1004 429 1004 q 481 1016 468 1004 q 494 1047 494 1028 q 481 1078 494 1067 q 447 1090 468 1090 q 416 1078 429 1090 q 403 1047 403 1067 z "},"Æ":{"ha":1215,"x_min":39,"x_max":1163,"o":"m 674 -4 q 579 31 614 -4 q 544 125 544 65 l 544 175 l 329 175 l 253 3 q 213 -9 233 -4 q 164 -14 193 -14 q 69 10 100 -14 q 39 78 39 35 q 44 117 39 97 q 60 163 49 138 q 103 256 78 201 q 160 374 129 311 q 222 501 190 436 q 284 625 254 567 q 338 731 314 683 q 378 807 363 779 q 437 835 397 822 q 525 849 476 849 q 589 843 553 849 q 656 822 625 838 q 728 842 688 842 l 1132 842 q 1149 803 1142 826 q 1157 750 1157 779 q 1135 675 1157 699 q 1074 651 1113 651 l 781 651 l 781 522 l 1093 522 q 1110 483 1103 507 q 1118 431 1118 460 q 1096 356 1118 379 q 1035 333 1074 333 l 781 333 l 781 188 l 1138 188 q 1155 147 1147 172 q 1163 93 1163 122 q 1140 19 1163 42 q 1079 -4 1118 -4 l 674 -4 m 414 363 l 544 363 l 544 638 l 536 638 l 414 363 z "},"Ç":{"ha":793,"x_min":49,"x_max":754,"o":"m 751 719 q 733 657 751 683 q 692 615 715 631 q 615 656 656 639 q 519 672 574 672 q 356 606 413 672 q 299 421 299 540 q 360 234 299 297 q 532 171 422 171 q 628 186 589 171 q 704 221 668 201 q 741 174 728 201 q 754 111 754 147 q 738 53 754 79 q 681 8 721 26 q 643 -6 665 1 q 590 -18 621 -12 q 614 -117 614 -60 q 569 -234 614 -187 q 446 -281 525 -281 q 352 -252 388 -281 q 317 -171 317 -224 q 322 -129 317 -147 l 336 -129 q 398 -108 379 -129 q 417 -57 417 -87 q 408 -18 417 -39 q 265 24 331 -7 q 151 110 199 56 q 76 241 103 164 q 49 421 49 318 q 83 613 49 529 q 176 753 117 696 q 314 839 235 810 q 483 868 393 868 q 681 826 611 868 q 751 719 751 785 z "},"È":{"ha":761,"x_min":90,"x_max":708,"o":"m 219 -4 q 125 31 160 -4 q 90 125 90 65 l 90 713 q 125 807 90 772 q 219 842 160 842 l 678 842 q 695 803 688 826 q 703 750 703 779 q 681 675 703 699 q 619 651 658 651 l 326 651 l 326 522 l 639 522 q 656 483 649 507 q 664 431 664 460 q 642 356 664 379 q 581 333 619 333 l 326 333 l 326 188 l 683 188 q 701 147 693 172 q 708 93 708 122 q 686 19 708 42 q 625 -4 664 -4 l 219 -4 m 203 1026 q 201 1042 201 1032 q 200 1058 200 1053 q 229 1138 200 1110 q 301 1167 258 1167 q 353 1154 329 1167 q 404 1115 376 1142 l 524 997 q 488 925 517 949 q 425 901 458 901 q 375 912 396 901 q 331 938 354 922 l 203 1026 z "},"É":{"ha":761,"x_min":90,"x_max":708,"o":"m 219 -4 q 125 31 160 -4 q 90 125 90 65 l 90 713 q 125 807 90 772 q 219 842 160 842 l 678 842 q 695 803 688 826 q 703 750 703 779 q 681 675 703 699 q 619 651 658 651 l 326 651 l 326 522 l 639 522 q 656 483 649 507 q 664 431 664 460 q 642 356 664 379 q 581 333 619 333 l 326 333 l 326 188 l 683 188 q 701 147 693 172 q 708 93 708 122 q 686 19 708 42 q 625 -4 664 -4 l 219 -4 m 521 1175 q 612 1147 579 1175 q 644 1076 644 1118 q 631 1026 644 1049 q 579 981 618 1004 l 440 900 q 356 925 385 900 q 328 983 328 950 q 333 1015 328 1000 q 360 1050 338 1031 l 521 1175 z "},"Ê":{"ha":761,"x_min":90,"x_max":708,"o":"m 219 -4 q 125 31 160 -4 q 90 125 90 65 l 90 713 q 125 807 90 772 q 219 842 160 842 l 678 842 q 695 803 688 826 q 703 750 703 779 q 681 675 703 699 q 619 651 658 651 l 326 651 l 326 522 l 639 522 q 656 483 649 507 q 664 431 664 460 q 642 356 664 379 q 581 333 619 333 l 326 333 l 326 188 l 683 188 q 701 147 693 172 q 708 93 708 122 q 686 19 708 42 q 625 -4 664 -4 l 219 -4 m 407 1019 q 340 957 374 988 q 276 901 307 926 q 204 926 233 901 q 175 989 175 951 q 189 1039 175 1018 q 240 1089 203 1060 l 281 1119 q 351 1163 321 1150 q 410 1176 382 1176 q 475 1163 446 1176 q 536 1118 504 1150 l 649 1006 q 623 931 649 956 q 553 906 597 906 q 501 924 525 906 q 444 978 478 942 l 407 1019 z "},"Ë":{"ha":761,"x_min":90,"x_max":708,"o":"m 219 -4 q 125 31 160 -4 q 90 125 90 65 l 90 713 q 125 807 90 772 q 219 842 160 842 l 678 842 q 695 803 688 826 q 703 750 703 779 q 681 675 703 699 q 619 651 658 651 l 326 651 l 326 522 l 639 522 q 656 483 649 507 q 664 431 664 460 q 642 356 664 379 q 581 333 619 333 l 326 333 l 326 188 l 683 188 q 701 147 693 172 q 708 93 708 122 q 686 19 708 42 q 625 -4 664 -4 l 219 -4 m 368 1039 q 335 958 368 990 q 250 925 303 925 q 165 958 197 925 q 133 1039 133 990 q 165 1121 133 1088 q 250 1154 197 1154 q 335 1121 303 1154 q 368 1039 368 1088 m 667 1039 q 635 958 667 990 q 550 925 603 925 q 465 958 497 925 q 432 1039 432 990 q 465 1121 432 1088 q 550 1154 497 1154 q 635 1121 603 1154 q 667 1039 667 1088 z "},"Ì":{"ha":424,"x_min":-31,"x_max":333,"o":"m 221 -11 q 119 14 147 -11 q 90 104 90 39 l 90 844 q 139 852 107 847 q 203 857 171 857 q 303 833 272 857 q 333 742 333 810 l 333 1 q 286 -7 318 -3 q 221 -11 254 -11 m -28 1026 q -30 1042 -29 1032 q -31 1058 -31 1053 q -1 1138 -31 1110 q 71 1167 28 1167 q 122 1154 99 1167 q 174 1115 146 1142 l 293 997 q 257 925 286 949 q 194 901 228 901 q 144 912 165 901 q 100 938 124 922 l -28 1026 z "},"Í":{"ha":424,"x_min":90,"x_max":425,"o":"m 221 -11 q 119 14 147 -11 q 90 104 90 39 l 90 844 q 139 852 107 847 q 203 857 171 857 q 303 833 272 857 q 333 742 333 810 l 333 1 q 286 -7 318 -3 q 221 -11 254 -11 m 301 1175 q 392 1147 360 1175 q 425 1076 425 1118 q 412 1026 425 1049 q 360 981 399 1004 l 221 900 q 137 925 165 900 q 108 983 108 950 q 113 1015 108 1000 q 140 1050 118 1031 l 301 1175 z "},"Î":{"ha":424,"x_min":-21,"x_max":453,"o":"m 221 -11 q 119 14 147 -11 q 90 104 90 39 l 90 844 q 139 852 107 847 q 203 857 171 857 q 303 833 272 857 q 333 742 333 810 l 333 1 q 286 -7 318 -3 q 221 -11 254 -11 m 211 1019 q 144 957 178 988 q 81 901 111 926 q 8 926 38 901 q -21 989 -21 951 q -7 1039 -21 1018 q 44 1089 7 1060 l 85 1119 q 156 1163 125 1150 q 214 1176 186 1176 q 279 1163 250 1176 q 340 1118 308 1150 l 453 1006 q 427 931 453 956 q 357 906 401 906 q 306 924 329 906 q 249 978 282 942 l 211 1019 z "},"Ï":{"ha":424,"x_min":-62,"x_max":471,"o":"m 221 -11 q 119 14 147 -11 q 90 104 90 39 l 90 844 q 139 852 107 847 q 203 857 171 857 q 303 833 272 857 q 333 742 333 810 l 333 1 q 286 -7 318 -3 q 221 -11 254 -11 m 172 1039 q 140 958 172 990 q 54 925 107 925 q -31 958 1 925 q -62 1039 -62 990 q -31 1121 -62 1088 q 54 1154 1 1154 q 140 1121 107 1154 q 172 1039 172 1088 m 471 1039 q 439 958 471 990 q 354 925 407 925 q 269 958 301 925 q 236 1039 236 990 q 269 1121 236 1088 q 354 1154 301 1154 q 439 1121 407 1154 q 471 1039 471 1088 z "},"Ð":{"ha":972,"x_min":28,"x_max":924,"o":"m 924 422 q 890 228 924 311 q 795 89 857 144 q 647 6 733 33 q 457 -22 561 -22 q 403 -21 433 -22 q 340 -15 372 -19 q 274 -5 307 -11 q 214 13 242 1 q 138 114 138 42 l 138 331 l 53 331 q 35 369 43 346 q 28 422 28 393 q 50 497 28 474 q 111 519 72 519 l 138 519 l 138 763 q 153 808 138 792 q 197 833 169 824 q 324 859 257 853 q 443 865 390 865 q 640 839 551 865 q 791 758 728 813 q 889 619 854 703 q 924 422 924 536 m 674 418 q 615 606 674 543 q 460 669 557 669 q 420 668 440 669 q 379 664 400 667 l 379 519 l 511 519 q 528 481 521 504 q 536 428 536 457 q 514 353 536 376 q 453 331 492 331 l 379 331 l 379 181 q 417 176 394 178 q 458 174 439 174 q 614 235 554 174 q 674 418 674 296 z "},"Ñ":{"ha":943,"x_min":90,"x_max":853,"o":"m 853 29 q 797 -1 833 10 q 708 -11 760 -11 q 611 4 657 -11 q 536 78 565 19 l 399 358 q 361 440 378 401 q 325 528 344 478 l 315 525 q 323 363 322 438 q 324 221 324 289 l 324 0 q 278 -7 308 -3 q 215 -11 247 -11 q 117 13 144 -11 q 90 100 90 38 l 90 799 q 150 840 110 826 q 236 854 190 854 q 334 838 288 854 q 408 765 381 822 l 547 485 q 585 403 568 442 q 621 315 601 365 l 626 317 q 620 442 621 383 q 619 556 619 501 l 619 846 q 665 853 635 849 q 728 857 696 857 q 826 833 799 857 q 853 746 853 808 l 853 29 m 343 1171 q 400 1165 372 1171 q 453 1151 428 1158 q 501 1137 479 1143 q 539 1131 522 1131 q 586 1149 569 1131 q 610 1179 603 1167 l 615 1179 q 692 1148 660 1179 q 724 1068 724 1117 q 685 976 724 1006 q 588 947 646 947 q 526 953 554 947 q 474 967 497 960 q 429 981 450 975 q 392 988 408 988 q 345 970 361 988 q 321 939 329 953 l 315 939 q 240 969 272 939 q 207 1050 207 1000 q 219 1103 207 1081 q 250 1142 231 1126 q 294 1164 269 1157 q 343 1171 318 1171 z "},"Ò":{"ha":976,"x_min":49,"x_max":928,"o":"m 928 422 q 894 230 928 314 q 802 90 861 146 q 663 4 743 33 q 488 -25 582 -25 q 313 4 393 -25 q 174 90 232 33 q 82 231 115 147 q 49 422 49 314 q 83 614 49 531 q 176 753 117 697 q 315 839 235 810 q 488 868 394 868 q 660 839 581 868 q 800 753 740 810 q 894 614 860 697 q 928 422 928 531 m 678 422 q 626 610 678 547 q 488 672 575 672 q 351 610 403 672 q 299 422 299 549 q 350 233 299 296 q 489 171 401 171 q 626 233 575 171 q 678 422 678 296 m 268 1026 q 266 1042 267 1032 q 265 1058 265 1053 q 294 1138 265 1110 q 367 1167 324 1167 q 418 1154 394 1167 q 469 1115 442 1142 l 589 997 q 553 925 582 949 q 490 901 524 901 q 440 912 461 901 q 396 938 419 922 l 268 1026 z "},"Ó":{"ha":976,"x_min":49,"x_max":928,"o":"m 928 422 q 894 230 928 314 q 802 90 861 146 q 663 4 743 33 q 488 -25 582 -25 q 313 4 393 -25 q 174 90 232 33 q 82 231 115 147 q 49 422 49 314 q 83 614 49 531 q 176 753 117 697 q 315 839 235 810 q 488 868 394 868 q 660 839 581 868 q 800 753 740 810 q 894 614 860 697 q 928 422 928 531 m 678 422 q 626 610 678 547 q 488 672 575 672 q 351 610 403 672 q 299 422 299 549 q 350 233 299 296 q 489 171 401 171 q 626 233 575 171 q 678 422 678 296 m 600 1175 q 691 1147 658 1175 q 724 1076 724 1118 q 710 1026 724 1049 q 658 981 697 1004 l 519 900 q 435 925 464 900 q 407 983 407 950 q 412 1015 407 1000 q 439 1050 417 1031 l 600 1175 z "},"Ô":{"ha":976,"x_min":49,"x_max":928,"o":"m 928 422 q 894 230 928 314 q 802 90 861 146 q 663 4 743 33 q 488 -25 582 -25 q 313 4 393 -25 q 174 90 232 33 q 82 231 115 147 q 49 422 49 314 q 83 614 49 531 q 176 753 117 697 q 315 839 235 810 q 488 868 394 868 q 660 839 581 868 q 800 753 740 810 q 894 614 860 697 q 928 422 928 531 m 678 422 q 626 610 678 547 q 488 672 575 672 q 351 610 403 672 q 299 422 299 549 q 350 233 299 296 q 489 171 401 171 q 626 233 575 171 q 678 422 678 296 m 493 1019 q 426 957 460 988 q 363 901 393 926 q 290 926 319 901 q 261 989 261 951 q 275 1039 261 1018 q 326 1089 289 1060 l 367 1119 q 438 1163 407 1150 q 496 1176 468 1176 q 561 1163 532 1176 q 622 1118 590 1150 l 735 1006 q 709 931 735 956 q 639 906 683 906 q 588 924 611 906 q 531 978 564 942 l 493 1019 z "},"Õ":{"ha":976,"x_min":49,"x_max":928,"o":"m 928 422 q 894 230 928 314 q 802 90 861 146 q 663 4 743 33 q 488 -25 582 -25 q 313 4 393 -25 q 174 90 232 33 q 82 231 115 147 q 49 422 49 314 q 83 614 49 531 q 176 753 117 697 q 315 839 235 810 q 488 868 394 868 q 660 839 581 868 q 800 753 740 810 q 894 614 860 697 q 928 422 928 531 m 678 422 q 626 610 678 547 q 488 672 575 672 q 351 610 403 672 q 299 422 299 549 q 350 233 299 296 q 489 171 401 171 q 626 233 575 171 q 678 422 678 296 m 368 1171 q 425 1165 397 1171 q 478 1151 453 1158 q 526 1137 504 1143 q 564 1131 547 1131 q 611 1149 594 1131 q 635 1179 628 1167 l 640 1179 q 717 1148 685 1179 q 749 1068 749 1117 q 710 976 749 1006 q 613 947 671 947 q 551 953 579 947 q 499 967 522 960 q 454 981 475 975 q 417 988 433 988 q 370 970 386 988 q 346 939 354 953 l 340 939 q 265 969 297 939 q 232 1050 232 1000 q 244 1103 232 1081 q 275 1142 256 1126 q 319 1164 294 1157 q 368 1171 343 1171 z "},"Ö":{"ha":976,"x_min":49,"x_max":928,"o":"m 928 422 q 894 230 928 314 q 802 90 861 146 q 663 4 743 33 q 488 -25 582 -25 q 313 4 393 -25 q 174 90 232 33 q 82 231 115 147 q 49 422 49 314 q 83 614 49 531 q 176 753 117 697 q 315 839 235 810 q 488 868 394 868 q 660 839 581 868 q 800 753 740 810 q 894 614 860 697 q 928 422 928 531 m 678 422 q 626 610 678 547 q 488 672 575 672 q 351 610 403 672 q 299 422 299 549 q 350 233 299 296 q 489 171 401 171 q 626 233 575 171 q 678 422 678 296 m 454 1039 q 422 958 454 990 q 336 925 389 925 q 251 958 283 925 q 219 1039 219 990 q 251 1121 219 1088 q 336 1154 283 1154 q 422 1121 389 1154 q 454 1039 454 1088 m 753 1039 q 721 958 753 990 q 636 925 689 925 q 551 958 583 925 q 518 1039 518 990 q 551 1121 518 1088 q 636 1154 583 1154 q 721 1121 689 1154 q 753 1039 753 1088 z "},"×":{"ha":700,"x_min":39,"x_max":661,"o":"m 490 396 l 661 199 q 614 122 646 150 q 536 93 582 93 q 499 102 521 93 q 463 131 478 111 l 347 269 l 175 83 q 124 99 147 88 q 83 127 100 111 q 56 162 65 143 q 46 199 46 181 q 82 265 46 225 l 211 403 l 39 581 q 56 622 44 601 q 85 659 68 643 q 121 685 101 675 q 161 694 140 694 q 225 664 199 694 l 356 522 l 526 701 q 603 654 569 688 q 636 579 636 621 q 628 547 636 564 q 600 510 619 529 l 490 396 z "},"Ø":{"ha":976,"x_min":49,"x_max":928,"o":"m 928 422 q 894 230 928 314 q 802 90 861 146 q 663 4 743 33 q 488 -25 582 -25 q 226 51 336 -25 l 153 -25 q 78 10 107 -14 q 49 72 49 33 q 62 117 49 96 q 107 168 75 139 l 113 174 q 65 287 82 225 q 49 422 49 349 q 83 614 49 531 q 176 753 117 697 q 315 839 235 810 q 488 868 394 868 q 744 792 635 868 l 819 868 q 894 829 867 856 q 922 771 922 803 q 904 722 922 746 q 860 674 886 697 q 910 560 892 622 q 928 422 928 497 m 685 422 q 678 500 685 461 l 382 201 q 489 171 426 171 q 630 233 575 171 q 685 422 685 296 m 292 422 q 293 379 292 399 q 299 340 294 360 l 592 643 q 488 672 547 672 q 347 610 403 672 q 292 422 292 547 z "},"Ù":{"ha":922,"x_min":86,"x_max":836,"o":"m 461 -25 q 304 -1 374 -25 q 186 66 235 22 q 112 172 138 110 q 86 308 86 233 l 86 844 q 135 852 103 847 q 199 857 167 857 q 299 833 268 857 q 329 742 329 810 l 329 313 q 366 208 329 246 q 461 171 403 171 q 556 208 519 171 q 593 313 593 246 l 593 844 q 642 852 610 847 q 706 857 674 857 q 806 833 775 857 q 836 742 836 810 l 836 308 q 810 172 836 233 q 736 66 785 110 q 618 -1 688 22 q 461 -25 549 -25 m 217 1026 q 215 1042 215 1032 q 214 1058 214 1053 q 243 1138 214 1110 q 315 1167 272 1167 q 367 1154 343 1167 q 418 1115 390 1142 l 538 997 q 501 925 531 949 q 439 901 472 901 q 389 912 410 901 q 344 938 368 922 l 217 1026 z "},"Ú":{"ha":922,"x_min":86,"x_max":836,"o":"m 461 -25 q 304 -1 374 -25 q 186 66 235 22 q 112 172 138 110 q 86 308 86 233 l 86 844 q 135 852 103 847 q 199 857 167 857 q 299 833 268 857 q 329 742 329 810 l 329 313 q 366 208 329 246 q 461 171 403 171 q 556 208 519 171 q 593 313 593 246 l 593 844 q 642 852 610 847 q 706 857 674 857 q 806 833 775 857 q 836 742 836 810 l 836 308 q 810 172 836 233 q 736 66 785 110 q 618 -1 688 22 q 461 -25 549 -25 m 564 1175 q 655 1147 622 1175 q 688 1076 688 1118 q 674 1026 688 1049 q 622 981 661 1004 l 483 900 q 399 925 428 900 q 371 983 371 950 q 376 1015 371 1000 q 403 1050 381 1031 l 564 1175 z "},"Û":{"ha":922,"x_min":86,"x_max":836,"o":"m 461 -25 q 304 -1 374 -25 q 186 66 235 22 q 112 172 138 110 q 86 308 86 233 l 86 844 q 135 852 103 847 q 199 857 167 857 q 299 833 268 857 q 329 742 329 810 l 329 313 q 366 208 329 246 q 461 171 403 171 q 556 208 519 171 q 593 313 593 246 l 593 844 q 642 852 610 847 q 706 857 674 857 q 806 833 775 857 q 836 742 836 810 l 836 308 q 810 172 836 233 q 736 66 785 110 q 618 -1 688 22 q 461 -25 549 -25 m 468 1019 q 401 957 435 988 q 338 901 368 926 q 265 926 294 901 q 236 989 236 951 q 250 1039 236 1018 q 301 1089 264 1060 l 342 1119 q 413 1163 382 1150 q 471 1176 443 1176 q 536 1163 507 1176 q 597 1118 565 1150 l 710 1006 q 684 931 710 956 q 614 906 658 906 q 563 924 586 906 q 506 978 539 942 l 468 1019 z "},"Ü":{"ha":922,"x_min":86,"x_max":836,"o":"m 461 -25 q 304 -1 374 -25 q 186 66 235 22 q 112 172 138 110 q 86 308 86 233 l 86 844 q 135 852 103 847 q 199 857 167 857 q 299 833 268 857 q 329 742 329 810 l 329 313 q 366 208 329 246 q 461 171 403 171 q 556 208 519 171 q 593 313 593 246 l 593 844 q 642 852 610 847 q 706 857 674 857 q 806 833 775 857 q 836 742 836 810 l 836 308 q 810 172 836 233 q 736 66 785 110 q 618 -1 688 22 q 461 -25 549 -25 m 425 1039 q 392 958 425 990 q 307 925 360 925 q 222 958 254 925 q 190 1039 190 990 q 222 1121 190 1088 q 307 1154 254 1154 q 392 1121 360 1154 q 425 1039 425 1088 m 724 1039 q 692 958 724 990 q 607 925 660 925 q 522 958 554 925 q 489 1039 489 990 q 522 1121 489 1088 q 607 1154 554 1154 q 692 1121 660 1154 q 724 1039 724 1088 z "},"Ý":{"ha":797,"x_min":7,"x_max":781,"o":"m 781 743 q 772 699 781 726 q 735 620 763 672 q 660 485 708 568 q 532 274 611 401 l 532 1 q 485 -7 517 -3 q 422 -11 454 -11 q 322 14 350 -11 q 294 101 294 39 l 294 278 q 217 395 258 329 q 135 530 175 461 q 60 664 94 599 q 7 779 26 729 q 56 825 25 804 q 133 846 88 846 q 222 824 188 846 q 286 740 256 801 l 408 494 l 417 494 q 452 575 436 538 q 483 651 468 613 q 515 729 499 689 q 550 819 531 769 q 606 839 575 832 q 664 846 636 846 q 747 820 713 846 q 781 743 781 794 m 489 1175 q 580 1147 547 1175 q 613 1076 613 1118 q 599 1026 613 1049 q 547 981 586 1004 l 408 900 q 324 925 353 900 q 296 983 296 950 q 301 1015 296 1000 q 328 1050 306 1031 l 489 1175 z "},"Þ":{"ha":801,"x_min":83,"x_max":767,"o":"m 83 844 q 132 852 100 847 q 196 857 164 857 q 296 833 265 857 q 326 742 326 810 l 326 726 l 425 726 q 574 705 510 726 q 681 644 639 683 q 745 549 724 604 q 767 426 767 494 q 745 303 767 358 q 681 209 724 249 q 574 148 639 169 q 425 126 510 126 l 326 126 l 326 1 q 279 -7 311 -3 q 214 -11 247 -11 q 112 14 140 -11 q 83 104 83 39 l 83 844 m 325 317 l 399 317 q 488 344 457 317 q 519 426 519 371 q 488 509 519 482 q 399 536 457 536 l 325 536 l 325 317 z "},"ß":{"ha":867,"x_min":75,"x_max":825,"o":"m 311 1 q 267 -7 296 -3 q 206 -11 239 -11 q 106 12 136 -11 q 75 100 75 35 l 75 631 q 102 769 75 711 q 175 867 129 828 q 283 924 221 906 q 417 943 346 943 q 556 922 493 943 q 663 860 618 900 q 733 763 708 819 q 758 636 758 706 q 747 580 758 601 q 710 544 736 558 l 663 519 q 634 499 644 510 q 624 472 624 488 q 634 447 624 457 q 661 429 644 438 q 785 338 746 388 q 825 207 825 288 q 806 108 825 151 q 751 36 786 65 q 667 -8 715 7 q 564 -24 619 -24 q 430 3 481 -24 q 379 82 379 29 q 392 136 379 114 q 425 172 406 158 q 466 154 444 161 q 515 147 488 147 q 565 163 547 147 q 583 204 583 178 q 569 244 583 229 q 528 275 556 260 q 419 358 456 314 q 382 475 382 403 q 417 572 382 531 q 513 638 451 614 l 524 642 q 494 720 524 689 q 418 751 465 751 q 340 721 369 751 q 311 631 311 690 l 311 1 z "},"à":{"ha":756,"x_min":39,"x_max":683,"o":"m 361 150 q 413 155 385 150 q 456 168 442 160 l 456 279 l 356 271 q 292 254 317 268 q 267 213 267 240 q 288 167 267 185 q 361 150 310 150 m 350 696 q 487 681 425 696 q 592 634 549 665 q 660 555 636 603 q 683 442 683 507 l 683 131 q 663 72 683 94 q 615 32 643 49 q 361 -22 525 -22 q 228 -8 288 -22 q 127 33 169 6 q 62 104 85 61 q 39 204 39 147 q 96 351 39 300 q 272 415 153 403 l 454 435 l 454 444 q 419 502 454 485 q 317 519 383 519 q 215 508 265 519 q 124 481 164 497 q 93 519 106 493 q 81 572 81 544 q 98 630 81 608 q 151 667 115 651 q 247 689 192 682 q 350 696 301 696 m 157 897 q 155 913 156 903 q 154 929 154 924 q 183 1009 154 981 q 256 1038 213 1038 q 309 1026 283 1038 q 358 986 335 1015 l 482 832 q 446 760 475 783 q 383 736 417 736 q 334 744 354 736 q 293 772 314 753 l 157 897 z "},"á":{"ha":756,"x_min":39,"x_max":683,"o":"m 361 150 q 413 155 385 150 q 456 168 442 160 l 456 279 l 356 271 q 292 254 317 268 q 267 213 267 240 q 288 167 267 185 q 361 150 310 150 m 350 696 q 487 681 425 696 q 592 634 549 665 q 660 555 636 603 q 683 442 683 507 l 683 131 q 663 72 683 94 q 615 32 643 49 q 361 -22 525 -22 q 228 -8 288 -22 q 127 33 169 6 q 62 104 85 61 q 39 204 39 147 q 96 351 39 300 q 272 415 153 403 l 454 435 l 454 444 q 419 502 454 485 q 317 519 383 519 q 215 508 265 519 q 124 481 164 497 q 93 519 106 493 q 81 572 81 544 q 98 630 81 608 q 151 667 115 651 q 247 689 192 682 q 350 696 301 696 m 444 1044 q 553 1014 517 1044 q 589 944 589 983 q 575 891 589 913 q 528 842 561 869 l 396 733 q 303 763 333 733 q 272 825 272 792 q 278 857 272 842 q 304 893 285 872 l 444 1044 z "},"â":{"ha":756,"x_min":39,"x_max":683,"o":"m 361 150 q 413 155 385 150 q 456 168 442 160 l 456 279 l 356 271 q 292 254 317 268 q 267 213 267 240 q 288 167 267 185 q 361 150 310 150 m 350 696 q 487 681 425 696 q 592 634 549 665 q 660 555 636 603 q 683 442 683 507 l 683 131 q 663 72 683 94 q 615 32 643 49 q 361 -22 525 -22 q 228 -8 288 -22 q 127 33 169 6 q 62 104 85 61 q 39 204 39 147 q 96 351 39 300 q 272 415 153 403 l 454 435 l 454 444 q 419 502 454 485 q 317 519 383 519 q 215 508 265 519 q 124 481 164 497 q 93 519 106 493 q 81 572 81 544 q 98 630 81 608 q 151 667 115 651 q 247 689 192 682 q 350 696 301 696 m 375 869 q 342 833 357 849 q 315 803 328 818 q 290 774 303 789 q 263 742 278 760 q 176 766 208 742 q 144 831 144 790 q 160 878 144 858 q 206 929 175 899 l 253 976 q 309 1019 279 1003 q 379 1035 339 1035 q 446 1021 415 1035 q 517 958 476 1007 l 615 838 q 592 772 615 799 q 522 744 569 744 q 474 759 494 744 q 431 801 453 774 l 375 869 z "},"ã":{"ha":756,"x_min":39,"x_max":683,"o":"m 361 150 q 413 155 385 150 q 456 168 442 160 l 456 279 l 356 271 q 292 254 317 268 q 267 213 267 240 q 288 167 267 185 q 361 150 310 150 m 350 696 q 487 681 425 696 q 592 634 549 665 q 660 555 636 603 q 683 442 683 507 l 683 131 q 663 72 683 94 q 615 32 643 49 q 361 -22 525 -22 q 228 -8 288 -22 q 127 33 169 6 q 62 104 85 61 q 39 204 39 147 q 96 351 39 300 q 272 415 153 403 l 454 435 l 454 444 q 419 502 454 485 q 317 519 383 519 q 215 508 265 519 q 124 481 164 497 q 93 519 106 493 q 81 572 81 544 q 98 630 81 608 q 151 667 115 651 q 247 689 192 682 q 350 696 301 696 m 254 993 q 311 987 283 993 q 365 973 339 981 q 412 959 390 965 q 450 953 433 953 q 497 971 481 953 q 521 1001 514 989 l 526 1001 q 603 970 571 1001 q 635 890 635 939 q 596 799 635 828 q 499 769 557 769 q 437 776 465 769 q 385 790 408 782 q 340 803 361 797 q 303 810 319 810 q 256 792 272 810 q 232 761 240 775 l 226 761 q 150 792 182 761 q 118 872 118 822 q 130 926 118 903 q 161 964 142 949 q 205 986 181 979 q 254 993 229 993 z "},"ä":{"ha":756,"x_min":39,"x_max":683,"o":"m 361 150 q 413 155 385 150 q 456 168 442 160 l 456 279 l 356 271 q 292 254 317 268 q 267 213 267 240 q 288 167 267 185 q 361 150 310 150 m 350 696 q 487 681 425 696 q 592 634 549 665 q 660 555 636 603 q 683 442 683 507 l 683 131 q 663 72 683 94 q 615 32 643 49 q 361 -22 525 -22 q 228 -8 288 -22 q 127 33 169 6 q 62 104 85 61 q 39 204 39 147 q 96 351 39 300 q 272 415 153 403 l 454 435 l 454 444 q 419 502 454 485 q 317 519 383 519 q 215 508 265 519 q 124 481 164 497 q 93 519 106 493 q 81 572 81 544 q 98 630 81 608 q 151 667 115 651 q 247 689 192 682 q 350 696 301 696 m 350 875 q 317 794 350 826 q 232 761 285 761 q 147 794 179 761 q 115 875 115 826 q 147 957 115 924 q 232 990 179 990 q 317 957 285 990 q 350 875 350 924 m 649 875 q 617 794 649 826 q 532 761 585 761 q 447 794 479 761 q 414 875 414 826 q 447 957 414 924 q 532 990 479 990 q 617 957 585 990 q 649 875 649 924 z "},"å":{"ha":756,"x_min":39,"x_max":683,"o":"m 361 150 q 413 155 385 150 q 456 168 442 160 l 456 279 l 356 271 q 292 254 317 268 q 267 213 267 240 q 288 167 267 185 q 361 150 310 150 m 350 696 q 487 681 425 696 q 592 634 549 665 q 660 555 636 603 q 683 442 683 507 l 683 131 q 663 72 683 94 q 615 32 643 49 q 361 -22 525 -22 q 228 -8 288 -22 q 127 33 169 6 q 62 104 85 61 q 39 204 39 147 q 96 351 39 300 q 272 415 153 403 l 454 435 l 454 444 q 419 502 454 485 q 317 519 383 519 q 215 508 265 519 q 124 481 164 497 q 93 519 106 493 q 81 572 81 544 q 98 630 81 608 q 151 667 115 651 q 247 689 192 682 q 350 696 301 696 m 189 890 q 238 1001 189 956 q 372 1046 288 1046 q 513 1001 463 1046 q 563 890 563 956 q 513 781 563 825 q 372 736 463 736 q 238 781 288 736 q 189 890 189 825 m 329 890 q 342 856 329 868 q 374 843 356 843 q 408 856 394 843 q 421 890 421 868 q 408 925 421 913 q 374 938 394 938 q 342 925 356 938 q 329 890 329 913 z "},"æ":{"ha":1154,"x_min":39,"x_max":1113,"o":"m 350 696 q 572 622 499 696 q 671 678 617 660 q 783 696 725 696 q 917 674 857 696 q 1022 613 978 651 q 1089 519 1065 574 q 1113 401 1113 465 q 1086 329 1113 354 q 1013 297 1060 304 l 667 246 q 732 174 686 194 q 835 154 778 154 q 946 169 893 154 q 1031 203 999 183 q 1068 164 1053 189 q 1083 111 1083 139 q 1064 51 1083 76 q 1009 10 1044 26 q 925 -15 974 -7 q 818 -22 876 -22 q 597 42 685 -22 l 586 35 q 490 -7 542 8 q 357 -22 438 -22 q 125 33 211 -22 q 39 204 39 89 q 96 351 39 300 q 272 415 153 403 l 454 435 l 454 444 q 419 502 454 485 q 317 519 383 519 q 215 508 265 519 q 124 481 164 497 q 93 519 106 493 q 81 572 81 544 q 98 630 81 608 q 151 667 115 651 q 247 689 192 682 q 350 696 301 696 m 361 150 q 413 155 385 150 q 456 168 442 160 l 456 279 l 356 271 q 292 254 317 268 q 267 213 267 240 q 288 167 267 185 q 361 150 310 150 m 785 524 q 697 492 732 524 q 654 401 661 460 l 890 440 q 882 469 889 454 q 863 496 875 483 q 831 516 850 508 q 785 524 811 524 z "},"ç":{"ha":679,"x_min":43,"x_max":633,"o":"m 453 510 q 387 499 418 510 q 333 465 356 488 q 296 410 310 443 q 282 335 282 378 q 331 207 282 249 q 451 165 379 165 q 525 176 493 165 q 581 197 557 186 q 620 156 607 178 q 633 101 633 133 q 601 28 633 58 q 506 -14 568 -3 q 525 -63 519 -37 q 531 -117 531 -89 q 486 -234 531 -187 q 363 -281 442 -281 q 269 -252 304 -281 q 233 -171 233 -224 q 239 -129 233 -147 l 253 -129 q 315 -108 296 -129 q 333 -57 333 -87 q 322 -12 333 -37 q 117 99 192 11 q 43 335 43 186 q 73 494 43 426 q 154 607 103 563 q 273 674 206 651 q 415 696 340 696 q 569 660 515 696 q 624 567 624 624 q 611 517 624 540 q 582 478 599 494 q 525 499 558 489 q 453 510 492 510 z "},"è":{"ha":763,"x_min":43,"x_max":721,"o":"m 275 244 q 340 174 294 194 q 443 154 386 154 q 554 169 501 154 q 639 203 607 183 q 676 164 661 189 q 692 111 692 139 q 672 51 692 76 q 617 10 653 26 q 533 -15 582 -7 q 426 -22 485 -22 q 274 1 344 -22 q 153 69 204 24 q 72 185 101 115 q 43 347 43 254 q 73 505 43 439 q 152 613 103 571 q 264 676 201 656 q 392 696 326 696 q 526 674 465 696 q 630 613 586 651 q 697 519 674 574 q 721 401 721 465 q 694 329 721 354 q 621 297 668 304 l 275 244 m 393 524 q 305 492 340 524 q 263 401 269 460 l 499 440 q 490 469 497 454 q 471 496 483 483 q 439 516 458 508 q 393 524 419 524 m 160 897 q 158 913 158 903 q 157 929 157 924 q 186 1009 157 981 q 258 1038 215 1038 q 312 1026 286 1038 q 361 986 338 1015 l 485 832 q 449 760 478 783 q 386 736 419 736 q 337 744 357 736 q 296 772 317 753 l 160 897 z "},"é":{"ha":763,"x_min":43,"x_max":721,"o":"m 275 244 q 340 174 294 194 q 443 154 386 154 q 554 169 501 154 q 639 203 607 183 q 676 164 661 189 q 692 111 692 139 q 672 51 692 76 q 617 10 653 26 q 533 -15 582 -7 q 426 -22 485 -22 q 274 1 344 -22 q 153 69 204 24 q 72 185 101 115 q 43 347 43 254 q 73 505 43 439 q 152 613 103 571 q 264 676 201 656 q 392 696 326 696 q 526 674 465 696 q 630 613 586 651 q 697 519 674 574 q 721 401 721 465 q 694 329 721 354 q 621 297 668 304 l 275 244 m 393 524 q 305 492 340 524 q 263 401 269 460 l 499 440 q 490 469 497 454 q 471 496 483 483 q 439 516 458 508 q 393 524 419 524 m 460 1044 q 568 1014 532 1044 q 604 944 604 983 q 590 891 604 913 q 543 842 576 869 l 411 733 q 318 763 349 733 q 288 825 288 792 q 294 857 288 842 q 319 893 300 872 l 460 1044 z "},"ê":{"ha":763,"x_min":43,"x_max":721,"o":"m 275 244 q 340 174 294 194 q 443 154 386 154 q 554 169 501 154 q 639 203 607 183 q 676 164 661 189 q 692 111 692 139 q 672 51 692 76 q 617 10 653 26 q 533 -15 582 -7 q 426 -22 485 -22 q 274 1 344 -22 q 153 69 204 24 q 72 185 101 115 q 43 347 43 254 q 73 505 43 439 q 152 613 103 571 q 264 676 201 656 q 392 696 326 696 q 526 674 465 696 q 630 613 586 651 q 697 519 674 574 q 721 401 721 465 q 694 329 721 354 q 621 297 668 304 l 275 244 m 393 524 q 305 492 340 524 q 263 401 269 460 l 499 440 q 490 469 497 454 q 471 496 483 483 q 439 516 458 508 q 393 524 419 524 m 393 869 q 360 833 375 849 q 333 803 346 818 q 308 774 321 789 q 281 742 296 760 q 194 766 226 742 q 163 831 163 790 q 178 878 163 858 q 224 929 193 899 l 271 976 q 327 1019 297 1003 q 397 1035 357 1035 q 464 1021 433 1035 q 535 958 494 1007 l 633 838 q 610 772 633 799 q 540 744 588 744 q 492 759 513 744 q 449 801 471 774 l 393 869 z "},"ë":{"ha":763,"x_min":43,"x_max":721,"o":"m 275 244 q 340 174 294 194 q 443 154 386 154 q 554 169 501 154 q 639 203 607 183 q 676 164 661 189 q 692 111 692 139 q 672 51 692 76 q 617 10 653 26 q 533 -15 582 -7 q 426 -22 485 -22 q 274 1 344 -22 q 153 69 204 24 q 72 185 101 115 q 43 347 43 254 q 73 505 43 439 q 152 613 103 571 q 264 676 201 656 q 392 696 326 696 q 526 674 465 696 q 630 613 586 651 q 697 519 674 574 q 721 401 721 465 q 694 329 721 354 q 621 297 668 304 l 275 244 m 393 524 q 305 492 340 524 q 263 401 269 460 l 499 440 q 490 469 497 454 q 471 496 483 483 q 439 516 458 508 q 393 524 419 524 m 346 875 q 313 794 346 826 q 228 761 281 761 q 143 794 175 761 q 111 875 111 826 q 143 957 111 924 q 228 990 175 990 q 313 957 281 990 q 346 875 346 924 m 644 875 q 613 794 644 826 q 528 761 581 761 q 442 794 475 761 q 410 875 410 826 q 442 957 410 924 q 528 990 475 990 q 613 957 581 990 q 644 875 644 924 z "},"ì":{"ha":392,"x_min":-33,"x_max":314,"o":"m 208 -11 q 108 12 139 -11 q 78 100 78 35 l 78 665 q 122 674 93 669 q 183 678 150 678 q 283 655 253 678 q 314 567 314 632 l 314 1 q 270 -7 299 -3 q 208 -11 242 -11 m -31 897 q -33 913 -32 903 q -33 929 -33 924 q -4 1009 -33 981 q 68 1038 25 1038 q 122 1026 96 1038 q 171 986 147 1015 l 294 832 q 258 760 288 783 q 196 736 229 736 q 147 744 167 736 q 106 772 126 753 l -31 897 z "},"í":{"ha":392,"x_min":78,"x_max":414,"o":"m 208 -11 q 108 12 139 -11 q 78 100 78 35 l 78 665 q 122 674 93 669 q 183 678 150 678 q 283 655 253 678 q 314 567 314 632 l 314 1 q 270 -7 299 -3 q 208 -11 242 -11 m 269 1044 q 378 1014 342 1044 q 414 944 414 983 q 400 891 414 913 q 353 842 386 869 l 221 733 q 128 763 158 733 q 97 825 97 792 q 103 857 97 842 q 129 893 110 872 l 269 1044 z "},"î":{"ha":392,"x_min":-36,"x_max":435,"o":"m 208 -11 q 108 12 139 -11 q 78 100 78 35 l 78 665 q 122 674 93 669 q 183 678 150 678 q 283 655 253 678 q 314 567 314 632 l 314 1 q 270 -7 299 -3 q 208 -11 242 -11 m 194 869 q 162 833 176 849 q 135 803 147 818 q 110 774 122 789 q 82 742 97 760 q -4 766 28 742 q -36 831 -36 790 q -21 878 -36 858 q 25 929 -6 899 l 72 976 q 128 1019 99 1003 q 199 1035 158 1035 q 265 1021 235 1035 q 336 958 296 1007 l 435 838 q 412 772 435 799 q 342 744 389 744 q 293 759 314 744 q 250 801 272 774 l 194 869 z "},"ï":{"ha":392,"x_min":-72,"x_max":461,"o":"m 208 -11 q 108 12 139 -11 q 78 100 78 35 l 78 665 q 122 674 93 669 q 183 678 150 678 q 283 655 253 678 q 314 567 314 632 l 314 1 q 270 -7 299 -3 q 208 -11 242 -11 m 163 875 q 130 794 163 826 q 44 761 97 761 q -40 794 -8 761 q -72 875 -72 826 q -40 957 -72 924 q 44 990 -8 990 q 130 957 97 990 q 163 875 163 924 m 461 875 q 429 794 461 826 q 344 761 397 761 q 259 794 292 761 q 226 875 226 826 q 259 957 226 924 q 344 990 292 990 q 429 957 397 990 q 461 875 461 924 z "},"ð":{"ha":813,"x_min":43,"x_max":768,"o":"m 594 803 q 719 602 671 715 q 768 361 768 489 q 747 208 768 278 q 683 87 726 138 q 570 7 639 36 q 407 -22 501 -22 q 255 1 322 -22 q 140 69 188 25 q 68 174 93 113 q 43 314 43 236 q 71 454 43 394 q 144 554 99 514 q 249 615 190 594 q 368 635 307 635 q 426 630 399 635 q 476 617 453 625 q 441 672 460 646 q 394 721 422 697 l 183 642 q 148 683 164 657 q 132 736 132 708 q 178 800 132 781 l 239 826 q 191 844 215 836 q 139 863 167 853 q 176 958 143 928 q 254 988 208 988 q 358 969 306 988 q 463 918 411 951 l 621 982 q 657 942 640 968 q 674 888 674 915 q 660 840 674 856 q 624 815 646 825 l 594 803 m 525 317 q 522 370 525 344 q 513 419 518 396 q 414 458 471 458 q 318 418 351 458 q 285 314 285 378 q 315 203 285 243 q 408 164 346 164 q 497 205 468 164 q 525 317 525 246 z "},"ñ":{"ha":810,"x_min":72,"x_max":736,"o":"m 736 1 q 692 -7 721 -3 q 631 -11 664 -11 q 531 12 561 -11 q 500 100 500 35 l 500 428 q 474 491 500 471 q 407 511 449 511 q 355 504 379 511 q 308 486 331 497 l 308 1 q 265 -7 293 -3 q 203 -11 236 -11 q 103 12 133 -11 q 72 100 72 35 l 72 518 q 88 579 72 556 q 132 622 104 603 q 251 676 179 656 q 410 696 322 696 q 651 627 567 696 q 736 435 736 558 l 736 1 m 285 993 q 342 987 314 993 q 395 973 369 981 q 442 959 421 965 q 481 953 464 953 q 528 971 511 953 q 551 1001 544 989 l 557 1001 q 633 970 601 1001 q 665 890 665 939 q 626 799 665 828 q 529 769 588 769 q 467 776 496 769 q 415 790 439 782 q 371 803 392 797 q 333 810 350 810 q 287 792 303 810 q 263 761 271 775 l 257 761 q 181 792 214 761 q 149 872 149 822 q 160 926 149 903 q 192 964 172 949 q 235 986 211 979 q 285 993 260 993 z "},"ò":{"ha":814,"x_min":43,"x_max":771,"o":"m 771 338 q 745 188 771 254 q 672 74 719 121 q 557 3 624 28 q 407 -22 490 -22 q 257 2 324 -22 q 142 73 190 26 q 69 186 94 119 q 43 338 43 253 q 69 486 43 419 q 144 599 96 553 q 258 671 192 646 q 407 696 325 696 q 556 670 489 696 q 670 598 622 644 q 744 485 718 551 q 771 338 771 418 m 407 511 q 317 466 349 511 q 285 338 285 421 q 317 206 285 250 q 407 163 349 163 q 497 207 465 163 q 529 338 529 251 q 497 466 529 421 q 407 511 465 511 m 222 897 q 220 913 221 903 q 219 929 219 924 q 249 1009 219 981 q 321 1038 278 1038 q 374 1026 349 1038 q 424 986 400 1015 l 547 832 q 511 760 540 783 q 449 736 482 736 q 399 744 419 736 q 358 772 379 753 l 222 897 z "},"ó":{"ha":814,"x_min":43,"x_max":771,"o":"m 771 338 q 745 188 771 254 q 672 74 719 121 q 557 3 624 28 q 407 -22 490 -22 q 257 2 324 -22 q 142 73 190 26 q 69 186 94 119 q 43 338 43 253 q 69 486 43 419 q 144 599 96 553 q 258 671 192 646 q 407 696 325 696 q 556 670 489 696 q 670 598 622 644 q 744 485 718 551 q 771 338 771 418 m 407 511 q 317 466 349 511 q 285 338 285 421 q 317 206 285 250 q 407 163 349 163 q 497 207 465 163 q 529 338 529 251 q 497 466 529 421 q 407 511 465 511 m 439 1044 q 547 1014 511 1044 q 583 944 583 983 q 569 891 583 913 q 522 842 556 869 l 390 733 q 297 763 328 733 q 267 825 267 792 q 273 857 267 842 q 299 893 279 872 l 439 1044 z "},"ô":{"ha":814,"x_min":43,"x_max":771,"o":"m 771 338 q 745 188 771 254 q 672 74 719 121 q 557 3 624 28 q 407 -22 490 -22 q 257 2 324 -22 q 142 73 190 26 q 69 186 94 119 q 43 338 43 253 q 69 486 43 419 q 144 599 96 553 q 258 671 192 646 q 407 696 325 696 q 556 670 489 696 q 670 598 622 644 q 744 485 718 551 q 771 338 771 418 m 407 511 q 317 466 349 511 q 285 338 285 421 q 317 206 285 250 q 407 163 349 163 q 497 207 465 163 q 529 338 529 251 q 497 466 529 421 q 407 511 465 511 m 403 869 q 370 833 385 849 q 343 803 356 818 q 318 774 331 789 q 290 742 306 760 q 204 766 236 742 q 172 831 172 790 q 188 878 172 858 q 233 929 203 899 l 281 976 q 337 1019 307 1003 q 407 1035 367 1035 q 474 1021 443 1035 q 544 958 504 1007 l 643 838 q 620 772 643 799 q 550 744 597 744 q 501 759 522 744 q 458 801 481 774 l 403 869 z "},"õ":{"ha":814,"x_min":43,"x_max":771,"o":"m 771 338 q 745 188 771 254 q 672 74 719 121 q 557 3 624 28 q 407 -22 490 -22 q 257 2 324 -22 q 142 73 190 26 q 69 186 94 119 q 43 338 43 253 q 69 486 43 419 q 144 599 96 553 q 258 671 192 646 q 407 696 325 696 q 556 670 489 696 q 670 598 622 644 q 744 485 718 551 q 771 338 771 418 m 407 511 q 317 466 349 511 q 285 338 285 421 q 317 206 285 250 q 407 163 349 163 q 497 207 465 163 q 529 338 529 251 q 497 466 529 421 q 407 511 465 511 m 288 993 q 344 987 317 993 q 398 973 372 981 q 445 959 424 965 q 483 953 467 953 q 531 971 514 953 q 554 1001 547 989 l 560 1001 q 636 970 604 1001 q 668 890 668 939 q 629 799 668 828 q 532 769 590 769 q 470 776 499 769 q 418 790 442 782 q 374 803 394 797 q 336 810 353 810 q 290 792 306 810 q 265 761 274 775 l 260 761 q 184 792 217 761 q 151 872 151 822 q 163 926 151 903 q 194 964 175 949 q 238 986 214 979 q 288 993 263 993 z "},"ö":{"ha":814,"x_min":43,"x_max":771,"o":"m 771 338 q 745 188 771 254 q 672 74 719 121 q 557 3 624 28 q 407 -22 490 -22 q 257 2 324 -22 q 142 73 190 26 q 69 186 94 119 q 43 338 43 253 q 69 486 43 419 q 144 599 96 553 q 258 671 192 646 q 407 696 325 696 q 556 670 489 696 q 670 598 622 644 q 744 485 718 551 q 771 338 771 418 m 407 511 q 317 466 349 511 q 285 338 285 421 q 317 206 285 250 q 407 163 349 163 q 497 207 465 163 q 529 338 529 251 q 497 466 529 421 q 407 511 465 511 m 374 875 q 341 794 374 826 q 256 761 308 761 q 171 794 203 761 q 139 875 139 826 q 171 957 139 924 q 256 990 203 990 q 341 957 308 990 q 374 875 374 924 m 672 875 q 640 794 672 826 q 556 761 608 761 q 470 794 503 761 q 438 875 438 826 q 470 957 438 924 q 556 990 503 990 q 640 957 608 990 q 672 875 672 924 z "},"÷":{"ha":729,"x_min":42,"x_max":688,"o":"m 65 308 q 49 347 56 324 q 42 397 42 369 q 65 472 42 449 q 126 494 89 494 l 664 494 q 680 454 672 479 q 688 401 688 429 q 664 329 688 350 q 603 308 640 308 l 65 308 m 258 167 q 288 246 258 214 q 368 278 318 278 q 447 246 418 278 q 476 167 476 214 q 447 88 476 119 q 368 57 418 57 q 288 88 318 57 q 258 167 258 119 m 258 636 q 288 715 258 683 q 368 747 318 747 q 447 715 418 747 q 476 636 476 683 q 447 558 476 589 q 368 526 418 526 q 288 558 318 526 q 258 636 258 589 z "},"ø":{"ha":814,"x_min":43,"x_max":771,"o":"m 771 338 q 745 188 771 254 q 672 74 719 121 q 557 3 624 28 q 407 -22 490 -22 q 256 3 322 -22 l 196 -85 q 166 -79 182 -85 q 136 -64 150 -74 q 113 -42 122 -54 q 104 -18 104 -31 q 115 13 104 -3 l 151 64 q 71 180 99 111 q 43 338 43 249 q 69 486 43 419 q 144 599 96 553 q 258 671 192 646 q 407 696 325 696 q 560 668 489 696 l 621 760 q 649 755 633 760 q 679 741 665 750 q 703 719 693 732 q 713 693 713 707 q 703 664 713 679 l 663 606 q 742 490 714 558 q 771 338 771 422 m 546 338 q 532 421 546 382 l 363 167 q 407 160 386 160 q 506 203 465 160 q 546 338 546 246 m 407 514 q 308 470 349 514 q 268 338 268 426 q 281 254 268 289 l 451 506 q 407 514 431 514 z "},"ù":{"ha":808,"x_min":72,"x_max":736,"o":"m 72 672 q 116 681 88 676 q 178 685 144 685 q 278 662 247 685 q 308 574 308 639 l 308 268 q 336 187 308 211 q 417 163 364 163 q 469 168 449 163 q 500 179 489 174 l 500 672 q 544 681 515 676 q 606 685 572 685 q 706 662 675 685 q 736 574 736 639 l 736 144 q 678 40 736 75 q 562 -6 629 10 q 415 -22 494 -22 q 277 -6 340 -22 q 168 46 214 11 q 97 135 122 81 q 72 268 72 190 l 72 672 m 163 897 q 160 913 161 903 q 160 929 160 924 q 189 1009 160 981 q 261 1038 218 1038 q 315 1026 289 1038 q 364 986 340 1015 l 488 832 q 451 760 481 783 q 389 736 422 736 q 340 744 360 736 q 299 772 319 753 l 163 897 z "},"ú":{"ha":808,"x_min":72,"x_max":736,"o":"m 72 672 q 116 681 88 676 q 178 685 144 685 q 278 662 247 685 q 308 574 308 639 l 308 268 q 336 187 308 211 q 417 163 364 163 q 469 168 449 163 q 500 179 489 174 l 500 672 q 544 681 515 676 q 606 685 572 685 q 706 662 675 685 q 736 574 736 639 l 736 144 q 678 40 736 75 q 562 -6 629 10 q 415 -22 494 -22 q 277 -6 340 -22 q 168 46 214 11 q 97 135 122 81 q 72 268 72 190 l 72 672 m 493 1044 q 601 1014 565 1044 q 638 944 638 983 q 624 891 638 913 q 576 842 610 869 l 444 733 q 351 763 382 733 q 321 825 321 792 q 327 857 321 842 q 353 893 333 872 l 493 1044 z "},"û":{"ha":808,"x_min":72,"x_max":736,"o":"m 72 672 q 116 681 88 676 q 178 685 144 685 q 278 662 247 685 q 308 574 308 639 l 308 268 q 336 187 308 211 q 417 163 364 163 q 469 168 449 163 q 500 179 489 174 l 500 672 q 544 681 515 676 q 606 685 572 685 q 706 662 675 685 q 736 574 736 639 l 736 144 q 678 40 736 75 q 562 -6 629 10 q 415 -22 494 -22 q 277 -6 340 -22 q 168 46 214 11 q 97 135 122 81 q 72 268 72 190 l 72 672 m 400 869 q 367 833 382 849 q 340 803 353 818 q 315 774 328 789 q 288 742 303 760 q 201 766 233 742 q 169 831 169 790 q 185 878 169 858 q 231 929 200 899 l 278 976 q 334 1019 304 1003 q 404 1035 364 1035 q 471 1021 440 1035 q 542 958 501 1007 l 640 838 q 617 772 640 799 q 547 744 594 744 q 499 759 519 744 q 456 801 478 774 l 400 869 z "},"ü":{"ha":808,"x_min":72,"x_max":736,"o":"m 72 672 q 116 681 88 676 q 178 685 144 685 q 278 662 247 685 q 308 574 308 639 l 308 268 q 336 187 308 211 q 417 163 364 163 q 469 168 449 163 q 500 179 489 174 l 500 672 q 544 681 515 676 q 606 685 572 685 q 706 662 675 685 q 736 574 736 639 l 736 144 q 678 40 736 75 q 562 -6 629 10 q 415 -22 494 -22 q 277 -6 340 -22 q 168 46 214 11 q 97 135 122 81 q 72 268 72 190 l 72 672 m 368 875 q 335 794 368 826 q 250 761 303 761 q 165 794 197 761 q 133 875 133 826 q 165 957 133 924 q 250 990 197 990 q 335 957 303 990 q 368 875 368 924 m 667 875 q 635 794 667 826 q 550 761 603 761 q 465 794 497 761 q 432 875 432 826 q 465 957 432 924 q 550 990 497 990 q 635 957 603 990 q 667 875 667 924 z "},"ý":{"ha":765,"x_min":28,"x_max":732,"o":"m 178 172 q 145 250 163 207 q 109 349 128 293 q 70 476 90 404 q 28 640 50 547 q 80 674 47 660 q 151 689 113 689 q 232 669 200 689 q 279 593 264 649 q 334 401 307 496 q 389 211 361 306 l 394 211 q 427 314 411 258 q 458 428 443 369 q 487 547 474 488 q 510 663 500 606 q 558 682 533 675 q 611 689 583 689 q 696 668 660 689 q 732 596 732 647 q 715 463 732 540 q 669 303 697 386 q 607 142 642 221 q 538 3 572 63 q 392 -198 458 -133 q 258 -262 326 -262 q 165 -228 203 -262 q 121 -137 128 -193 q 210 -53 165 -100 q 288 43 254 -6 q 237 76 264 50 q 178 172 210 101 m 425 1044 q 533 1014 497 1044 q 569 944 569 983 q 556 891 569 913 q 508 842 542 869 l 376 733 q 283 763 314 733 q 253 825 253 792 q 259 857 253 842 q 285 893 265 872 l 425 1044 z "},"þ":{"ha":815,"x_min":75,"x_max":772,"o":"m 424 -21 q 363 -16 390 -21 q 311 -3 335 -11 l 311 -232 q 267 -240 296 -236 q 206 -244 239 -244 q 106 -222 136 -244 q 75 -133 75 -199 l 75 906 q 119 914 90 910 q 181 918 147 918 q 281 895 250 918 q 311 807 311 872 l 311 676 q 367 690 336 683 q 433 696 397 696 q 565 675 503 696 q 672 611 626 654 q 745 501 718 568 q 772 342 772 435 q 746 185 772 253 q 672 72 719 118 q 562 3 625 26 q 424 -21 499 -21 m 388 165 q 494 210 457 165 q 531 342 531 254 q 494 471 531 431 q 396 511 458 511 q 356 507 378 511 q 311 492 335 503 l 311 183 q 388 165 347 165 z "},"ÿ":{"ha":765,"x_min":28,"x_max":732,"o":"m 178 172 q 145 250 163 207 q 109 349 128 293 q 70 476 90 404 q 28 640 50 547 q 80 674 47 660 q 151 689 113 689 q 232 669 200 689 q 279 593 264 649 q 334 401 307 496 q 389 211 361 306 l 394 211 q 427 314 411 258 q 458 428 443 369 q 487 547 474 488 q 510 663 500 606 q 558 682 533 675 q 611 689 583 689 q 696 668 660 689 q 732 596 732 647 q 715 463 732 540 q 669 303 697 386 q 607 142 642 221 q 538 3 572 63 q 392 -198 458 -133 q 258 -262 326 -262 q 165 -228 203 -262 q 121 -137 128 -193 q 210 -53 165 -100 q 288 43 254 -6 q 237 76 264 50 q 178 172 210 101 m 344 875 q 312 794 344 826 q 226 761 279 761 q 142 794 174 761 q 110 875 110 826 q 142 957 110 924 q 226 990 174 990 q 312 957 279 990 q 344 875 344 924 m 643 875 q 611 794 643 826 q 526 761 579 761 q 441 794 474 761 q 408 875 408 826 q 441 957 408 924 q 526 990 474 990 q 611 957 579 990 q 643 875 643 924 z "},"Ā":{"ha":871,"x_min":32,"x_max":847,"o":"m 221 963 q 206 1001 214 978 q 199 1049 199 1024 q 219 1120 199 1100 q 275 1140 240 1140 l 643 1140 q 660 1102 654 1125 q 665 1054 665 1079 q 645 983 665 1003 q 590 963 625 963 l 221 963 m 560 175 l 308 175 q 284 82 294 125 q 264 1 274 39 q 223 -10 244 -6 q 171 -15 201 -15 q 66 9 100 -15 q 32 76 32 33 q 38 115 32 96 q 50 161 43 135 q 77 255 60 199 q 115 376 94 311 q 160 508 136 440 q 204 635 183 575 q 242 744 225 696 q 269 817 260 792 q 341 843 293 831 q 438 856 389 856 q 560 835 507 856 q 629 771 614 815 q 683 604 654 700 q 742 406 713 508 q 799 205 771 304 q 847 29 826 106 q 797 -2 831 10 q 718 -14 764 -14 q 624 8 650 -14 q 585 79 597 31 l 560 175 m 436 638 q 393 511 417 581 q 347 363 369 442 l 519 363 q 480 512 500 442 q 444 638 460 582 l 436 638 z "},"ā":{"ha":756,"x_min":39,"x_max":683,"o":"m 361 150 q 413 155 385 150 q 456 168 442 160 l 456 279 l 356 271 q 292 254 317 268 q 267 213 267 240 q 288 167 267 185 q 361 150 310 150 m 350 696 q 487 681 425 696 q 592 634 549 665 q 660 555 636 603 q 683 442 683 507 l 683 131 q 663 72 683 94 q 615 32 643 49 q 361 -22 525 -22 q 228 -8 288 -22 q 127 33 169 6 q 62 104 85 61 q 39 204 39 147 q 96 351 39 300 q 272 415 153 403 l 454 435 l 454 444 q 419 502 454 485 q 317 519 383 519 q 215 508 265 519 q 124 481 164 497 q 93 519 106 493 q 81 572 81 544 q 98 630 81 608 q 151 667 115 651 q 247 689 192 682 q 350 696 301 696 m 179 783 q 165 822 172 799 q 157 869 157 844 q 178 941 157 921 q 233 961 199 961 l 601 961 q 618 923 613 946 q 624 875 624 900 q 603 803 624 824 q 549 783 583 783 l 179 783 z "},"Ă":{"ha":871,"x_min":32,"x_max":847,"o":"m 560 175 l 308 175 q 284 82 294 125 q 264 1 274 39 q 223 -10 244 -6 q 171 -15 201 -15 q 66 9 100 -15 q 32 76 32 33 q 38 115 32 96 q 50 161 43 135 q 77 255 60 199 q 115 376 94 311 q 160 508 136 440 q 204 635 183 575 q 242 744 225 696 q 269 817 260 792 q 341 843 293 831 q 438 856 389 856 q 560 835 507 856 q 629 771 614 815 q 683 604 654 700 q 742 406 713 508 q 799 205 771 304 q 847 29 826 106 q 797 -2 831 10 q 718 -14 764 -14 q 624 8 650 -14 q 585 79 597 31 l 560 175 m 436 638 q 393 511 417 581 q 347 363 369 442 l 519 363 q 480 512 500 442 q 444 638 460 582 l 436 638 m 440 1092 q 510 1113 483 1092 q 546 1164 538 1133 q 558 1165 553 1165 q 571 1165 564 1165 q 655 1133 628 1165 q 682 1065 682 1101 q 619 960 682 1003 q 440 918 557 918 q 261 960 324 918 q 199 1065 199 1003 q 226 1133 199 1101 q 310 1165 253 1165 q 322 1165 317 1165 q 335 1164 328 1165 q 369 1113 342 1133 q 440 1092 397 1092 z "},"ă":{"ha":756,"x_min":39,"x_max":683,"o":"m 361 150 q 413 155 385 150 q 456 168 442 160 l 456 279 l 356 271 q 292 254 317 268 q 267 213 267 240 q 288 167 267 185 q 361 150 310 150 m 350 696 q 487 681 425 696 q 592 634 549 665 q 660 555 636 603 q 683 442 683 507 l 683 131 q 663 72 683 94 q 615 32 643 49 q 361 -22 525 -22 q 228 -8 288 -22 q 127 33 169 6 q 62 104 85 61 q 39 204 39 147 q 96 351 39 300 q 272 415 153 403 l 454 435 l 454 444 q 419 502 454 485 q 317 519 383 519 q 215 508 265 519 q 124 481 164 497 q 93 519 106 493 q 81 572 81 544 q 98 630 81 608 q 151 667 115 651 q 247 689 192 682 q 350 696 301 696 m 376 942 q 447 963 419 942 q 482 1014 474 983 q 494 1015 489 1015 q 507 1015 500 1015 q 591 983 564 1015 q 618 915 618 951 q 556 810 618 853 q 376 768 493 768 q 197 810 260 768 q 135 915 135 853 q 162 983 135 951 q 246 1015 189 1015 q 258 1015 253 1015 q 271 1014 264 1015 q 306 963 278 983 q 376 942 333 942 z "},"Ą":{"ha":871,"x_min":32,"x_max":863,"o":"m 560 175 l 308 175 q 284 82 294 125 q 264 1 274 39 q 223 -10 244 -6 q 171 -15 201 -15 q 66 9 100 -15 q 32 76 32 33 q 38 115 32 96 q 50 161 43 135 q 77 255 60 199 q 115 376 94 311 q 160 508 136 440 q 204 635 183 575 q 242 744 225 696 q 269 817 260 792 q 341 843 293 831 q 438 856 389 856 q 560 835 507 856 q 629 771 614 815 q 683 604 654 700 q 742 406 713 508 q 799 205 771 304 q 847 29 826 106 q 794 -3 831 8 q 777 -26 783 -14 q 771 -58 771 -39 q 790 -103 771 -86 q 846 -119 810 -119 l 853 -119 q 860 -146 857 -132 q 863 -178 863 -160 q 856 -216 863 -197 q 834 -249 850 -235 q 793 -272 818 -264 q 731 -281 768 -281 q 605 -242 654 -281 q 556 -133 556 -204 q 578 -47 556 -85 q 626 7 601 -8 q 601 36 610 18 q 585 79 592 54 l 560 175 m 436 638 q 393 511 417 581 q 347 363 369 442 l 519 363 q 480 512 500 442 q 444 638 460 582 l 436 638 z "},"ą":{"ha":756,"x_min":39,"x_max":683,"o":"m 350 696 q 487 681 425 696 q 592 634 549 665 q 660 555 636 603 q 683 442 683 507 l 683 131 q 665 74 683 96 q 624 36 647 53 q 585 -5 600 17 q 571 -58 571 -26 q 590 -103 571 -86 q 646 -119 610 -119 l 653 -119 q 660 -146 657 -132 q 663 -178 663 -160 q 656 -216 663 -197 q 634 -249 650 -235 q 593 -272 618 -264 q 531 -281 568 -281 q 405 -242 454 -281 q 356 -133 356 -204 q 371 -68 356 -96 q 406 -21 386 -40 q 383 -22 394 -22 q 361 -22 372 -22 q 228 -8 288 -22 q 127 33 169 6 q 62 104 85 61 q 39 204 39 147 q 96 351 39 300 q 272 415 153 403 l 454 435 l 454 444 q 419 502 454 485 q 317 519 383 519 q 215 508 265 519 q 124 481 164 497 q 93 519 106 493 q 81 572 81 544 q 98 630 81 608 q 151 667 115 651 q 247 689 192 682 q 350 696 301 696 m 361 150 q 413 155 385 150 q 456 168 442 160 l 456 279 l 356 271 q 292 254 317 268 q 267 213 267 240 q 288 167 267 185 q 361 150 310 150 z "},"Ć":{"ha":793,"x_min":49,"x_max":754,"o":"m 751 719 q 733 657 751 683 q 692 615 715 631 q 615 656 656 639 q 519 672 574 672 q 356 606 413 672 q 299 421 299 540 q 360 234 299 297 q 532 171 422 171 q 628 186 589 171 q 704 221 668 201 q 741 174 728 201 q 754 111 754 147 q 738 53 754 79 q 681 8 721 26 q 610 -14 656 -3 q 499 -25 564 -25 q 322 1 404 -25 q 179 82 240 28 q 83 220 118 136 q 49 421 49 304 q 83 613 49 529 q 176 753 117 696 q 314 839 235 810 q 483 868 393 868 q 681 826 611 868 q 751 719 751 785 m 543 1175 q 634 1147 601 1175 q 667 1076 667 1118 q 653 1026 667 1049 q 601 981 640 1004 l 463 900 q 378 925 407 900 q 350 983 350 950 q 355 1015 350 1000 q 382 1050 360 1031 l 543 1175 z "},"ć":{"ha":679,"x_min":43,"x_max":633,"o":"m 453 510 q 387 499 418 510 q 333 465 356 488 q 296 410 310 443 q 282 335 282 378 q 331 207 282 249 q 451 165 379 165 q 525 176 493 165 q 581 197 557 186 q 620 156 607 178 q 633 101 633 133 q 578 13 633 46 q 422 -21 524 -21 q 265 2 335 -21 q 145 70 194 25 q 69 181 96 115 q 43 335 43 247 q 73 494 43 426 q 154 607 103 563 q 273 674 206 651 q 415 696 340 696 q 569 660 515 696 q 624 567 624 624 q 611 517 624 540 q 582 478 599 494 q 525 499 558 489 q 453 510 492 510 m 453 1044 q 561 1014 525 1044 q 597 944 597 983 q 583 891 597 913 q 536 842 569 869 l 404 733 q 311 763 342 733 q 281 825 281 792 q 287 857 281 842 q 313 893 293 872 l 453 1044 z "},"Ĉ":{"ha":793,"x_min":49,"x_max":754,"o":"m 751 719 q 733 657 751 683 q 692 615 715 631 q 615 656 656 639 q 519 672 574 672 q 356 606 413 672 q 299 421 299 540 q 360 234 299 297 q 532 171 422 171 q 628 186 589 171 q 704 221 668 201 q 741 174 728 201 q 754 111 754 147 q 738 53 754 79 q 681 8 721 26 q 610 -14 656 -3 q 499 -25 564 -25 q 322 1 404 -25 q 179 82 240 28 q 83 220 118 136 q 49 421 49 304 q 83 613 49 529 q 176 753 117 696 q 314 839 235 810 q 483 868 393 868 q 681 826 611 868 q 751 719 751 785 m 465 1019 q 399 957 432 988 q 335 901 365 926 q 263 926 292 901 q 233 989 233 951 q 247 1039 233 1018 q 299 1089 261 1060 l 339 1119 q 410 1163 379 1150 q 468 1176 440 1176 q 533 1163 504 1176 q 594 1118 563 1150 l 707 1006 q 681 931 707 956 q 611 906 656 906 q 560 924 583 906 q 503 978 536 942 l 465 1019 z "},"ĉ":{"ha":679,"x_min":43,"x_max":633,"o":"m 453 510 q 387 499 418 510 q 333 465 356 488 q 296 410 310 443 q 282 335 282 378 q 331 207 282 249 q 451 165 379 165 q 525 176 493 165 q 581 197 557 186 q 620 156 607 178 q 633 101 633 133 q 578 13 633 46 q 422 -21 524 -21 q 265 2 335 -21 q 145 70 194 25 q 69 181 96 115 q 43 335 43 247 q 73 494 43 426 q 154 607 103 563 q 273 674 206 651 q 415 696 340 696 q 569 660 515 696 q 624 567 624 624 q 611 517 624 540 q 582 478 599 494 q 525 499 558 489 q 453 510 492 510 m 381 869 q 348 833 363 849 q 321 803 333 818 q 296 774 308 789 q 268 742 283 760 q 182 766 214 742 q 150 831 150 790 q 165 878 150 858 q 211 929 181 899 l 258 976 q 315 1019 285 1003 q 385 1035 344 1035 q 451 1021 421 1035 q 522 958 482 1007 l 621 838 q 598 772 621 799 q 528 744 575 744 q 479 759 500 744 q 436 801 458 774 l 381 869 z "},"Ċ":{"ha":793,"x_min":49,"x_max":754,"o":"m 751 719 q 733 657 751 683 q 692 615 715 631 q 615 656 656 639 q 519 672 574 672 q 356 606 413 672 q 299 421 299 540 q 360 234 299 297 q 532 171 422 171 q 628 186 589 171 q 704 221 668 201 q 741 174 728 201 q 754 111 754 147 q 738 53 754 79 q 681 8 721 26 q 610 -14 656 -3 q 499 -25 564 -25 q 322 1 404 -25 q 179 82 240 28 q 83 220 118 136 q 49 421 49 304 q 83 613 49 529 q 176 753 117 696 q 314 839 235 810 q 483 868 393 868 q 681 826 611 868 q 751 719 751 785 m 596 1056 q 562 969 596 1004 q 471 935 528 935 q 380 969 414 935 q 346 1056 346 1004 q 380 1142 346 1107 q 471 1176 414 1176 q 562 1142 528 1176 q 596 1056 596 1107 z "},"ċ":{"ha":679,"x_min":43,"x_max":633,"o":"m 453 510 q 387 499 418 510 q 333 465 356 488 q 296 410 310 443 q 282 335 282 378 q 331 207 282 249 q 451 165 379 165 q 525 176 493 165 q 581 197 557 186 q 620 156 607 178 q 633 101 633 133 q 578 13 633 46 q 422 -21 524 -21 q 265 2 335 -21 q 145 70 194 25 q 69 181 96 115 q 43 335 43 247 q 73 494 43 426 q 154 607 103 563 q 273 674 206 651 q 415 696 340 696 q 569 660 515 696 q 624 567 624 624 q 611 517 624 540 q 582 478 599 494 q 525 499 558 489 q 453 510 492 510 m 511 878 q 477 792 511 826 q 386 757 443 757 q 295 792 329 757 q 261 878 261 826 q 295 964 261 929 q 386 999 329 999 q 477 964 443 999 q 511 878 511 929 z "},"Č":{"ha":793,"x_min":49,"x_max":754,"o":"m 751 719 q 733 657 751 683 q 692 615 715 631 q 615 656 656 639 q 519 672 574 672 q 356 606 413 672 q 299 421 299 540 q 360 234 299 297 q 532 171 422 171 q 628 186 589 171 q 704 221 668 201 q 741 174 728 201 q 754 111 754 147 q 738 53 754 79 q 681 8 721 26 q 610 -14 656 -3 q 499 -25 564 -25 q 322 1 404 -25 q 179 82 240 28 q 83 220 118 136 q 49 421 49 304 q 83 613 49 529 q 176 753 117 696 q 314 839 235 810 q 483 868 393 868 q 681 826 611 868 q 751 719 751 785 m 472 1058 q 540 1121 507 1090 q 604 1176 574 1151 q 678 1151 649 1176 q 707 1088 707 1126 q 693 1037 707 1058 q 640 986 679 1015 l 601 957 q 533 915 561 926 q 472 903 506 903 q 400 919 431 903 q 342 960 369 935 l 226 1064 q 251 1144 226 1115 q 319 1172 275 1172 q 372 1158 347 1172 q 435 1100 396 1143 l 472 1058 z "},"č":{"ha":679,"x_min":43,"x_max":633,"o":"m 453 510 q 387 499 418 510 q 333 465 356 488 q 296 410 310 443 q 282 335 282 378 q 331 207 282 249 q 451 165 379 165 q 525 176 493 165 q 581 197 557 186 q 620 156 607 178 q 633 101 633 133 q 578 13 633 46 q 422 -21 524 -21 q 265 2 335 -21 q 145 70 194 25 q 69 181 96 115 q 43 335 43 247 q 73 494 43 426 q 154 607 103 563 q 273 674 206 651 q 415 696 340 696 q 569 660 515 696 q 624 567 624 624 q 611 517 624 540 q 582 478 599 494 q 525 499 558 489 q 453 510 492 510 m 379 911 l 504 1028 q 590 1002 558 1028 q 622 936 622 976 q 606 885 622 906 q 556 838 590 865 l 493 786 q 438 753 465 763 q 383 743 411 743 q 349 746 364 743 q 317 756 333 749 q 282 776 301 763 q 236 814 263 790 l 133 903 q 131 915 132 910 q 131 928 131 921 q 152 994 131 964 q 219 1025 174 1025 q 245 1023 233 1025 q 269 1013 257 1021 q 297 993 282 1006 q 332 960 313 981 l 379 911 z "},"Ď":{"ha":925,"x_min":90,"x_max":876,"o":"m 626 418 q 568 606 626 543 q 413 669 510 669 q 373 668 393 669 q 332 664 353 667 l 332 181 q 369 176 347 178 q 411 174 392 174 q 567 235 507 174 q 626 418 626 296 m 876 422 q 843 228 876 311 q 748 89 810 144 q 600 6 686 33 q 410 -22 514 -22 q 356 -21 386 -22 q 292 -15 325 -19 q 227 -5 260 -11 q 167 13 194 1 q 90 114 90 42 l 90 763 q 106 808 90 792 q 150 833 122 824 q 276 859 210 853 q 396 865 343 865 q 592 839 504 865 q 744 758 681 813 q 842 619 807 703 q 876 422 876 536 m 471 1058 q 539 1121 506 1090 q 603 1176 572 1151 q 676 1151 647 1176 q 706 1088 706 1126 q 692 1037 706 1058 q 639 986 678 1015 l 600 957 q 532 915 560 926 q 471 903 504 903 q 399 919 429 903 q 340 960 368 935 l 225 1064 q 249 1144 225 1115 q 318 1172 274 1172 q 370 1158 346 1172 q 433 1100 394 1143 l 471 1058 z "},"ď":{"ha":1072,"x_min":43,"x_max":1072,"o":"m 400 696 q 503 681 460 696 l 503 906 q 547 914 518 910 q 608 918 575 918 q 708 895 678 918 q 739 807 739 872 l 739 149 q 678 44 739 83 q 574 -2 638 18 q 428 -22 511 -22 q 144 67 246 -22 q 43 335 43 157 q 71 494 43 426 q 147 607 99 563 q 260 674 194 651 q 400 696 325 696 m 504 496 q 471 507 489 503 q 433 511 453 511 q 322 467 361 511 q 282 335 282 424 q 319 206 282 247 q 426 164 357 164 q 472 169 451 164 q 504 182 493 175 l 504 496 m 993 685 q 942 649 969 660 q 883 639 915 639 q 794 671 831 639 q 838 784 824 729 q 860 893 853 839 q 912 913 882 904 q 972 922 942 922 q 1044 906 1017 922 q 1072 850 1072 889 q 1065 810 1072 833 q 1046 765 1057 788 q 1021 720 1035 742 q 993 685 1007 699 z "},"Đ":{"ha":972,"x_min":21,"x_max":924,"o":"m 924 422 q 890 228 924 311 q 795 89 857 144 q 647 6 733 33 q 457 -22 561 -22 q 403 -21 433 -22 q 340 -15 372 -19 q 274 -5 307 -11 q 214 13 242 1 q 138 114 138 42 l 138 331 l 46 331 q 28 369 36 346 q 21 422 21 393 q 43 497 21 474 q 104 519 65 519 l 138 519 l 138 763 q 153 808 138 792 q 197 833 169 824 q 324 859 257 853 q 443 865 390 865 q 640 839 551 865 q 791 758 728 813 q 889 619 854 703 q 924 422 924 536 m 674 418 q 615 606 674 543 q 460 669 557 669 q 420 668 440 669 q 379 664 400 667 l 379 519 l 501 519 q 519 481 511 504 q 526 428 526 457 q 504 353 526 376 q 443 331 482 331 l 379 331 l 379 181 q 417 176 394 178 q 458 174 439 174 q 614 235 554 174 q 674 418 674 296 z "},"đ":{"ha":822,"x_min":43,"x_max":825,"o":"m 739 149 q 678 44 739 83 q 574 -2 638 18 q 428 -22 511 -22 q 144 67 246 -22 q 43 335 43 157 q 71 494 43 426 q 147 607 99 563 q 260 674 194 651 q 400 696 325 696 q 503 681 460 696 l 503 736 l 404 736 q 392 764 397 747 q 386 800 386 781 q 401 850 386 835 q 444 865 417 865 l 503 865 l 503 947 q 547 956 518 951 q 608 960 575 960 q 703 940 672 960 q 738 865 735 919 l 807 865 q 819 839 813 856 q 825 803 825 822 q 810 752 825 768 q 767 736 794 736 l 739 736 l 739 149 m 504 496 q 471 507 489 503 q 433 511 453 511 q 322 467 361 511 q 282 335 282 424 q 319 206 282 247 q 426 164 357 164 q 472 169 451 164 q 504 182 493 175 l 504 496 z "},"Ē":{"ha":761,"x_min":90,"x_max":708,"o":"m 219 -4 q 125 31 160 -4 q 90 125 90 65 l 90 713 q 125 807 90 772 q 219 842 160 842 l 678 842 q 695 803 688 826 q 703 750 703 779 q 681 675 703 699 q 619 651 658 651 l 326 651 l 326 522 l 639 522 q 656 483 649 507 q 664 431 664 460 q 642 356 664 379 q 581 333 619 333 l 326 333 l 326 188 l 683 188 q 701 147 693 172 q 708 93 708 122 q 686 19 708 42 q 625 -4 664 -4 l 219 -4 m 207 963 q 192 1001 200 978 q 185 1049 185 1024 q 206 1120 185 1100 q 261 1140 226 1140 l 629 1140 q 646 1102 640 1125 q 651 1054 651 1079 q 631 983 651 1003 q 576 963 611 963 l 207 963 z "},"ē":{"ha":763,"x_min":43,"x_max":721,"o":"m 275 244 q 340 174 294 194 q 443 154 386 154 q 554 169 501 154 q 639 203 607 183 q 676 164 661 189 q 692 111 692 139 q 672 51 692 76 q 617 10 653 26 q 533 -15 582 -7 q 426 -22 485 -22 q 274 1 344 -22 q 153 69 204 24 q 72 185 101 115 q 43 347 43 254 q 73 505 43 439 q 152 613 103 571 q 264 676 201 656 q 392 696 326 696 q 526 674 465 696 q 630 613 586 651 q 697 519 674 574 q 721 401 721 465 q 694 329 721 354 q 621 297 668 304 l 275 244 m 393 524 q 305 492 340 524 q 263 401 269 460 l 499 440 q 490 469 497 454 q 471 496 483 483 q 439 516 458 508 q 393 524 419 524 m 182 783 q 167 822 175 799 q 160 869 160 844 q 181 941 160 921 q 236 961 201 961 l 604 961 q 621 923 615 946 q 626 875 626 900 q 606 803 626 824 q 551 783 586 783 l 182 783 z "},"Ĕ":{"ha":761,"x_min":90,"x_max":708,"o":"m 219 -4 q 125 31 160 -4 q 90 125 90 65 l 90 713 q 125 807 90 772 q 219 842 160 842 l 678 842 q 695 803 688 826 q 703 750 703 779 q 681 675 703 699 q 619 651 658 651 l 326 651 l 326 522 l 639 522 q 656 483 649 507 q 664 431 664 460 q 642 356 664 379 q 581 333 619 333 l 326 333 l 326 188 l 683 188 q 701 147 693 172 q 708 93 708 122 q 686 19 708 42 q 625 -4 664 -4 l 219 -4 m 413 1106 q 483 1126 456 1106 q 518 1178 510 1147 q 531 1179 525 1179 q 543 1179 536 1179 q 627 1147 600 1179 q 654 1079 654 1115 q 592 974 654 1017 q 413 932 529 932 q 233 974 296 932 q 171 1079 171 1017 q 198 1147 171 1115 q 282 1179 225 1179 q 294 1179 289 1179 q 307 1178 300 1179 q 342 1126 314 1147 q 413 1106 369 1106 z "},"ĕ":{"ha":763,"x_min":43,"x_max":721,"o":"m 275 244 q 340 174 294 194 q 443 154 386 154 q 554 169 501 154 q 639 203 607 183 q 676 164 661 189 q 692 111 692 139 q 672 51 692 76 q 617 10 653 26 q 533 -15 582 -7 q 426 -22 485 -22 q 274 1 344 -22 q 153 69 204 24 q 72 185 101 115 q 43 347 43 254 q 73 505 43 439 q 152 613 103 571 q 264 676 201 656 q 392 696 326 696 q 526 674 465 696 q 630 613 586 651 q 697 519 674 574 q 721 401 721 465 q 694 329 721 354 q 621 297 668 304 l 275 244 m 393 524 q 305 492 340 524 q 263 401 269 460 l 499 440 q 490 469 497 454 q 471 496 483 483 q 439 516 458 508 q 393 524 419 524 m 403 942 q 473 963 446 942 q 508 1014 500 983 q 521 1015 515 1015 q 533 1015 526 1015 q 617 983 590 1015 q 644 915 644 951 q 582 810 644 853 q 403 768 519 768 q 224 810 286 768 q 161 915 161 853 q 188 983 161 951 q 272 1015 215 1015 q 285 1015 279 1015 q 297 1014 290 1015 q 332 963 304 983 q 403 942 360 942 z "},"Ė":{"ha":761,"x_min":90,"x_max":708,"o":"m 219 -4 q 125 31 160 -4 q 90 125 90 65 l 90 713 q 125 807 90 772 q 219 842 160 842 l 678 842 q 695 803 688 826 q 703 750 703 779 q 681 675 703 699 q 619 651 658 651 l 326 651 l 326 522 l 639 522 q 656 483 649 507 q 664 431 664 460 q 642 356 664 379 q 581 333 619 333 l 326 333 l 326 188 l 683 188 q 701 147 693 172 q 708 93 708 122 q 686 19 708 42 q 625 -4 664 -4 l 219 -4 m 538 1056 q 503 969 538 1004 q 413 935 469 935 q 322 969 356 935 q 288 1056 288 1004 q 322 1142 288 1107 q 413 1176 356 1176 q 503 1142 469 1176 q 538 1056 538 1107 z "},"ė":{"ha":763,"x_min":43,"x_max":721,"o":"m 275 244 q 340 174 294 194 q 443 154 386 154 q 554 169 501 154 q 639 203 607 183 q 676 164 661 189 q 692 111 692 139 q 672 51 692 76 q 617 10 653 26 q 533 -15 582 -7 q 426 -22 485 -22 q 274 1 344 -22 q 153 69 204 24 q 72 185 101 115 q 43 347 43 254 q 73 505 43 439 q 152 613 103 571 q 264 676 201 656 q 392 696 326 696 q 526 674 465 696 q 630 613 586 651 q 697 519 674 574 q 721 401 721 465 q 694 329 721 354 q 621 297 668 304 l 275 244 m 393 524 q 305 492 340 524 q 263 401 269 460 l 499 440 q 490 469 497 454 q 471 496 483 483 q 439 516 458 508 q 393 524 419 524 m 522 878 q 488 792 522 826 q 397 757 454 757 q 306 792 340 757 q 272 878 272 826 q 306 964 272 929 q 397 999 340 999 q 488 964 454 999 q 522 878 522 929 z "},"Ę":{"ha":761,"x_min":90,"x_max":708,"o":"m 219 -4 q 125 31 160 -4 q 90 125 90 65 l 90 713 q 125 807 90 772 q 219 842 160 842 l 678 842 q 695 803 688 826 q 703 750 703 779 q 681 675 703 699 q 619 651 658 651 l 326 651 l 326 522 l 639 522 q 656 483 649 507 q 664 431 664 460 q 642 356 664 379 q 581 333 619 333 l 326 333 l 326 188 l 683 188 q 701 147 693 172 q 708 93 708 122 q 688 22 708 44 q 633 -4 668 -1 q 611 -58 611 -26 q 631 -103 611 -86 q 686 -119 650 -119 l 693 -119 q 700 -146 697 -132 q 703 -178 703 -160 q 697 -216 703 -197 q 674 -249 690 -235 q 633 -272 658 -264 q 571 -281 608 -281 q 445 -242 494 -281 q 396 -133 396 -204 q 415 -56 396 -89 q 457 -4 433 -22 l 219 -4 l 219 -4 z "},"ę":{"ha":763,"x_min":43,"x_max":721,"o":"m 275 244 q 340 174 294 194 q 443 154 386 154 q 554 169 501 154 q 639 203 607 183 q 676 164 661 189 q 692 111 692 139 q 660 39 692 67 q 576 -4 629 11 q 554 -58 554 -26 q 574 -103 554 -86 q 629 -119 593 -119 l 636 -119 q 643 -146 640 -132 q 646 -178 646 -160 q 640 -216 646 -197 q 617 -249 633 -235 q 576 -272 601 -264 q 514 -281 551 -281 q 388 -242 438 -281 q 339 -133 339 -204 q 351 -69 339 -97 q 382 -21 364 -40 q 247 11 308 -15 q 140 83 185 38 q 69 195 94 129 q 43 347 43 261 q 73 505 43 439 q 152 613 103 571 q 264 676 201 656 q 392 696 326 696 q 526 674 465 696 q 630 613 586 651 q 697 519 674 574 q 721 401 721 465 q 694 329 721 354 q 621 297 668 304 l 275 244 m 393 524 q 305 492 340 524 q 263 401 269 460 l 499 440 q 490 469 497 454 q 471 496 483 483 q 439 516 458 508 q 393 524 419 524 z "},"Ě":{"ha":761,"x_min":90,"x_max":708,"o":"m 219 -4 q 125 31 160 -4 q 90 125 90 65 l 90 713 q 125 807 90 772 q 219 842 160 842 l 678 842 q 695 803 688 826 q 703 750 703 779 q 681 675 703 699 q 619 651 658 651 l 326 651 l 326 522 l 639 522 q 656 483 649 507 q 664 431 664 460 q 642 356 664 379 q 581 333 619 333 l 326 333 l 326 188 l 683 188 q 701 147 693 172 q 708 93 708 122 q 686 19 708 42 q 625 -4 664 -4 l 219 -4 m 411 1058 q 479 1121 446 1090 q 543 1176 513 1151 q 617 1151 588 1176 q 646 1088 646 1126 q 632 1037 646 1058 q 579 986 618 1015 l 540 957 q 472 915 500 926 q 411 903 444 903 q 339 919 369 903 q 281 960 308 935 l 165 1064 q 190 1144 165 1115 q 258 1172 214 1172 q 310 1158 286 1172 q 374 1100 335 1143 l 411 1058 z "},"ě":{"ha":763,"x_min":43,"x_max":721,"o":"m 275 244 q 340 174 294 194 q 443 154 386 154 q 554 169 501 154 q 639 203 607 183 q 676 164 661 189 q 692 111 692 139 q 672 51 692 76 q 617 10 653 26 q 533 -15 582 -7 q 426 -22 485 -22 q 274 1 344 -22 q 153 69 204 24 q 72 185 101 115 q 43 347 43 254 q 73 505 43 439 q 152 613 103 571 q 264 676 201 656 q 392 696 326 696 q 526 674 465 696 q 630 613 586 651 q 697 519 674 574 q 721 401 721 465 q 694 329 721 354 q 621 297 668 304 l 275 244 m 393 524 q 305 492 340 524 q 263 401 269 460 l 499 440 q 490 469 497 454 q 471 496 483 483 q 439 516 458 508 q 393 524 419 524 m 403 911 l 528 1028 q 614 1002 582 1028 q 646 936 646 976 q 630 885 646 906 q 579 838 614 865 l 517 786 q 462 753 489 763 q 407 743 435 743 q 372 746 388 743 q 341 756 357 749 q 306 776 325 763 q 260 814 286 790 l 157 903 q 155 915 156 910 q 154 928 154 921 q 176 994 154 964 q 243 1025 197 1025 q 269 1023 257 1025 q 293 1013 281 1021 q 321 993 306 1006 q 356 960 336 981 l 403 911 z "},"Ĝ":{"ha":922,"x_min":49,"x_max":853,"o":"m 853 135 q 838 71 853 92 q 789 31 822 50 q 740 9 769 19 q 676 -9 711 -1 q 603 -21 642 -17 q 528 -25 565 -25 q 340 1 428 -25 q 188 81 253 26 q 86 219 124 135 q 49 419 49 303 q 86 613 49 529 q 189 753 124 696 q 342 839 254 810 q 531 868 429 868 q 740 826 663 868 q 817 717 817 785 q 799 654 817 681 q 757 613 781 628 q 669 653 722 633 q 549 672 617 672 q 447 654 493 672 q 368 603 401 636 q 317 524 335 571 q 299 421 299 478 q 316 311 299 358 q 365 233 333 264 q 438 185 396 201 q 532 169 481 169 q 585 175 563 169 q 621 188 608 181 l 621 321 l 472 321 q 456 361 464 336 q 449 414 449 386 q 472 486 449 464 q 531 508 494 508 l 765 508 q 830 485 807 508 q 853 421 853 463 l 853 135 m 493 1019 q 426 957 460 988 q 363 901 393 926 q 290 926 319 901 q 261 989 261 951 q 275 1039 261 1018 q 326 1089 289 1060 l 367 1119 q 438 1163 407 1150 q 496 1176 468 1176 q 561 1163 532 1176 q 622 1118 590 1150 l 735 1006 q 709 931 735 956 q 639 906 683 906 q 588 924 611 906 q 531 978 564 942 l 493 1019 z "},"ĝ":{"ha":788,"x_min":44,"x_max":714,"o":"m 492 51 q 430 34 464 40 q 354 28 396 28 q 235 45 292 28 q 137 102 179 63 q 69 204 94 142 q 44 357 44 267 q 70 503 44 440 q 142 610 96 567 q 256 674 189 653 q 404 696 322 696 q 481 690 443 696 q 551 675 518 685 q 610 654 583 665 q 654 631 636 643 q 698 587 682 611 q 714 525 714 563 l 714 10 q 687 -117 714 -64 q 612 -206 660 -171 q 499 -258 564 -242 q 361 -275 435 -275 q 229 -263 286 -275 q 139 -229 172 -251 q 89 -135 89 -196 q 102 -76 89 -103 q 132 -37 115 -50 q 223 -75 172 -60 q 329 -90 274 -90 q 447 -65 403 -90 q 492 15 492 -40 l 492 51 m 399 204 q 448 210 426 204 q 488 228 469 217 l 488 494 q 456 506 472 501 q 414 511 440 511 q 317 474 354 511 q 279 356 279 438 q 313 236 279 268 q 399 204 347 204 m 403 869 q 370 833 385 849 q 343 803 356 818 q 318 774 331 789 q 290 742 306 760 q 204 766 236 742 q 172 831 172 790 q 188 878 172 858 q 233 929 203 899 l 281 976 q 337 1019 307 1003 q 407 1035 367 1035 q 474 1021 443 1035 q 544 958 504 1007 l 643 838 q 620 772 643 799 q 550 744 597 744 q 501 759 522 744 q 458 801 481 774 l 403 869 z "},"Ğ":{"ha":922,"x_min":49,"x_max":853,"o":"m 853 135 q 838 71 853 92 q 789 31 822 50 q 740 9 769 19 q 676 -9 711 -1 q 603 -21 642 -17 q 528 -25 565 -25 q 340 1 428 -25 q 188 81 253 26 q 86 219 124 135 q 49 419 49 303 q 86 613 49 529 q 189 753 124 696 q 342 839 254 810 q 531 868 429 868 q 740 826 663 868 q 817 717 817 785 q 799 654 817 681 q 757 613 781 628 q 669 653 722 633 q 549 672 617 672 q 447 654 493 672 q 368 603 401 636 q 317 524 335 571 q 299 421 299 478 q 316 311 299 358 q 365 233 333 264 q 438 185 396 201 q 532 169 481 169 q 585 175 563 169 q 621 188 608 181 l 621 321 l 472 321 q 456 361 464 336 q 449 414 449 386 q 472 486 449 464 q 531 508 494 508 l 765 508 q 830 485 807 508 q 853 421 853 463 l 853 135 m 485 1106 q 555 1126 528 1106 q 590 1178 582 1147 q 603 1179 597 1179 q 615 1179 608 1179 q 699 1147 672 1179 q 726 1079 726 1115 q 664 974 726 1017 q 485 932 601 932 q 306 974 368 932 q 243 1079 243 1017 q 270 1147 243 1115 q 354 1179 297 1179 q 367 1179 361 1179 q 379 1178 372 1179 q 414 1126 386 1147 q 485 1106 442 1106 z "},"ğ":{"ha":788,"x_min":44,"x_max":714,"o":"m 492 51 q 430 34 464 40 q 354 28 396 28 q 235 45 292 28 q 137 102 179 63 q 69 204 94 142 q 44 357 44 267 q 70 503 44 440 q 142 610 96 567 q 256 674 189 653 q 404 696 322 696 q 481 690 443 696 q 551 675 518 685 q 610 654 583 665 q 654 631 636 643 q 698 587 682 611 q 714 525 714 563 l 714 10 q 687 -117 714 -64 q 612 -206 660 -171 q 499 -258 564 -242 q 361 -275 435 -275 q 229 -263 286 -275 q 139 -229 172 -251 q 89 -135 89 -196 q 102 -76 89 -103 q 132 -37 115 -50 q 223 -75 172 -60 q 329 -90 274 -90 q 447 -65 403 -90 q 492 15 492 -40 l 492 51 m 399 204 q 448 210 426 204 q 488 228 469 217 l 488 494 q 456 506 472 501 q 414 511 440 511 q 317 474 354 511 q 279 356 279 438 q 313 236 279 268 q 399 204 347 204 m 393 942 q 463 963 436 942 q 499 1014 490 983 q 511 1015 506 1015 q 524 1015 517 1015 q 608 983 581 1015 q 635 915 635 951 q 572 810 635 853 q 393 768 510 768 q 214 810 276 768 q 151 915 151 853 q 178 983 151 951 q 263 1015 206 1015 q 275 1015 269 1015 q 288 1014 281 1015 q 322 963 294 983 q 393 942 350 942 z "},"Ġ":{"ha":922,"x_min":49,"x_max":853,"o":"m 853 135 q 838 71 853 92 q 789 31 822 50 q 740 9 769 19 q 676 -9 711 -1 q 603 -21 642 -17 q 528 -25 565 -25 q 340 1 428 -25 q 188 81 253 26 q 86 219 124 135 q 49 419 49 303 q 86 613 49 529 q 189 753 124 696 q 342 839 254 810 q 531 868 429 868 q 740 826 663 868 q 817 717 817 785 q 799 654 817 681 q 757 613 781 628 q 669 653 722 633 q 549 672 617 672 q 447 654 493 672 q 368 603 401 636 q 317 524 335 571 q 299 421 299 478 q 316 311 299 358 q 365 233 333 264 q 438 185 396 201 q 532 169 481 169 q 585 175 563 169 q 621 188 608 181 l 621 321 l 472 321 q 456 361 464 336 q 449 414 449 386 q 472 486 449 464 q 531 508 494 508 l 765 508 q 830 485 807 508 q 853 421 853 463 l 853 135 m 640 1056 q 606 969 640 1004 q 515 935 572 935 q 424 969 458 935 q 390 1056 390 1004 q 424 1142 390 1107 q 515 1176 458 1176 q 606 1142 572 1176 q 640 1056 640 1107 z "},"ġ":{"ha":788,"x_min":44,"x_max":714,"o":"m 492 51 q 430 34 464 40 q 354 28 396 28 q 235 45 292 28 q 137 102 179 63 q 69 204 94 142 q 44 357 44 267 q 70 503 44 440 q 142 610 96 567 q 256 674 189 653 q 404 696 322 696 q 481 690 443 696 q 551 675 518 685 q 610 654 583 665 q 654 631 636 643 q 698 587 682 611 q 714 525 714 563 l 714 10 q 687 -117 714 -64 q 612 -206 660 -171 q 499 -258 564 -242 q 361 -275 435 -275 q 229 -263 286 -275 q 139 -229 172 -251 q 89 -135 89 -196 q 102 -76 89 -103 q 132 -37 115 -50 q 223 -75 172 -60 q 329 -90 274 -90 q 447 -65 403 -90 q 492 15 492 -40 l 492 51 m 399 204 q 448 210 426 204 q 488 228 469 217 l 488 494 q 456 506 472 501 q 414 511 440 511 q 317 474 354 511 q 279 356 279 438 q 313 236 279 268 q 399 204 347 204 m 522 878 q 488 792 522 826 q 397 757 454 757 q 306 792 340 757 q 272 878 272 826 q 306 964 272 929 q 397 999 340 999 q 488 964 454 999 q 522 878 522 929 z "},"Ģ":{"ha":922,"x_min":49,"x_max":853,"o":"m 853 135 q 838 71 853 92 q 789 31 822 50 q 740 9 769 19 q 676 -9 711 -1 q 603 -21 642 -17 q 528 -25 565 -25 q 340 1 428 -25 q 188 81 253 26 q 86 219 124 135 q 49 419 49 303 q 86 613 49 529 q 189 753 124 696 q 342 839 254 810 q 531 868 429 868 q 740 826 663 868 q 817 717 817 785 q 799 654 817 681 q 757 613 781 628 q 669 653 722 633 q 549 672 617 672 q 447 654 493 672 q 368 603 401 636 q 317 524 335 571 q 299 421 299 478 q 316 311 299 358 q 365 233 333 264 q 438 185 396 201 q 532 169 481 169 q 585 175 563 169 q 621 188 608 181 l 621 321 l 472 321 q 456 361 464 336 q 449 414 449 386 q 472 486 449 464 q 531 508 494 508 l 765 508 q 830 485 807 508 q 853 421 853 463 l 853 135 m 533 -310 q 483 -345 510 -335 q 424 -356 456 -356 q 335 -324 371 -356 q 378 -210 364 -265 q 400 -101 393 -156 q 452 -81 422 -90 q 513 -72 482 -72 q 585 -89 557 -72 q 613 -144 613 -106 q 605 -184 613 -161 q 586 -230 597 -207 q 561 -274 575 -253 q 533 -310 547 -296 z "},"ģ":{"ha":788,"x_min":44,"x_max":714,"o":"m 375 996 q 422 1028 399 1019 q 474 1036 446 1036 q 527 1027 501 1036 q 572 1004 553 1018 q 528 891 543 946 q 506 782 513 836 q 456 760 483 769 q 399 751 429 751 q 322 767 350 751 q 294 817 294 783 q 301 861 294 836 q 319 911 308 886 q 345 958 331 936 q 375 996 360 981 m 492 51 q 430 34 464 40 q 354 28 396 28 q 235 45 292 28 q 137 102 179 63 q 69 204 94 142 q 44 357 44 267 q 70 503 44 440 q 142 610 96 567 q 256 674 189 653 q 404 696 322 696 q 481 690 443 696 q 551 675 518 685 q 610 654 583 665 q 654 631 636 643 q 698 587 682 611 q 714 525 714 563 l 714 10 q 687 -117 714 -64 q 612 -206 660 -171 q 499 -258 564 -242 q 361 -275 435 -275 q 229 -263 286 -275 q 139 -229 172 -251 q 89 -135 89 -196 q 102 -76 89 -103 q 132 -37 115 -50 q 223 -75 172 -60 q 329 -90 274 -90 q 447 -65 403 -90 q 492 15 492 -40 l 492 51 m 399 204 q 448 210 426 204 q 488 228 469 217 l 488 494 q 456 506 472 501 q 414 511 440 511 q 317 474 354 511 q 279 356 279 438 q 313 236 279 268 q 399 204 347 204 z "},"Ĥ":{"ha":933,"x_min":113,"x_max":865,"o":"m 356 1 q 308 -7 340 -3 q 243 -11 276 -11 q 141 14 169 -11 q 113 104 113 39 l 113 844 q 161 852 129 847 q 225 857 193 857 q 325 833 294 857 q 356 742 356 810 l 356 517 l 622 517 l 622 844 q 671 852 639 847 q 735 857 703 857 q 835 832 804 857 q 865 739 865 807 l 865 1 q 818 -7 850 -3 q 753 -11 786 -11 q 651 14 679 -11 q 622 104 622 39 l 622 325 l 356 325 l 356 1 m 471 1019 q 404 957 438 988 q 340 901 371 926 q 268 926 297 901 q 239 989 239 951 q 253 1039 239 1018 q 304 1089 267 1060 l 344 1119 q 415 1163 385 1150 q 474 1176 446 1176 q 539 1163 510 1176 q 600 1118 568 1150 l 713 1006 q 687 931 713 956 q 617 906 661 906 q 565 924 589 906 q 508 978 542 942 l 471 1019 z "},"ĥ":{"ha":813,"x_min":-26,"x_max":769,"o":"m 769 1 q 726 -7 754 -3 q 664 -11 697 -11 q 564 12 594 -11 q 533 100 533 35 l 533 408 q 505 488 533 465 q 435 511 476 511 q 384 504 407 511 q 342 486 361 497 l 342 1 q 298 -7 326 -3 q 236 -11 269 -11 q 136 12 167 -11 q 106 100 106 35 l 106 906 q 149 914 121 910 q 211 918 178 918 q 311 895 281 918 q 342 807 342 872 l 342 669 q 404 688 369 681 q 479 696 439 696 q 693 627 617 696 q 769 422 769 558 l 769 1 m 206 1033 q 139 971 172 1001 q 75 915 106 940 q 3 940 32 915 q -26 1003 -26 965 q -12 1053 -26 1032 q 39 1103 1 1074 l 79 1133 q 150 1177 119 1164 q 208 1190 181 1190 q 274 1177 244 1190 q 335 1132 303 1164 l 447 1019 q 422 944 447 969 q 351 919 396 919 q 300 938 324 919 q 243 992 276 956 l 206 1033 z "},"Ħ":{"ha":974,"x_min":28,"x_max":946,"o":"m 354 1 q 307 -7 339 -3 q 242 -11 275 -11 q 140 14 168 -11 q 111 104 111 39 l 111 600 l 46 600 q 33 628 39 611 q 28 664 28 644 q 43 714 28 699 q 86 729 58 729 l 111 729 l 111 844 q 160 852 128 847 q 224 857 192 857 q 324 833 293 857 q 354 742 354 810 l 354 729 l 621 729 l 621 844 q 669 852 638 847 q 733 857 701 857 q 833 832 803 857 q 864 739 864 807 l 864 729 l 928 729 q 940 703 933 719 q 946 667 946 686 q 931 616 946 632 q 888 600 915 600 l 864 600 l 864 1 q 817 -7 849 -3 q 751 -11 785 -11 q 649 14 678 -11 q 621 104 621 39 l 621 325 l 354 325 l 354 1 m 621 517 l 621 600 l 354 600 l 354 517 l 621 517 z "},"ħ":{"ha":821,"x_min":0,"x_max":739,"o":"m 311 1 q 267 -7 296 -3 q 206 -11 239 -11 q 106 12 136 -11 q 75 100 75 35 l 75 736 l 18 736 q 6 763 13 746 q 0 799 0 779 q 15 849 0 833 q 58 865 31 865 l 75 865 l 75 947 q 119 956 90 951 q 181 960 147 960 q 276 940 244 960 q 310 865 307 919 l 421 865 q 433 838 428 854 q 439 801 439 821 q 424 751 439 767 q 381 736 408 736 l 311 736 l 311 669 q 374 688 339 681 q 449 696 408 696 q 663 627 586 696 q 739 422 739 558 l 739 1 q 695 -7 724 -3 q 633 -11 667 -11 q 533 12 564 -11 q 503 100 503 35 l 503 408 q 474 488 503 465 q 404 511 446 511 q 353 504 376 511 q 311 486 331 497 l 311 1 l 311 1 z "},"Ĩ":{"ha":424,"x_min":-61,"x_max":456,"o":"m 221 -11 q 119 14 147 -11 q 90 104 90 39 l 90 844 q 139 852 107 847 q 203 857 171 857 q 303 833 272 857 q 333 742 333 810 l 333 1 q 286 -7 318 -3 q 221 -11 254 -11 m 75 1171 q 132 1165 104 1171 q 185 1151 160 1158 q 233 1137 211 1143 q 271 1131 254 1131 q 318 1149 301 1131 q 342 1179 335 1167 l 347 1179 q 424 1148 392 1179 q 456 1068 456 1117 q 417 976 456 1006 q 319 947 378 947 q 258 953 286 947 q 206 967 229 960 q 161 981 182 975 q 124 988 140 988 q 77 970 93 988 q 53 939 61 953 l 47 939 q -28 969 4 939 q -61 1050 -61 1000 q -49 1103 -61 1081 q -18 1142 -37 1126 q 26 1164 1 1157 q 75 1171 50 1171 z "},"ĩ":{"ha":392,"x_min":-72,"x_max":444,"o":"m 208 -11 q 108 12 139 -11 q 78 100 78 35 l 78 665 q 122 674 93 669 q 183 678 150 678 q 283 655 253 678 q 314 567 314 632 l 314 1 q 270 -7 299 -3 q 208 -11 242 -11 m 64 993 q 121 987 93 993 q 174 973 149 981 q 222 959 200 965 q 260 953 243 953 q 307 971 290 953 q 331 1001 324 989 l 336 1001 q 413 970 381 1001 q 444 890 444 939 q 406 799 444 828 q 308 769 367 769 q 247 776 275 769 q 194 790 218 782 q 150 803 171 797 q 113 810 129 810 q 66 792 82 810 q 42 761 50 775 l 36 761 q -40 792 -7 761 q -72 872 -72 822 q -60 926 -72 903 q -29 964 -49 949 q 15 986 -10 979 q 64 993 39 993 z "},"Ī":{"ha":424,"x_min":-25,"x_max":442,"o":"m 221 -11 q 119 14 147 -11 q 90 104 90 39 l 90 844 q 139 852 107 847 q 203 857 171 857 q 303 833 272 857 q 333 742 333 810 l 333 1 q 286 -7 318 -3 q 221 -11 254 -11 m -3 963 q -17 1001 -10 978 q -25 1049 -25 1024 q -4 1120 -25 1100 q 51 1140 17 1140 l 419 1140 q 436 1102 431 1125 q 442 1054 442 1079 q 422 983 442 1003 q 367 963 401 963 l -3 963 z "},"ī":{"ha":392,"x_min":-37,"x_max":429,"o":"m 208 -11 q 108 12 139 -11 q 78 100 78 35 l 78 665 q 122 674 93 669 q 183 678 150 678 q 283 655 253 678 q 314 567 314 632 l 314 1 q 270 -7 299 -3 q 208 -11 242 -11 m -15 783 q -30 822 -22 799 q -37 869 -37 844 q -17 941 -37 921 q 39 961 4 961 l 407 961 q 424 923 418 946 q 429 875 429 900 q 409 803 429 824 q 354 783 389 783 l -15 783 z "},"Į":{"ha":424,"x_min":88,"x_max":394,"o":"m 88 -125 q 103 -51 88 -82 q 147 -1 119 -21 q 103 35 115 10 q 90 104 90 60 l 90 844 q 139 852 107 847 q 203 857 171 857 q 303 833 272 857 q 333 742 333 810 l 333 1 q 303 -64 303 -29 q 320 -107 303 -92 q 363 -122 338 -122 l 385 -122 q 394 -179 394 -151 q 358 -260 394 -232 q 265 -289 322 -289 q 137 -242 186 -289 q 88 -125 88 -196 z "},"į":{"ha":392,"x_min":67,"x_max":375,"o":"m 78 665 q 122 674 93 669 q 183 678 150 678 q 283 655 253 678 q 314 567 314 632 l 314 1 q 292 -22 300 -8 q 283 -58 283 -36 q 303 -103 283 -86 q 358 -119 322 -119 l 365 -119 q 372 -146 369 -132 q 375 -178 375 -160 q 369 -216 375 -197 q 347 -249 363 -235 q 306 -272 331 -264 q 243 -281 281 -281 q 117 -242 167 -281 q 68 -133 68 -204 q 88 -53 68 -87 q 132 -1 108 -18 q 78 100 78 18 l 78 665 m 67 863 q 102 951 67 915 q 196 988 138 988 q 290 951 254 988 q 325 863 325 915 q 290 774 325 810 q 196 738 254 738 q 102 774 138 738 q 67 863 67 810 z "},"İ":{"ha":424,"x_min":79,"x_max":333,"o":"m 221 -11 q 119 14 147 -11 q 90 104 90 39 l 90 844 q 139 852 107 847 q 203 857 171 857 q 303 833 272 857 q 333 742 333 810 l 333 1 q 286 -7 318 -3 q 221 -11 254 -11 m 329 1056 q 295 969 329 1004 q 204 935 261 935 q 113 969 147 935 q 79 1056 79 1004 q 113 1142 79 1107 q 204 1176 147 1176 q 295 1142 261 1176 q 329 1056 329 1107 z "},"ı":{"ha":392,"x_min":78,"x_max":314,"o":"m 208 -11 q 108 12 139 -11 q 78 100 78 35 l 78 672 q 122 681 93 676 q 183 685 150 685 q 283 662 253 685 q 314 574 314 639 l 314 1 q 270 -7 299 -3 q 208 -11 242 -11 z "},"Ĵ":{"ha":572,"x_min":29,"x_max":601,"o":"m 486 250 q 415 53 486 126 q 207 -21 344 -21 q 138 -15 169 -21 q 81 6 106 -8 q 43 44 57 21 q 29 103 29 68 q 37 151 29 131 q 56 185 44 172 q 101 177 82 179 q 142 175 119 175 q 219 202 196 175 q 243 282 243 229 l 243 844 q 292 852 260 847 q 356 857 324 857 q 456 833 425 857 q 486 742 486 810 l 486 250 m 360 1019 q 293 957 326 988 q 229 901 260 926 q 157 926 186 901 q 128 989 128 951 q 142 1039 128 1018 q 193 1089 156 1060 l 233 1119 q 304 1163 274 1150 q 363 1176 335 1176 q 428 1163 399 1176 q 489 1118 457 1150 l 601 1006 q 576 931 601 956 q 506 906 550 906 q 454 924 478 906 q 397 978 431 942 l 360 1019 z "},"ĵ":{"ha":399,"x_min":-46,"x_max":425,"o":"m 321 13 q 286 -147 321 -83 q 219 -220 261 -194 q 122 -246 178 -246 q 26 -209 61 -246 q -10 -117 -8 -172 l 26 -94 q 72 -41 58 -75 q 85 35 85 -7 l 85 665 q 128 674 100 669 q 190 678 157 678 q 290 655 260 678 q 321 567 321 632 l 321 13 m 185 869 q 152 833 167 849 q 125 803 138 818 q 100 774 113 789 q 72 742 88 760 q -14 766 18 742 q -46 831 -46 790 q -31 878 -46 858 q 15 929 -15 899 l 63 976 q 119 1019 89 1003 q 189 1035 149 1035 q 256 1021 225 1035 q 326 958 286 1007 l 425 838 q 402 772 425 799 q 332 744 379 744 q 283 759 304 744 q 240 801 263 774 l 185 869 z "},"Ķ":{"ha":854,"x_min":90,"x_max":831,"o":"m 333 315 l 333 1 q 286 -7 318 -3 q 221 -11 254 -11 q 119 14 147 -11 q 90 104 90 39 l 90 844 q 139 852 107 847 q 203 857 171 857 q 303 833 272 857 q 333 742 333 810 l 333 517 l 622 850 q 758 815 717 850 q 799 731 799 779 q 781 663 799 694 q 722 590 763 631 l 549 417 q 713 239 639 317 q 831 113 786 161 q 819 58 831 82 q 790 18 808 35 q 747 -7 771 1 q 697 -15 724 -15 q 604 13 640 -15 q 535 81 568 42 l 333 315 m 476 -310 q 426 -345 453 -335 q 367 -356 399 -356 q 278 -324 314 -356 q 322 -210 307 -265 q 343 -101 336 -156 q 395 -81 365 -90 q 456 -72 425 -72 q 528 -89 500 -72 q 556 -144 556 -106 q 548 -184 556 -161 q 529 -230 540 -207 q 504 -274 518 -253 q 476 -310 490 -296 z "},"ķ":{"ha":771,"x_min":75,"x_max":732,"o":"m 311 1 q 267 -7 296 -3 q 206 -11 239 -11 q 106 12 136 -11 q 75 100 75 35 l 75 906 q 119 914 90 910 q 181 918 147 918 q 281 895 250 918 q 311 807 311 872 l 311 440 l 550 685 q 666 653 622 685 q 710 572 710 621 q 703 534 710 551 q 681 499 696 517 q 644 460 667 481 q 590 414 621 440 l 508 343 l 732 122 q 694 22 725 57 q 603 -12 663 -12 q 524 9 558 -12 q 449 82 489 31 l 311 253 l 311 1 m 447 -310 q 397 -345 424 -335 q 338 -356 369 -356 q 249 -324 285 -356 q 292 -210 278 -265 q 314 -101 307 -156 q 366 -81 336 -90 q 426 -72 396 -72 q 499 -89 471 -72 q 526 -144 526 -106 q 519 -184 526 -161 q 500 -230 511 -207 q 475 -274 489 -253 q 447 -310 461 -296 z "},"ĸ":{"ha":771,"x_min":75,"x_max":732,"o":"m 311 439 l 553 685 q 669 653 625 685 q 713 572 713 621 q 706 534 713 551 q 684 499 699 517 q 647 460 669 481 q 593 414 624 440 l 510 343 l 732 122 q 694 22 725 57 q 603 -12 663 -12 q 524 9 558 -12 q 449 82 489 31 l 311 253 l 311 1 q 267 -7 296 -3 q 206 -11 239 -11 q 106 12 136 -11 q 75 100 75 35 l 75 672 q 119 681 90 676 q 181 685 147 685 q 281 662 250 685 q 311 574 311 639 l 311 439 z "},"Ĺ":{"ha":713,"x_min":90,"x_max":678,"o":"m 219 -4 q 125 31 160 -4 q 90 125 90 65 l 90 844 q 139 852 107 847 q 203 857 171 857 q 303 833 272 857 q 333 742 333 810 l 333 192 l 651 192 q 669 151 661 176 q 678 97 678 126 q 656 21 678 46 q 594 -4 633 -4 l 219 -4 m 307 1175 q 398 1147 365 1175 q 431 1076 431 1118 q 417 1026 431 1049 q 365 981 404 1004 l 226 900 q 142 925 171 900 q 114 983 114 950 q 119 1015 114 1000 q 146 1050 124 1031 l 307 1175 z "},"ĺ":{"ha":392,"x_min":76,"x_max":431,"o":"m 307 1244 q 398 1216 365 1244 q 431 1146 431 1188 q 417 1096 431 1118 q 365 1050 404 1074 l 226 969 q 142 994 171 969 q 114 1053 114 1019 q 119 1085 114 1069 q 146 1119 124 1100 l 307 1244 m 207 -11 q 107 12 138 -11 q 76 100 76 35 l 76 906 q 120 914 92 910 q 182 918 149 918 q 282 895 251 918 q 313 807 313 872 l 313 1 q 269 -7 297 -3 q 207 -11 240 -11 z "},"Ļ":{"ha":713,"x_min":90,"x_max":678,"o":"m 219 -4 q 125 31 160 -4 q 90 125 90 65 l 90 844 q 139 852 107 847 q 203 857 171 857 q 303 833 272 857 q 333 742 333 810 l 333 192 l 651 192 q 669 151 661 176 q 678 97 678 126 q 656 21 678 46 q 594 -4 633 -4 l 219 -4 m 415 -310 q 365 -345 392 -335 q 306 -356 338 -356 q 217 -324 253 -356 q 260 -210 246 -265 q 282 -101 275 -156 q 334 -81 304 -90 q 394 -72 364 -72 q 467 -89 439 -72 q 494 -144 494 -106 q 487 -184 494 -161 q 468 -230 479 -207 q 443 -274 457 -253 q 415 -310 429 -296 z "},"ļ":{"ha":394,"x_min":38,"x_max":315,"o":"m 210 -11 q 110 12 140 -11 q 79 100 79 35 l 79 906 q 123 914 94 910 q 185 918 151 918 q 285 895 254 918 q 315 807 315 872 l 315 1 q 272 -7 300 -3 q 210 -11 243 -11 m 236 -310 q 185 -345 213 -335 q 126 -356 158 -356 q 38 -324 74 -356 q 81 -210 67 -265 q 103 -101 96 -156 q 155 -81 125 -90 q 215 -72 185 -72 q 288 -89 260 -72 q 315 -144 315 -106 q 308 -184 315 -161 q 289 -230 300 -207 q 264 -274 278 -253 q 236 -310 250 -296 z "},"Ľ":{"ha":713,"x_min":90,"x_max":678,"o":"m 219 -4 q 125 31 160 -4 q 90 125 90 65 l 90 844 q 139 852 107 847 q 203 857 171 857 q 303 833 272 857 q 333 742 333 810 l 333 192 l 651 192 q 669 151 661 176 q 678 97 678 126 q 656 21 678 46 q 594 -4 633 -4 l 219 -4 m 592 618 q 541 583 568 593 q 482 572 514 572 q 393 604 429 572 q 437 717 422 663 q 458 826 451 772 q 510 847 481 838 q 571 856 540 856 q 643 839 615 856 q 671 783 671 822 q 663 744 671 767 q 644 698 656 721 q 619 653 633 675 q 592 618 606 632 z "},"ľ":{"ha":649,"x_min":79,"x_max":649,"o":"m 210 -11 q 110 12 140 -11 q 79 100 79 35 l 79 906 q 123 914 94 910 q 185 918 151 918 q 285 895 254 918 q 315 807 315 872 l 315 1 q 272 -7 300 -3 q 210 -11 243 -11 m 569 685 q 519 649 546 660 q 460 639 492 639 q 371 671 407 639 q 415 784 400 729 q 436 893 429 839 q 488 913 458 904 q 549 922 518 922 q 621 906 593 922 q 649 850 649 889 q 641 810 649 833 q 622 765 633 788 q 597 720 611 742 q 569 685 583 699 z "},"Ŀ":{"ha":713,"x_min":90,"x_max":704,"o":"m 219 -4 q 125 31 160 -4 q 90 125 90 65 l 90 844 q 139 852 107 847 q 203 857 171 857 q 303 833 272 857 q 333 742 333 810 l 333 192 l 651 192 q 669 151 661 176 q 678 97 678 126 q 656 21 678 46 q 594 -4 633 -4 l 219 -4 m 435 488 q 471 585 435 546 q 569 624 507 624 q 668 585 632 624 q 704 488 704 546 q 668 390 704 429 q 569 351 632 351 q 471 390 507 351 q 435 488 435 429 z "},"ŀ":{"ha":636,"x_min":79,"x_max":650,"o":"m 210 -11 q 110 12 140 -11 q 79 100 79 35 l 79 906 q 123 914 94 910 q 185 918 151 918 q 285 895 254 918 q 315 807 315 872 l 315 1 q 272 -7 300 -3 q 210 -11 243 -11 m 381 418 q 417 515 381 476 q 515 554 453 554 q 614 515 578 554 q 650 418 650 476 q 614 321 650 360 q 515 282 578 282 q 417 321 453 282 q 381 418 381 360 z "},"Ł":{"ha":768,"x_min":14,"x_max":733,"o":"m 275 -4 q 181 31 215 -4 q 146 125 146 65 l 146 314 l 79 286 q 37 333 60 301 q 14 404 14 365 q 63 472 14 453 l 146 507 l 146 844 q 194 852 163 847 q 258 857 226 857 q 358 833 328 857 q 389 742 389 810 l 389 611 l 517 667 q 538 646 526 658 q 559 618 549 633 q 576 584 569 603 q 583 547 583 565 q 570 507 583 524 q 533 481 557 490 l 389 418 l 389 192 l 707 192 q 725 151 717 176 q 733 97 733 126 q 711 21 733 46 q 650 -4 689 -4 l 275 -4 l 275 -4 z "},"ł":{"ha":542,"x_min":14,"x_max":528,"o":"m 285 -11 q 185 12 215 -11 q 154 100 154 35 l 154 331 l 79 300 q 37 347 60 315 q 14 418 14 379 q 63 486 14 467 l 154 524 l 154 906 q 198 914 169 910 q 260 918 226 918 q 360 895 329 918 q 390 807 390 872 l 390 622 l 461 653 q 482 632 471 644 q 503 604 493 619 q 521 570 514 589 q 528 533 528 551 q 515 493 528 510 q 478 467 501 476 l 390 429 l 390 1 q 347 -7 375 -3 q 285 -11 318 -11 z "},"Ń":{"ha":943,"x_min":90,"x_max":853,"o":"m 853 29 q 797 -1 833 10 q 708 -11 760 -11 q 611 4 657 -11 q 536 78 565 19 l 399 358 q 361 440 378 401 q 325 528 344 478 l 315 525 q 323 363 322 438 q 324 221 324 289 l 324 0 q 278 -7 308 -3 q 215 -11 247 -11 q 117 13 144 -11 q 90 100 90 38 l 90 799 q 150 840 110 826 q 236 854 190 854 q 334 838 288 854 q 408 765 381 822 l 547 485 q 585 403 568 442 q 621 315 601 365 l 626 317 q 620 442 621 383 q 619 556 619 501 l 619 846 q 665 853 635 849 q 728 857 696 857 q 826 833 799 857 q 853 746 853 808 l 853 29 m 585 1175 q 676 1147 643 1175 q 708 1076 708 1118 q 695 1026 708 1049 q 643 981 682 1004 l 504 900 q 420 925 449 900 q 392 983 392 950 q 397 1015 392 1000 q 424 1050 401 1031 l 585 1175 z "},"ń":{"ha":810,"x_min":72,"x_max":736,"o":"m 736 1 q 692 -7 721 -3 q 631 -11 664 -11 q 531 12 561 -11 q 500 100 500 35 l 500 428 q 474 491 500 471 q 407 511 449 511 q 355 504 379 511 q 308 486 331 497 l 308 1 q 265 -7 293 -3 q 203 -11 236 -11 q 103 12 133 -11 q 72 100 72 35 l 72 518 q 88 579 72 556 q 132 622 104 603 q 251 676 179 656 q 410 696 322 696 q 651 627 567 696 q 736 435 736 558 l 736 1 m 492 1044 q 600 1014 564 1044 q 636 944 636 983 q 622 891 636 913 q 575 842 608 869 l 443 733 q 350 763 381 733 q 319 825 319 792 q 326 857 319 842 q 351 893 332 872 l 492 1044 z "},"Ņ":{"ha":943,"x_min":90,"x_max":853,"o":"m 853 29 q 797 -1 833 10 q 708 -11 760 -11 q 611 4 657 -11 q 536 78 565 19 l 399 358 q 361 440 378 401 q 325 528 344 478 l 315 525 q 323 363 322 438 q 324 221 324 289 l 324 0 q 278 -7 308 -3 q 215 -11 247 -11 q 117 13 144 -11 q 90 100 90 38 l 90 799 q 150 840 110 826 q 236 854 190 854 q 334 838 288 854 q 408 765 381 822 l 547 485 q 585 403 568 442 q 621 315 601 365 l 626 317 q 620 442 621 383 q 619 556 619 501 l 619 846 q 665 853 635 849 q 728 857 696 857 q 826 833 799 857 q 853 746 853 808 l 853 29 m 503 -310 q 452 -345 479 -335 q 393 -356 425 -356 q 304 -324 340 -356 q 348 -210 333 -265 q 369 -101 363 -156 q 422 -81 392 -90 q 482 -72 451 -72 q 554 -89 526 -72 q 582 -144 582 -106 q 574 -184 582 -161 q 556 -230 567 -207 q 531 -274 544 -253 q 503 -310 517 -296 z "},"ņ":{"ha":810,"x_min":72,"x_max":736,"o":"m 736 1 q 692 -7 721 -3 q 631 -11 664 -11 q 531 12 561 -11 q 500 100 500 35 l 500 428 q 474 491 500 471 q 407 511 449 511 q 355 504 379 511 q 308 486 331 497 l 308 1 q 265 -7 293 -3 q 203 -11 236 -11 q 103 12 133 -11 q 72 100 72 35 l 72 518 q 88 579 72 556 q 132 622 104 603 q 251 676 179 656 q 410 696 322 696 q 651 627 567 696 q 736 435 736 558 l 736 1 m 442 -310 q 391 -345 418 -335 q 332 -356 364 -356 q 243 -324 279 -356 q 287 -210 272 -265 q 308 -101 301 -156 q 360 -81 331 -90 q 421 -72 390 -72 q 493 -89 465 -72 q 521 -144 521 -106 q 513 -184 521 -161 q 494 -230 506 -207 q 469 -274 483 -253 q 442 -310 456 -296 z "},"Ň":{"ha":943,"x_min":90,"x_max":853,"o":"m 853 29 q 797 -1 833 10 q 708 -11 760 -11 q 611 4 657 -11 q 536 78 565 19 l 399 358 q 361 440 378 401 q 325 528 344 478 l 315 525 q 323 363 322 438 q 324 221 324 289 l 324 0 q 278 -7 308 -3 q 215 -11 247 -11 q 117 13 144 -11 q 90 100 90 38 l 90 799 q 150 840 110 826 q 236 854 190 854 q 334 838 288 854 q 408 765 381 822 l 547 485 q 585 403 568 442 q 621 315 601 365 l 626 317 q 620 442 621 383 q 619 556 619 501 l 619 846 q 665 853 635 849 q 728 857 696 857 q 826 833 799 857 q 853 746 853 808 l 853 29 m 479 1058 q 547 1121 514 1090 q 611 1176 581 1151 q 685 1151 656 1176 q 714 1088 714 1126 q 700 1037 714 1058 q 647 986 686 1015 l 608 957 q 540 915 568 926 q 479 903 513 903 q 407 919 438 903 q 349 960 376 935 l 233 1064 q 258 1144 233 1115 q 326 1172 282 1172 q 378 1158 354 1172 q 442 1100 403 1143 l 479 1058 z "},"ň":{"ha":810,"x_min":72,"x_max":736,"o":"m 736 1 q 692 -7 721 -3 q 631 -11 664 -11 q 531 12 561 -11 q 500 100 500 35 l 500 428 q 474 491 500 471 q 407 511 449 511 q 355 504 379 511 q 308 486 331 497 l 308 1 q 265 -7 293 -3 q 203 -11 236 -11 q 103 12 133 -11 q 72 100 72 35 l 72 518 q 88 579 72 556 q 132 622 104 603 q 251 676 179 656 q 410 696 322 696 q 651 627 567 696 q 736 435 736 558 l 736 1 m 400 911 l 525 1028 q 611 1002 579 1028 q 643 936 643 976 q 627 885 643 906 q 576 838 611 865 l 514 786 q 459 753 486 763 q 404 743 432 743 q 369 746 385 743 q 338 756 354 749 q 303 776 322 763 q 257 814 283 790 l 154 903 q 152 915 153 910 q 151 928 151 921 q 173 994 151 964 q 240 1025 194 1025 q 266 1023 254 1025 q 290 1013 278 1021 q 318 993 303 1006 q 353 960 333 981 l 400 911 z "},"ŉ":{"ha":1032,"x_min":31,"x_max":958,"o":"m 958 1 q 915 -7 943 -3 q 853 -11 886 -11 q 753 12 783 -11 q 722 100 722 35 l 722 428 q 697 491 722 471 q 629 511 671 511 q 577 504 601 511 q 531 486 553 497 l 531 1 q 487 -7 515 -3 q 425 -11 458 -11 q 325 12 356 -11 q 294 100 294 35 l 294 518 q 310 579 294 556 q 354 622 326 603 q 473 676 401 656 q 632 696 544 696 q 874 627 789 696 q 958 435 958 558 l 958 1 m 211 542 q 175 507 196 518 q 122 496 154 496 q 74 501 96 496 q 31 517 51 507 q 44 690 38 600 q 54 853 51 781 q 105 874 74 864 q 165 883 136 883 q 209 879 188 883 q 247 865 231 875 q 274 837 264 854 q 283 794 283 819 q 278 732 283 767 q 262 662 272 697 q 238 594 251 626 q 211 542 225 563 z "},"Ō":{"ha":976,"x_min":49,"x_max":928,"o":"m 928 422 q 894 230 928 314 q 802 90 861 146 q 663 4 743 33 q 488 -25 582 -25 q 313 4 393 -25 q 174 90 232 33 q 82 231 115 147 q 49 422 49 314 q 83 614 49 531 q 176 753 117 697 q 315 839 235 810 q 488 868 394 868 q 660 839 581 868 q 800 753 740 810 q 894 614 860 697 q 928 422 928 531 m 678 422 q 626 610 678 547 q 488 672 575 672 q 351 610 403 672 q 299 422 299 549 q 350 233 299 296 q 489 171 401 171 q 626 233 575 171 q 678 422 678 296 m 272 963 q 258 1001 265 978 q 250 1049 250 1024 q 271 1120 250 1100 q 326 1140 292 1140 l 694 1140 q 711 1102 706 1125 q 717 1054 717 1079 q 697 983 717 1003 q 642 963 676 963 l 272 963 z "},"ō":{"ha":814,"x_min":43,"x_max":771,"o":"m 771 338 q 745 188 771 254 q 672 74 719 121 q 557 3 624 28 q 407 -22 490 -22 q 257 2 324 -22 q 142 73 190 26 q 69 186 94 119 q 43 338 43 253 q 69 486 43 419 q 144 599 96 553 q 258 671 192 646 q 407 696 325 696 q 556 670 489 696 q 670 598 622 644 q 744 485 718 551 q 771 338 771 418 m 407 511 q 317 466 349 511 q 285 338 285 421 q 317 206 285 250 q 407 163 349 163 q 497 207 465 163 q 529 338 529 251 q 497 466 529 421 q 407 511 465 511 m 194 783 q 180 822 188 799 q 172 869 172 844 q 193 941 172 921 q 249 961 214 961 l 617 961 q 633 923 628 946 q 639 875 639 900 q 619 803 639 824 q 564 783 599 783 l 194 783 z "},"Ő":{"ha":976,"x_min":49,"x_max":928,"o":"m 928 422 q 894 230 928 314 q 802 90 861 146 q 663 4 743 33 q 488 -25 582 -25 q 313 4 393 -25 q 174 90 232 33 q 82 231 115 147 q 49 422 49 314 q 83 614 49 531 q 176 753 117 697 q 315 839 235 810 q 488 868 394 868 q 660 839 581 868 q 800 753 740 810 q 894 614 860 697 q 928 422 928 531 m 678 422 q 626 610 678 547 q 488 672 575 672 q 351 610 403 672 q 299 422 299 549 q 350 233 299 296 q 489 171 401 171 q 626 233 575 171 q 678 422 678 296 m 350 1175 q 456 1145 422 1175 q 489 1076 489 1115 q 474 1025 489 1046 q 429 972 460 1004 l 358 900 q 266 927 296 900 q 236 988 236 954 q 242 1020 236 1004 q 265 1060 247 1036 l 350 1175 m 651 1175 q 757 1145 724 1175 q 790 1076 790 1115 q 776 1025 790 1046 q 731 972 761 1004 l 660 900 q 567 927 597 900 q 538 988 538 954 q 543 1020 538 1004 q 567 1060 549 1036 l 651 1175 z "},"ő":{"ha":814,"x_min":43,"x_max":771,"o":"m 771 338 q 745 188 771 254 q 672 74 719 121 q 557 3 624 28 q 407 -22 490 -22 q 257 2 324 -22 q 142 73 190 26 q 69 186 94 119 q 43 338 43 253 q 69 486 43 419 q 144 599 96 553 q 258 671 192 646 q 407 696 325 696 q 556 670 489 696 q 670 598 622 644 q 744 485 718 551 q 771 338 771 418 m 407 511 q 317 466 349 511 q 285 338 285 421 q 317 206 285 250 q 407 163 349 163 q 497 207 465 163 q 529 338 529 251 q 497 466 529 421 q 407 511 465 511 m 286 1044 q 394 1014 358 1044 q 431 944 431 983 q 415 894 431 914 q 369 842 400 874 l 265 733 q 172 763 203 733 q 142 825 142 792 q 147 856 142 842 q 169 893 151 869 l 286 1044 m 601 1044 q 710 1014 674 1044 q 746 944 746 983 q 731 894 746 914 q 685 842 715 874 l 581 733 q 488 763 518 733 q 457 825 457 792 q 462 856 457 842 q 485 893 467 869 l 601 1044 z "},"Œ":{"ha":1321,"x_min":49,"x_max":1268,"o":"m 1243 188 q 1260 147 1253 172 q 1268 93 1268 122 q 1246 19 1268 42 q 1185 -4 1224 -4 l 793 -4 q 693 36 726 -4 q 602 -8 653 8 q 488 -25 551 -25 q 313 4 393 -25 q 174 90 232 33 q 82 231 115 147 q 49 422 49 314 q 83 614 49 531 q 176 753 117 697 q 315 839 235 810 q 488 868 394 868 q 603 851 551 868 q 694 803 654 835 q 793 842 729 842 l 1238 842 q 1255 803 1247 826 q 1263 750 1263 779 q 1240 675 1263 699 q 1179 651 1218 651 l 886 651 l 886 522 l 1199 522 q 1216 483 1208 507 q 1224 431 1224 460 q 1201 356 1224 379 q 1140 333 1179 333 l 886 333 l 886 188 l 1243 188 m 489 171 q 650 251 599 171 l 650 592 q 488 672 597 672 q 351 610 403 672 q 299 422 299 549 q 350 233 299 296 q 489 171 401 171 z "},"œ":{"ha":1243,"x_min":43,"x_max":1201,"o":"m 399 696 q 534 669 475 696 q 635 599 593 643 q 740 672 679 649 q 872 696 801 696 q 1006 674 946 696 q 1110 613 1067 651 q 1178 519 1154 574 q 1201 401 1201 465 q 1175 329 1201 354 q 1101 297 1149 304 l 757 244 q 822 174 776 194 q 924 154 867 154 q 1035 169 982 154 q 1119 203 1088 183 q 1157 164 1142 189 q 1172 111 1172 139 q 1153 51 1172 76 q 1098 10 1133 26 q 1014 -15 1063 -7 q 907 -22 965 -22 q 643 78 735 -22 q 540 4 601 31 q 399 -22 479 -22 q 249 2 315 -22 q 138 73 183 26 q 67 186 92 119 q 43 338 43 253 q 68 486 43 419 q 139 599 93 553 q 251 671 185 646 q 399 696 317 696 m 407 511 q 317 466 349 511 q 285 338 285 421 q 317 206 285 250 q 407 163 349 163 q 497 207 465 163 q 529 338 529 251 q 497 466 529 421 q 407 511 465 511 m 874 524 q 785 492 821 524 q 743 401 750 460 l 979 440 q 971 469 978 454 q 951 496 964 483 q 919 516 939 508 q 874 524 900 524 z "},"Ŕ":{"ha":846,"x_min":90,"x_max":807,"o":"m 779 567 q 738 426 779 488 q 629 324 697 364 q 683 254 656 288 q 733 190 710 221 q 776 133 757 160 q 807 86 794 107 q 756 12 793 38 q 674 -14 719 -14 q 621 -7 643 -14 q 582 13 599 0 q 551 43 565 25 q 525 82 538 61 l 407 272 l 333 272 l 333 1 q 286 -7 318 -3 q 221 -11 254 -11 q 119 14 147 -11 q 90 104 90 39 l 90 763 q 106 808 90 792 q 150 833 122 824 q 260 858 197 850 q 393 865 322 865 q 682 784 585 865 q 779 567 779 703 m 400 457 q 496 484 458 457 q 533 564 533 511 q 499 644 533 617 q 392 671 465 671 q 360 669 375 671 q 331 665 346 668 l 331 457 l 400 457 m 490 1175 q 581 1147 549 1175 q 614 1076 614 1118 q 601 1026 614 1049 q 549 981 588 1004 l 410 900 q 326 925 354 900 q 297 983 297 950 q 302 1015 297 1000 q 329 1050 307 1031 l 490 1175 z "},"ŕ":{"ha":571,"x_min":72,"x_max":550,"o":"m 308 1 q 265 -7 293 -3 q 203 -11 236 -11 q 103 12 133 -11 q 72 100 72 35 l 72 513 q 93 583 72 553 q 150 635 114 613 q 263 679 199 664 q 399 694 328 694 q 550 588 550 694 q 543 541 550 563 q 526 504 536 519 q 450 510 500 510 q 376 501 414 510 q 308 476 338 493 l 308 1 m 371 1044 q 479 1014 443 1044 q 515 944 515 983 q 501 891 515 913 q 454 842 488 869 l 322 733 q 229 763 260 733 q 199 825 199 792 q 205 857 199 842 q 231 893 211 872 l 371 1044 z "},"Ŗ":{"ha":846,"x_min":90,"x_max":807,"o":"m 779 567 q 738 426 779 488 q 629 324 697 364 q 683 254 656 288 q 733 190 710 221 q 776 133 757 160 q 807 86 794 107 q 756 12 793 38 q 674 -14 719 -14 q 621 -7 643 -14 q 582 13 599 0 q 551 43 565 25 q 525 82 538 61 l 407 272 l 333 272 l 333 1 q 286 -7 318 -3 q 221 -11 254 -11 q 119 14 147 -11 q 90 104 90 39 l 90 763 q 106 808 90 792 q 150 833 122 824 q 260 858 197 850 q 393 865 322 865 q 682 784 585 865 q 779 567 779 703 m 400 457 q 496 484 458 457 q 533 564 533 511 q 499 644 533 617 q 392 671 465 671 q 360 669 375 671 q 331 665 346 668 l 331 457 l 400 457 m 489 -310 q 438 -345 465 -335 q 379 -356 411 -356 q 290 -324 326 -356 q 334 -210 319 -265 q 356 -101 349 -156 q 408 -81 378 -90 q 468 -72 438 -72 q 540 -89 513 -72 q 568 -144 568 -106 q 560 -184 568 -161 q 542 -230 553 -207 q 517 -274 531 -253 q 489 -310 503 -296 z "},"ŗ":{"ha":571,"x_min":31,"x_max":550,"o":"m 308 1 q 265 -7 293 -3 q 203 -11 236 -11 q 103 12 133 -11 q 72 100 72 35 l 72 513 q 93 583 72 553 q 150 635 114 613 q 263 679 199 664 q 399 694 328 694 q 550 588 550 694 q 543 541 550 563 q 526 504 536 519 q 450 510 500 510 q 376 501 414 510 q 308 476 338 493 l 308 1 m 229 -310 q 178 -345 206 -335 q 119 -356 151 -356 q 31 -324 67 -356 q 74 -210 60 -265 q 96 -101 89 -156 q 148 -81 118 -90 q 208 -72 178 -72 q 281 -89 253 -72 q 308 -144 308 -106 q 301 -184 308 -161 q 282 -230 293 -207 q 257 -274 271 -253 q 229 -310 243 -296 z "},"Ř":{"ha":846,"x_min":90,"x_max":807,"o":"m 779 567 q 738 426 779 488 q 629 324 697 364 q 683 254 656 288 q 733 190 710 221 q 776 133 757 160 q 807 86 794 107 q 756 12 793 38 q 674 -14 719 -14 q 621 -7 643 -14 q 582 13 599 0 q 551 43 565 25 q 525 82 538 61 l 407 272 l 333 272 l 333 1 q 286 -7 318 -3 q 221 -11 254 -11 q 119 14 147 -11 q 90 104 90 39 l 90 763 q 106 808 90 792 q 150 833 122 824 q 260 858 197 850 q 393 865 322 865 q 682 784 585 865 q 779 567 779 703 m 400 457 q 496 484 458 457 q 533 564 533 511 q 499 644 533 617 q 392 671 465 671 q 360 669 375 671 q 331 665 346 668 l 331 457 l 400 457 m 431 1058 q 499 1121 465 1090 q 563 1176 532 1151 q 636 1151 607 1176 q 665 1088 665 1126 q 651 1037 665 1058 q 599 986 638 1015 l 560 957 q 492 915 519 926 q 431 903 464 903 q 358 919 389 903 q 300 960 328 935 l 185 1064 q 209 1144 185 1115 q 278 1172 233 1172 q 330 1158 306 1172 q 393 1100 354 1143 l 431 1058 z "},"ř":{"ha":571,"x_min":72,"x_max":568,"o":"m 308 1 q 265 -7 293 -3 q 203 -11 236 -11 q 103 12 133 -11 q 72 100 72 35 l 72 513 q 93 583 72 553 q 150 635 114 613 q 263 679 199 664 q 399 694 328 694 q 550 588 550 694 q 543 541 550 563 q 526 504 536 519 q 450 510 500 510 q 376 501 414 510 q 308 476 338 493 l 308 1 m 325 911 l 450 1028 q 536 1002 504 1028 q 568 936 568 976 q 552 885 568 906 q 501 838 536 865 l 439 786 q 384 753 411 763 q 329 743 357 743 q 294 746 310 743 q 263 756 279 749 q 228 776 247 763 q 182 814 208 790 l 79 903 q 77 915 78 910 q 76 928 76 921 q 98 994 76 964 q 165 1025 119 1025 q 191 1023 179 1025 q 215 1013 203 1021 q 243 993 228 1006 q 278 960 258 981 l 325 911 z "},"Ś":{"ha":765,"x_min":56,"x_max":724,"o":"m 349 172 q 444 194 417 172 q 472 244 472 217 q 450 288 472 272 q 388 318 428 304 l 329 338 q 218 380 268 358 q 132 432 168 401 q 76 505 96 463 q 56 608 56 547 q 147 797 56 726 q 401 868 238 868 q 513 860 461 868 q 601 834 564 851 q 658 790 638 817 q 679 726 679 763 q 663 665 679 690 q 622 621 646 639 q 540 655 592 640 q 428 669 489 669 q 336 652 365 669 q 307 608 307 635 q 325 574 307 588 q 379 550 343 561 l 453 526 q 653 419 583 485 q 724 242 724 353 q 700 134 724 183 q 630 49 676 85 q 515 -6 583 14 q 357 -25 446 -25 q 238 -15 293 -25 q 142 16 183 -4 q 78 66 101 36 q 56 135 56 96 q 79 203 56 175 q 131 247 103 232 q 226 194 169 217 q 349 172 282 172 m 463 1175 q 553 1147 521 1175 q 586 1076 586 1118 q 573 1026 586 1049 q 521 981 560 1004 l 382 900 q 298 925 326 900 q 269 983 269 950 q 274 1015 269 1000 q 301 1050 279 1031 l 463 1175 z "},"ś":{"ha":683,"x_min":56,"x_max":642,"o":"m 642 201 q 563 36 642 96 q 329 -24 483 -24 q 221 -15 271 -24 q 135 10 171 -7 q 80 54 100 28 q 60 117 60 81 q 74 173 60 150 q 107 211 88 196 q 199 172 147 189 q 319 154 251 154 q 385 167 363 154 q 408 200 408 179 q 392 231 408 219 q 336 249 375 242 l 294 257 q 115 331 174 281 q 56 476 56 382 q 78 569 56 528 q 140 639 100 611 q 237 682 181 667 q 361 697 293 697 q 458 690 413 697 q 536 667 503 682 q 589 627 569 651 q 608 569 608 603 q 597 515 608 538 q 567 476 585 492 q 533 491 556 483 q 485 505 511 499 q 431 515 458 511 q 382 519 404 519 q 311 509 336 519 q 286 476 286 499 q 300 451 286 461 q 353 433 314 442 l 396 424 q 585 340 529 393 q 642 201 642 286 m 417 1044 q 525 1014 489 1044 q 561 944 561 983 q 547 891 561 913 q 500 842 533 869 l 368 733 q 275 763 306 733 q 244 825 244 792 q 251 857 244 842 q 276 893 257 872 l 417 1044 z "},"Ŝ":{"ha":765,"x_min":56,"x_max":724,"o":"m 349 172 q 444 194 417 172 q 472 244 472 217 q 450 288 472 272 q 388 318 428 304 l 329 338 q 218 380 268 358 q 132 432 168 401 q 76 505 96 463 q 56 608 56 547 q 147 797 56 726 q 401 868 238 868 q 513 860 461 868 q 601 834 564 851 q 658 790 638 817 q 679 726 679 763 q 663 665 679 690 q 622 621 646 639 q 540 655 592 640 q 428 669 489 669 q 336 652 365 669 q 307 608 307 635 q 325 574 307 588 q 379 550 343 561 l 453 526 q 653 419 583 485 q 724 242 724 353 q 700 134 724 183 q 630 49 676 85 q 515 -6 583 14 q 357 -25 446 -25 q 238 -15 293 -25 q 142 16 183 -4 q 78 66 101 36 q 56 135 56 96 q 79 203 56 175 q 131 247 103 232 q 226 194 169 217 q 349 172 282 172 m 386 1019 q 319 957 353 988 q 256 901 286 926 q 183 926 213 901 q 154 989 154 951 q 168 1039 154 1018 q 219 1089 182 1060 l 260 1119 q 331 1163 300 1150 q 389 1176 361 1176 q 454 1163 425 1176 q 515 1118 483 1150 l 628 1006 q 602 931 628 956 q 532 906 576 906 q 481 924 504 906 q 424 978 457 942 l 386 1019 z "},"ŝ":{"ha":683,"x_min":56,"x_max":642,"o":"m 642 201 q 563 36 642 96 q 329 -24 483 -24 q 221 -15 271 -24 q 135 10 171 -7 q 80 54 100 28 q 60 117 60 81 q 74 173 60 150 q 107 211 88 196 q 199 172 147 189 q 319 154 251 154 q 385 167 363 154 q 408 200 408 179 q 392 231 408 219 q 336 249 375 242 l 294 257 q 115 331 174 281 q 56 476 56 382 q 78 569 56 528 q 140 639 100 611 q 237 682 181 667 q 361 697 293 697 q 458 690 413 697 q 536 667 503 682 q 589 627 569 651 q 608 569 608 603 q 597 515 608 538 q 567 476 585 492 q 533 491 556 483 q 485 505 511 499 q 431 515 458 511 q 382 519 404 519 q 311 509 336 519 q 286 476 286 499 q 300 451 286 461 q 353 433 314 442 l 396 424 q 585 340 529 393 q 642 201 642 286 m 333 869 q 301 833 315 849 q 274 803 286 818 q 249 774 261 789 q 221 742 236 760 q 135 766 167 742 q 103 831 103 790 q 118 878 103 858 q 164 929 133 899 l 211 976 q 267 1019 238 1003 q 338 1035 297 1035 q 404 1021 374 1035 q 475 958 435 1007 l 574 838 q 551 772 574 799 q 481 744 528 744 q 432 759 453 744 q 389 801 411 774 l 333 869 z "},"Ş":{"ha":765,"x_min":56,"x_max":724,"o":"m 349 172 q 444 194 417 172 q 472 244 472 217 q 450 288 472 272 q 388 318 428 304 l 329 338 q 218 380 268 358 q 132 432 168 401 q 76 505 96 463 q 56 608 56 547 q 147 797 56 726 q 401 868 238 868 q 513 860 461 868 q 601 834 564 851 q 658 790 638 817 q 679 726 679 763 q 663 665 679 690 q 622 621 646 639 q 540 655 592 640 q 428 669 489 669 q 336 652 365 669 q 307 608 307 635 q 325 574 307 588 q 379 550 343 561 l 453 526 q 653 419 583 485 q 724 242 724 353 q 663 78 724 146 q 483 -12 601 11 q 503 -62 497 -36 q 508 -117 508 -89 q 464 -234 508 -187 q 340 -281 419 -281 q 247 -252 282 -281 q 211 -171 211 -224 q 217 -129 211 -147 l 231 -129 q 292 -108 274 -129 q 311 -57 311 -87 q 304 -24 311 -42 q 205 -7 250 -19 q 126 25 160 6 q 74 72 93 44 q 56 135 56 100 q 79 203 56 175 q 131 247 103 232 q 226 194 169 217 q 349 172 282 172 z "},"ş":{"ha":683,"x_min":56,"x_max":642,"o":"m 642 201 q 594 65 642 119 q 456 -10 547 11 q 483 -117 483 -56 q 439 -234 483 -187 q 315 -281 394 -281 q 222 -252 257 -281 q 186 -171 186 -224 q 192 -129 186 -147 l 206 -129 q 267 -108 249 -129 q 286 -57 286 -87 q 279 -22 286 -43 q 120 17 181 -15 q 60 117 60 50 q 74 173 60 150 q 107 211 88 196 q 199 172 147 189 q 319 154 251 154 q 385 167 363 154 q 408 200 408 179 q 392 231 408 219 q 336 249 375 242 l 294 257 q 115 331 174 281 q 56 476 56 382 q 78 569 56 528 q 140 639 100 611 q 237 682 181 667 q 361 697 293 697 q 458 690 413 697 q 536 667 503 682 q 589 627 569 651 q 608 569 608 603 q 597 515 608 538 q 567 476 585 492 q 533 491 556 483 q 485 505 511 499 q 431 515 458 511 q 382 519 404 519 q 311 509 336 519 q 286 476 286 499 q 300 451 286 461 q 353 433 314 442 l 396 424 q 585 340 529 393 q 642 201 642 286 z "},"Š":{"ha":765,"x_min":56,"x_max":724,"o":"m 349 172 q 444 194 417 172 q 472 244 472 217 q 450 288 472 272 q 388 318 428 304 l 329 338 q 218 380 268 358 q 132 432 168 401 q 76 505 96 463 q 56 608 56 547 q 147 797 56 726 q 401 868 238 868 q 513 860 461 868 q 601 834 564 851 q 658 790 638 817 q 679 726 679 763 q 663 665 679 690 q 622 621 646 639 q 540 655 592 640 q 428 669 489 669 q 336 652 365 669 q 307 608 307 635 q 325 574 307 588 q 379 550 343 561 l 453 526 q 653 419 583 485 q 724 242 724 353 q 700 134 724 183 q 630 49 676 85 q 515 -6 583 14 q 357 -25 446 -25 q 238 -15 293 -25 q 142 16 183 -4 q 78 66 101 36 q 56 135 56 96 q 79 203 56 175 q 131 247 103 232 q 226 194 169 217 q 349 172 282 172 m 389 1058 q 457 1121 424 1090 q 521 1176 490 1151 q 594 1151 565 1176 q 624 1088 624 1126 q 610 1037 624 1058 q 557 986 596 1015 l 518 957 q 450 915 478 926 q 389 903 422 903 q 317 919 347 903 q 258 960 286 935 l 143 1064 q 167 1144 143 1115 q 236 1172 192 1172 q 288 1158 264 1172 q 351 1100 313 1143 l 389 1058 z "},"š":{"ha":683,"x_min":56,"x_max":642,"o":"m 642 201 q 563 36 642 96 q 329 -24 483 -24 q 221 -15 271 -24 q 135 10 171 -7 q 80 54 100 28 q 60 117 60 81 q 74 173 60 150 q 107 211 88 196 q 199 172 147 189 q 319 154 251 154 q 385 167 363 154 q 408 200 408 179 q 392 231 408 219 q 336 249 375 242 l 294 257 q 115 331 174 281 q 56 476 56 382 q 78 569 56 528 q 140 639 100 611 q 237 682 181 667 q 361 697 293 697 q 458 690 413 697 q 536 667 503 682 q 589 627 569 651 q 608 569 608 603 q 597 515 608 538 q 567 476 585 492 q 533 491 556 483 q 485 505 511 499 q 431 515 458 511 q 382 519 404 519 q 311 509 336 519 q 286 476 286 499 q 300 451 286 461 q 353 433 314 442 l 396 424 q 585 340 529 393 q 642 201 642 286 m 333 911 l 458 1028 q 544 1002 513 1028 q 576 936 576 976 q 560 885 576 906 q 510 838 544 865 l 447 786 q 392 753 419 763 q 338 743 365 743 q 303 746 318 743 q 272 756 288 749 q 236 776 256 763 q 190 814 217 790 l 88 903 q 85 915 86 910 q 85 928 85 921 q 106 994 85 964 q 174 1025 128 1025 q 199 1023 188 1025 q 224 1013 211 1021 q 251 993 236 1006 q 286 960 267 981 l 333 911 z "},"Ț":{"ha":772,"x_min":25,"x_max":744,"o":"m 719 842 q 737 801 729 826 q 744 747 744 776 q 722 671 744 694 q 660 647 699 647 l 503 647 l 503 1 q 456 -7 488 -3 q 390 -11 424 -11 q 288 14 317 -11 q 260 104 260 39 l 260 647 l 50 647 q 33 688 40 663 q 25 742 25 713 q 48 818 25 794 q 110 842 71 842 l 719 842 m 419 -310 q 369 -345 396 -335 q 310 -356 342 -356 q 221 -324 257 -356 q 265 -210 250 -265 q 286 -101 279 -156 q 338 -81 308 -90 q 399 -72 368 -72 q 471 -89 443 -72 q 499 -144 499 -106 q 491 -184 499 -161 q 472 -230 483 -207 q 447 -274 461 -253 q 419 -310 433 -296 z "},"ț":{"ha":551,"x_min":75,"x_max":514,"o":"m 329 -21 q 141 35 207 -21 q 75 215 75 90 l 75 832 q 119 841 90 836 q 179 846 147 846 q 278 822 247 846 q 308 735 308 799 l 308 660 l 490 660 q 506 622 499 644 q 514 571 514 599 q 492 501 514 522 q 435 479 471 479 l 308 479 l 308 232 q 331 181 308 196 q 396 165 354 165 q 439 169 417 165 q 478 178 461 172 q 499 144 490 163 q 508 99 508 125 q 469 13 508 46 q 329 -21 429 -21 m 332 -310 q 281 -345 308 -335 q 222 -356 254 -356 q 133 -324 169 -356 q 177 -210 163 -265 q 199 -101 192 -156 q 251 -81 221 -90 q 311 -72 281 -72 q 383 -89 356 -72 q 411 -144 411 -106 q 403 -184 411 -161 q 385 -230 396 -207 q 360 -274 374 -253 q 332 -310 346 -296 z "},"Ť":{"ha":772,"x_min":25,"x_max":744,"o":"m 719 842 q 737 801 729 826 q 744 747 744 776 q 722 671 744 694 q 660 647 699 647 l 503 647 l 503 1 q 456 -7 488 -3 q 390 -11 424 -11 q 288 14 317 -11 q 260 104 260 39 l 260 647 l 50 647 q 33 688 40 663 q 25 742 25 713 q 48 818 25 794 q 110 842 71 842 l 719 842 m 393 1058 q 461 1121 428 1090 q 525 1176 494 1151 q 599 1151 569 1176 q 628 1088 628 1126 q 614 1037 628 1058 q 561 986 600 1015 l 522 957 q 454 915 482 926 q 393 903 426 903 q 321 919 351 903 q 263 960 290 935 l 147 1064 q 172 1144 147 1115 q 240 1172 196 1172 q 292 1158 268 1172 q 356 1100 317 1143 l 393 1058 z "},"ť":{"ha":814,"x_min":75,"x_max":828,"o":"m 329 -21 q 141 35 207 -21 q 75 215 75 90 l 75 832 q 119 841 90 836 q 179 846 147 846 q 278 822 247 846 q 308 735 308 799 l 308 660 l 490 660 q 506 622 499 644 q 514 571 514 599 q 492 501 514 522 q 435 479 471 479 l 308 479 l 308 232 q 331 181 308 196 q 396 165 354 165 q 439 169 417 165 q 478 178 461 172 q 499 144 490 163 q 508 99 508 125 q 469 13 508 46 q 329 -21 429 -21 m 749 685 q 698 649 725 660 q 639 639 671 639 q 550 671 586 639 q 594 784 579 729 q 615 893 608 839 q 667 913 638 904 q 728 922 697 922 q 800 906 772 922 q 828 850 828 889 q 820 810 828 833 q 801 765 813 788 q 776 720 790 742 q 749 685 763 699 z "},"Ũ":{"ha":922,"x_min":86,"x_max":836,"o":"m 461 -25 q 304 -1 374 -25 q 186 66 235 22 q 112 172 138 110 q 86 308 86 233 l 86 844 q 135 852 103 847 q 199 857 167 857 q 299 833 268 857 q 329 742 329 810 l 329 313 q 366 208 329 246 q 461 171 403 171 q 556 208 519 171 q 593 313 593 246 l 593 844 q 642 852 610 847 q 706 857 674 857 q 806 833 775 857 q 836 742 836 810 l 836 308 q 810 172 836 233 q 736 66 785 110 q 618 -1 688 22 q 461 -25 549 -25 m 335 1171 q 392 1165 364 1171 q 445 1151 419 1158 q 492 1137 471 1143 q 531 1131 514 1131 q 578 1149 561 1131 q 601 1179 594 1167 l 607 1179 q 683 1148 651 1179 q 715 1068 715 1117 q 676 976 715 1006 q 579 947 638 947 q 517 953 546 947 q 465 967 489 960 q 421 981 442 975 q 383 988 400 988 q 337 970 353 988 q 313 939 321 953 l 307 939 q 231 969 264 939 q 199 1050 199 1000 q 210 1103 199 1081 q 242 1142 222 1126 q 285 1164 261 1157 q 335 1171 310 1171 z "},"ũ":{"ha":808,"x_min":72,"x_max":736,"o":"m 72 672 q 116 681 88 676 q 178 685 144 685 q 278 662 247 685 q 308 574 308 639 l 308 268 q 336 187 308 211 q 417 163 364 163 q 469 168 449 163 q 500 179 489 174 l 500 672 q 544 681 515 676 q 606 685 572 685 q 706 662 675 685 q 736 574 736 639 l 736 144 q 678 40 736 75 q 562 -6 629 10 q 415 -22 494 -22 q 277 -6 340 -22 q 168 46 214 11 q 97 135 122 81 q 72 268 72 190 l 72 672 m 276 993 q 333 987 306 993 q 387 973 361 981 q 434 959 413 965 q 472 953 456 953 q 519 971 503 953 q 543 1001 536 989 l 549 1001 q 625 970 593 1001 q 657 890 657 939 q 618 799 657 828 q 521 769 579 769 q 459 776 488 769 q 407 790 431 782 q 363 803 383 797 q 325 810 342 810 q 278 792 294 810 q 254 761 263 775 l 249 761 q 173 792 206 761 q 140 872 140 822 q 152 926 140 903 q 183 964 164 949 q 227 986 203 979 q 276 993 251 993 z "},"Ū":{"ha":922,"x_min":86,"x_max":836,"o":"m 461 -25 q 304 -1 374 -25 q 186 66 235 22 q 112 172 138 110 q 86 308 86 233 l 86 844 q 135 852 103 847 q 199 857 167 857 q 299 833 268 857 q 329 742 329 810 l 329 313 q 366 208 329 246 q 461 171 403 171 q 556 208 519 171 q 593 313 593 246 l 593 844 q 642 852 610 847 q 706 857 674 857 q 806 833 775 857 q 836 742 836 810 l 836 308 q 810 172 836 233 q 736 66 785 110 q 618 -1 688 22 q 461 -25 549 -25 m 242 963 q 227 1001 235 978 q 219 1049 219 1024 q 240 1120 219 1100 q 296 1140 261 1140 l 664 1140 q 681 1102 675 1125 q 686 1054 686 1079 q 666 983 686 1003 q 611 963 646 963 l 242 963 z "},"ū":{"ha":808,"x_min":72,"x_max":736,"o":"m 72 672 q 116 681 88 676 q 178 685 144 685 q 278 662 247 685 q 308 574 308 639 l 308 268 q 336 187 308 211 q 417 163 364 163 q 469 168 449 163 q 500 179 489 174 l 500 672 q 544 681 515 676 q 606 685 572 685 q 706 662 675 685 q 736 574 736 639 l 736 144 q 678 40 736 75 q 562 -6 629 10 q 415 -22 494 -22 q 277 -6 340 -22 q 168 46 214 11 q 97 135 122 81 q 72 268 72 190 l 72 672 m 200 783 q 185 822 193 799 q 178 869 178 844 q 199 941 178 921 q 254 961 219 961 l 622 961 q 639 923 633 946 q 644 875 644 900 q 624 803 644 824 q 569 783 604 783 l 200 783 z "},"Ŭ":{"ha":922,"x_min":86,"x_max":836,"o":"m 461 -25 q 304 -1 374 -25 q 186 66 235 22 q 112 172 138 110 q 86 308 86 233 l 86 844 q 135 852 103 847 q 199 857 167 857 q 299 833 268 857 q 329 742 329 810 l 329 313 q 366 208 329 246 q 461 171 403 171 q 556 208 519 171 q 593 313 593 246 l 593 844 q 642 852 610 847 q 706 857 674 857 q 806 833 775 857 q 836 742 836 810 l 836 308 q 810 172 836 233 q 736 66 785 110 q 618 -1 688 22 q 461 -25 549 -25 m 451 1092 q 522 1113 494 1092 q 557 1164 549 1133 q 569 1165 564 1165 q 582 1165 575 1165 q 666 1133 639 1165 q 693 1065 693 1101 q 631 960 693 1003 q 451 918 568 918 q 272 960 335 918 q 210 1065 210 1003 q 237 1133 210 1101 q 321 1165 264 1165 q 333 1165 328 1165 q 346 1164 339 1165 q 381 1113 353 1133 q 451 1092 408 1092 z "},"ŭ":{"ha":808,"x_min":72,"x_max":736,"o":"m 72 672 q 116 681 88 676 q 178 685 144 685 q 278 662 247 685 q 308 574 308 639 l 308 268 q 336 187 308 211 q 417 163 364 163 q 469 168 449 163 q 500 179 489 174 l 500 672 q 544 681 515 676 q 606 685 572 685 q 706 662 675 685 q 736 574 736 639 l 736 144 q 678 40 736 75 q 562 -6 629 10 q 415 -22 494 -22 q 277 -6 340 -22 q 168 46 214 11 q 97 135 122 81 q 72 268 72 190 l 72 672 m 406 942 q 476 963 449 942 q 511 1014 503 983 q 524 1015 518 1015 q 536 1015 529 1015 q 620 983 593 1015 q 647 915 647 951 q 585 810 647 853 q 406 768 522 768 q 226 810 289 768 q 164 915 164 853 q 191 983 164 951 q 275 1015 218 1015 q 288 1015 282 1015 q 300 1014 293 1015 q 335 963 307 983 q 406 942 363 942 z "},"Ů":{"ha":922,"x_min":86,"x_max":836,"o":"m 461 -25 q 304 -1 374 -25 q 186 66 235 22 q 112 172 138 110 q 86 308 86 233 l 86 844 q 135 852 103 847 q 199 857 167 857 q 299 833 268 857 q 329 742 329 810 l 329 313 q 366 208 329 246 q 461 171 403 171 q 556 208 519 171 q 593 313 593 246 l 593 844 q 642 852 610 847 q 706 857 674 857 q 806 833 775 857 q 836 742 836 810 l 836 308 q 810 172 836 233 q 736 66 785 110 q 618 -1 688 22 q 461 -25 549 -25 m 283 1047 q 333 1155 283 1111 q 467 1199 382 1199 q 607 1155 557 1199 q 657 1047 657 1111 q 607 940 657 983 q 467 897 557 897 q 333 940 382 897 q 283 1047 283 983 m 424 1047 q 437 1016 424 1028 q 468 1004 450 1004 q 502 1016 489 1004 q 515 1047 515 1028 q 502 1078 515 1067 q 468 1090 489 1090 q 437 1078 450 1090 q 424 1047 424 1067 z "},"ů":{"ha":808,"x_min":72,"x_max":736,"o":"m 72 672 q 116 681 88 676 q 178 685 144 685 q 278 662 247 685 q 308 574 308 639 l 308 268 q 336 187 308 211 q 417 163 364 163 q 469 168 449 163 q 500 179 489 174 l 500 672 q 544 681 515 676 q 606 685 572 685 q 706 662 675 685 q 736 574 736 639 l 736 144 q 678 40 736 75 q 562 -6 629 10 q 415 -22 494 -22 q 277 -6 340 -22 q 168 46 214 11 q 97 135 122 81 q 72 268 72 190 l 72 672 m 211 890 q 260 1001 211 956 q 394 1046 310 1046 q 535 1001 485 1046 q 585 890 585 956 q 535 781 585 825 q 394 736 485 736 q 260 781 310 736 q 211 890 211 825 m 351 890 q 365 856 351 868 q 396 843 378 843 q 430 856 417 843 q 443 890 443 868 q 430 925 443 913 q 396 938 417 938 q 365 925 378 938 q 351 890 351 913 z "},"Ű":{"ha":922,"x_min":86,"x_max":836,"o":"m 461 -25 q 304 -1 374 -25 q 186 66 235 22 q 112 172 138 110 q 86 308 86 233 l 86 844 q 135 852 103 847 q 199 857 167 857 q 299 833 268 857 q 329 742 329 810 l 329 313 q 366 208 329 246 q 461 171 403 171 q 556 208 519 171 q 593 313 593 246 l 593 844 q 642 852 610 847 q 706 857 674 857 q 806 833 775 857 q 836 742 836 810 l 836 308 q 810 172 836 233 q 736 66 785 110 q 618 -1 688 22 q 461 -25 549 -25 m 313 1175 q 418 1145 385 1175 q 451 1076 451 1115 q 437 1025 451 1046 q 392 972 422 1004 l 321 900 q 228 927 258 900 q 199 988 199 954 q 204 1020 199 1004 q 228 1060 210 1036 l 313 1175 m 614 1175 q 719 1145 686 1175 q 753 1076 753 1115 q 738 1025 753 1046 q 693 972 724 1004 l 622 900 q 530 927 560 900 q 500 988 500 954 q 506 1020 500 1004 q 529 1060 511 1036 l 614 1175 z "},"ű":{"ha":808,"x_min":72,"x_max":739,"o":"m 72 672 q 116 681 88 676 q 178 685 144 685 q 278 662 247 685 q 308 574 308 639 l 308 268 q 336 187 308 211 q 417 163 364 163 q 469 168 449 163 q 500 179 489 174 l 500 672 q 544 681 515 676 q 606 685 572 685 q 706 662 675 685 q 736 574 736 639 l 736 144 q 678 40 736 75 q 562 -6 629 10 q 415 -22 494 -22 q 277 -6 340 -22 q 168 46 214 11 q 97 135 122 81 q 72 268 72 190 l 72 672 m 279 1044 q 388 1014 351 1044 q 424 944 424 983 q 408 894 424 914 q 363 842 393 874 l 258 733 q 165 763 196 733 q 135 825 135 792 q 140 856 135 842 q 163 893 144 869 l 279 1044 m 594 1044 q 703 1014 667 1044 q 739 944 739 983 q 724 894 739 914 q 678 842 708 874 l 574 733 q 481 763 511 733 q 450 825 450 792 q 455 856 450 842 q 478 893 460 869 l 594 1044 z "},"Ų":{"ha":922,"x_min":86,"x_max":836,"o":"m 836 308 q 762 92 836 178 q 553 -17 688 6 q 542 -58 542 -35 q 561 -103 542 -86 q 617 -119 581 -119 l 624 -119 q 631 -146 628 -132 q 633 -178 633 -160 q 627 -216 633 -197 q 605 -249 621 -235 q 564 -272 589 -264 q 501 -281 539 -281 q 376 -242 425 -281 q 326 -133 326 -204 q 340 -67 326 -96 q 372 -18 353 -37 q 161 90 236 4 q 86 308 86 176 l 86 844 q 135 852 103 847 q 199 857 167 857 q 299 833 268 857 q 329 742 329 810 l 329 313 q 366 208 329 246 q 461 171 403 171 q 556 208 519 171 q 593 313 593 246 l 593 844 q 642 852 610 847 q 706 857 674 857 q 806 833 775 857 q 836 742 836 810 l 836 308 l 836 308 z "},"ų":{"ha":808,"x_min":72,"x_max":736,"o":"m 72 672 q 116 681 88 676 q 178 685 144 685 q 278 662 247 685 q 308 574 308 639 l 308 268 q 336 187 308 211 q 417 163 364 163 q 469 168 449 163 q 500 179 489 174 l 500 672 q 544 681 515 676 q 606 685 572 685 q 706 662 675 685 q 736 574 736 639 l 736 144 q 678 40 736 75 q 636 -3 651 18 q 621 -58 621 -25 q 640 -103 621 -86 q 696 -119 660 -119 l 703 -119 q 710 -146 707 -132 q 713 -178 713 -160 q 706 -216 713 -197 q 684 -249 700 -235 q 643 -272 668 -264 q 581 -281 618 -281 q 455 -242 504 -281 q 406 -133 406 -204 q 421 -68 406 -96 q 456 -21 436 -40 q 435 -22 444 -22 q 415 -22 426 -22 q 277 -6 340 -22 q 168 46 214 11 q 97 135 122 81 q 72 268 72 190 l 72 672 z "},"Ŵ":{"ha":1199,"x_min":35,"x_max":1156,"o":"m 479 636 q 527 652 494 643 q 593 661 560 661 q 690 644 651 661 q 738 593 729 626 q 766 487 753 536 q 792 392 779 438 q 816 303 804 347 q 839 210 828 258 l 846 210 q 868 372 858 294 q 886 523 878 449 q 903 670 894 597 q 919 818 911 743 q 1029 847 971 847 q 1118 825 1081 847 q 1156 750 1156 803 q 1149 663 1156 719 q 1133 538 1143 607 q 1108 392 1122 468 q 1079 246 1094 315 q 1048 120 1064 176 q 1018 33 1032 64 q 950 1 997 14 q 853 -11 903 -11 q 742 6 788 -11 q 688 56 697 24 q 649 188 669 111 q 604 356 628 264 q 564 179 585 265 q 526 33 543 93 q 464 1 506 14 q 372 -11 422 -11 q 259 6 310 -11 q 193 56 208 24 q 166 130 181 81 q 136 242 151 179 q 105 379 121 306 q 76 526 89 453 q 51 670 63 600 q 35 799 40 740 q 89 832 54 817 q 164 847 124 847 q 251 824 217 847 q 293 747 285 801 q 330 511 315 606 q 353 356 344 417 q 367 263 363 296 q 375 210 371 229 l 382 210 q 406 313 394 265 q 428 408 417 360 q 453 510 440 456 q 479 636 465 565 m 599 1022 q 566 986 581 1001 q 539 956 551 971 q 514 927 526 942 q 486 894 501 913 q 400 919 432 894 q 368 983 368 943 q 383 1031 368 1011 q 429 1082 399 1051 l 476 1129 q 533 1172 503 1156 q 603 1188 563 1188 q 669 1174 639 1188 q 740 1111 700 1160 l 839 990 q 816 924 839 951 q 746 897 793 897 q 697 912 718 897 q 654 954 676 926 l 599 1022 z "},"ŵ":{"ha":1099,"x_min":32,"x_max":1064,"o":"m 556 379 q 532 278 546 331 q 503 178 518 226 q 476 90 489 131 q 457 24 464 49 q 404 -3 438 7 q 325 -14 371 -14 q 226 2 268 -14 q 171 47 185 18 q 149 110 161 69 q 123 201 136 150 q 97 310 110 251 q 72 426 83 368 q 49 540 60 485 q 32 640 39 594 q 84 674 51 660 q 156 689 117 689 q 235 667 204 689 q 274 593 267 646 q 297 419 288 488 q 313 306 307 350 q 323 240 319 263 q 329 203 326 217 l 335 203 q 349 267 339 225 q 374 364 360 310 q 403 481 388 418 q 433 607 418 544 q 488 631 461 622 q 556 639 515 639 q 639 624 604 639 q 683 576 674 608 q 715 458 700 515 q 743 351 731 400 q 765 263 756 301 q 779 203 775 225 l 786 203 q 816 425 801 310 q 843 660 831 540 q 896 682 868 675 q 951 689 924 689 q 1032 668 1000 689 q 1064 596 1064 647 q 1057 530 1064 574 q 1039 431 1050 486 q 1013 314 1028 375 q 984 197 999 253 q 956 94 969 140 q 933 24 943 49 q 874 -3 914 7 q 788 -14 833 -14 q 650 44 671 -14 q 629 108 642 69 q 603 190 617 146 q 576 284 589 235 q 556 379 564 333 m 553 869 q 520 833 535 849 q 493 803 506 818 q 468 774 481 789 q 440 742 456 760 q 354 766 386 742 q 322 831 322 790 q 338 878 322 858 q 383 929 353 899 l 431 976 q 487 1019 457 1003 q 557 1035 517 1035 q 624 1021 593 1035 q 694 958 654 1007 l 793 838 q 770 772 793 799 q 700 744 747 744 q 651 759 672 744 q 608 801 631 774 l 553 869 z "},"Ŷ":{"ha":797,"x_min":7,"x_max":781,"o":"m 781 743 q 772 699 781 726 q 735 620 763 672 q 660 485 708 568 q 532 274 611 401 l 532 1 q 485 -7 517 -3 q 422 -11 454 -11 q 322 14 350 -11 q 294 101 294 39 l 294 278 q 217 395 258 329 q 135 530 175 461 q 60 664 94 599 q 7 779 26 729 q 56 825 25 804 q 133 846 88 846 q 222 824 188 846 q 286 740 256 801 l 408 494 l 417 494 q 452 575 436 538 q 483 651 468 613 q 515 729 499 689 q 550 819 531 769 q 606 839 575 832 q 664 846 636 846 q 747 820 713 846 q 781 743 781 794 m 408 1019 q 342 957 375 988 q 278 901 308 926 q 206 926 235 901 q 176 989 176 951 q 190 1039 176 1018 q 242 1089 204 1060 l 282 1119 q 353 1163 322 1150 q 411 1176 383 1176 q 476 1163 447 1176 q 538 1118 506 1150 l 650 1006 q 624 931 650 956 q 554 906 599 906 q 503 924 526 906 q 446 978 479 942 l 408 1019 z "},"ŷ":{"ha":765,"x_min":28,"x_max":732,"o":"m 178 172 q 145 250 163 207 q 109 349 128 293 q 70 476 90 404 q 28 640 50 547 q 80 674 47 660 q 151 689 113 689 q 232 669 200 689 q 279 593 264 649 q 334 401 307 496 q 389 211 361 306 l 394 211 q 427 314 411 258 q 458 428 443 369 q 487 547 474 488 q 510 663 500 606 q 558 682 533 675 q 611 689 583 689 q 696 668 660 689 q 732 596 732 647 q 715 463 732 540 q 669 303 697 386 q 607 142 642 221 q 538 3 572 63 q 392 -198 458 -133 q 258 -262 326 -262 q 165 -228 203 -262 q 121 -137 128 -193 q 210 -53 165 -100 q 288 43 254 -6 q 237 76 264 50 q 178 172 210 101 m 390 869 q 358 833 372 849 q 331 803 343 818 q 306 774 318 789 q 278 742 293 760 q 192 766 224 742 q 160 831 160 790 q 175 878 160 858 q 221 929 190 899 l 268 976 q 324 1019 294 1003 q 394 1035 354 1035 q 461 1021 431 1035 q 532 958 492 1007 l 631 838 q 608 772 631 799 q 538 744 585 744 q 489 759 510 744 q 446 801 468 774 l 390 869 z "},"Ÿ":{"ha":797,"x_min":7,"x_max":781,"o":"m 781 743 q 772 699 781 726 q 735 620 763 672 q 660 485 708 568 q 532 274 611 401 l 532 1 q 485 -7 517 -3 q 422 -11 454 -11 q 322 14 350 -11 q 294 101 294 39 l 294 278 q 217 395 258 329 q 135 530 175 461 q 60 664 94 599 q 7 779 26 729 q 56 825 25 804 q 133 846 88 846 q 222 824 188 846 q 286 740 256 801 l 408 494 l 417 494 q 452 575 436 538 q 483 651 468 613 q 515 729 499 689 q 550 819 531 769 q 606 839 575 832 q 664 846 636 846 q 747 820 713 846 q 781 743 781 794 m 371 1039 q 338 958 371 990 q 253 925 306 925 q 168 958 200 925 q 136 1039 136 990 q 168 1121 136 1088 q 253 1154 200 1154 q 338 1121 306 1154 q 371 1039 371 1088 m 669 1039 q 638 958 669 990 q 553 925 606 925 q 467 958 500 925 q 435 1039 435 990 q 467 1121 435 1088 q 553 1154 500 1154 q 638 1121 606 1154 q 669 1039 669 1088 z "},"Ź":{"ha":778,"x_min":47,"x_max":736,"o":"m 101 0 q 63 53 78 19 q 47 129 47 86 q 65 200 47 164 q 108 267 83 236 l 428 647 l 86 647 q 67 688 75 664 q 60 743 60 713 q 83 821 60 796 q 147 846 107 846 l 665 846 q 726 713 726 796 q 710 644 726 678 q 669 579 694 610 l 351 199 l 710 199 q 728 157 719 182 q 736 101 736 132 q 713 24 736 49 q 650 0 690 0 l 101 0 m 508 1175 q 599 1147 567 1175 q 632 1076 632 1118 q 619 1026 632 1049 q 567 981 606 1004 l 428 900 q 344 925 372 900 q 315 983 315 950 q 320 1015 315 1000 q 347 1050 325 1031 l 508 1175 z "},"ź":{"ha":668,"x_min":47,"x_max":635,"o":"m 569 674 q 605 628 592 654 q 618 568 618 601 q 605 513 618 540 q 572 463 592 486 l 339 182 l 611 182 q 627 143 619 167 q 635 92 635 119 q 613 22 635 43 q 556 0 592 0 l 96 0 q 60 46 74 19 q 47 106 47 72 q 60 160 47 133 q 93 211 74 188 l 332 492 l 76 492 q 60 531 68 507 q 53 582 53 554 q 74 652 53 631 q 132 674 96 674 l 569 674 m 426 1044 q 535 1014 499 1044 q 571 944 571 983 q 557 891 571 913 q 510 842 543 869 l 378 733 q 285 763 315 733 q 254 825 254 792 q 260 857 254 842 q 286 893 267 872 l 426 1044 z "},"Ż":{"ha":778,"x_min":47,"x_max":736,"o":"m 101 0 q 63 53 78 19 q 47 129 47 86 q 65 200 47 164 q 108 267 83 236 l 428 647 l 86 647 q 67 688 75 664 q 60 743 60 713 q 83 821 60 796 q 147 846 107 846 l 665 846 q 726 713 726 796 q 710 644 726 678 q 669 579 694 610 l 351 199 l 710 199 q 728 157 719 182 q 736 101 736 132 q 713 24 736 49 q 650 0 690 0 l 101 0 m 521 1056 q 487 969 521 1004 q 396 935 453 935 q 305 969 339 935 q 271 1056 271 1004 q 305 1142 271 1107 q 396 1176 339 1176 q 487 1142 453 1176 q 521 1056 521 1107 z "},"ż":{"ha":668,"x_min":47,"x_max":635,"o":"m 569 674 q 605 628 592 654 q 618 568 618 601 q 605 513 618 540 q 572 463 592 486 l 339 182 l 611 182 q 627 143 619 167 q 635 92 635 119 q 613 22 635 43 q 556 0 592 0 l 96 0 q 60 46 74 19 q 47 106 47 72 q 60 160 47 133 q 93 211 74 188 l 332 492 l 76 492 q 60 531 68 507 q 53 582 53 554 q 74 652 53 631 q 132 674 96 674 l 569 674 m 467 878 q 433 792 467 826 q 342 757 399 757 q 251 792 285 757 q 217 878 217 826 q 251 964 217 929 q 342 999 285 999 q 433 964 399 999 q 467 878 467 929 z "},"Ž":{"ha":778,"x_min":47,"x_max":736,"o":"m 101 0 q 63 53 78 19 q 47 129 47 86 q 65 200 47 164 q 108 267 83 236 l 428 647 l 86 647 q 67 688 75 664 q 60 743 60 713 q 83 821 60 796 q 147 846 107 846 l 665 846 q 726 713 726 796 q 710 644 726 678 q 669 579 694 610 l 351 199 l 710 199 q 728 157 719 182 q 736 101 736 132 q 713 24 736 49 q 650 0 690 0 l 101 0 m 411 1058 q 479 1121 446 1090 q 543 1176 513 1151 q 617 1151 588 1176 q 646 1088 646 1126 q 632 1037 646 1058 q 579 986 618 1015 l 540 957 q 472 915 500 926 q 411 903 444 903 q 339 919 369 903 q 281 960 308 935 l 165 1064 q 190 1144 165 1115 q 258 1172 214 1172 q 310 1158 286 1172 q 374 1100 335 1143 l 411 1058 z "},"ž":{"ha":668,"x_min":47,"x_max":635,"o":"m 569 674 q 605 628 592 654 q 618 568 618 601 q 605 513 618 540 q 572 463 592 486 l 339 182 l 611 182 q 627 143 619 167 q 635 92 635 119 q 613 22 635 43 q 556 0 592 0 l 96 0 q 60 46 74 19 q 47 106 47 72 q 60 160 47 133 q 93 211 74 188 l 332 492 l 76 492 q 60 531 68 507 q 53 582 53 554 q 74 652 53 631 q 132 674 96 674 l 569 674 m 338 911 l 463 1028 q 549 1002 517 1028 q 581 936 581 976 q 565 885 581 906 q 514 838 549 865 l 451 786 q 397 753 424 763 q 342 743 369 743 q 307 746 322 743 q 276 756 292 749 q 240 776 260 763 q 194 814 221 790 l 92 903 q 90 915 90 910 q 89 928 89 921 q 110 994 89 964 q 178 1025 132 1025 q 203 1023 192 1025 q 228 1013 215 1021 q 256 993 240 1006 q 290 960 271 981 l 338 911 z "},"Ə":{"ha":922,"x_min":42,"x_max":874,"o":"m 42 353 q 76 436 42 407 q 165 474 110 465 l 614 542 q 528 642 586 610 q 392 674 471 674 q 258 649 317 674 q 163 596 199 624 q 115 643 132 618 q 99 704 99 668 q 171 815 99 775 q 417 869 267 869 q 593 840 510 869 q 739 750 676 810 q 838 603 801 690 q 874 400 874 515 q 842 213 874 293 q 756 81 811 133 q 623 3 700 29 q 456 -22 546 -22 q 276 8 354 -22 q 147 89 199 38 q 68 208 94 140 q 42 353 42 276 m 451 171 q 540 185 504 171 q 599 224 576 199 q 631 286 621 250 q 642 367 640 322 l 285 310 q 299 260 286 285 q 333 215 311 235 q 385 183 356 196 q 451 171 415 171 z "},"ƒ":{"ha":744,"x_min":-21,"x_max":744,"o":"m 454 421 l 422 110 q 338 -95 407 -31 q 157 -160 268 -160 q -21 -42 -21 -160 q -10 9 -21 -14 q 15 43 1 32 q 51 31 32 36 q 100 26 69 26 q 160 47 140 26 q 186 118 181 68 l 242 675 q 340 879 257 815 q 550 943 422 943 q 698 917 651 943 q 744 825 744 892 q 733 774 744 797 q 708 740 722 751 q 656 752 682 747 q 592 757 629 757 q 508 735 535 757 q 474 667 481 714 l 465 601 l 672 601 q 688 563 681 586 q 696 513 696 540 q 674 442 696 464 q 617 421 653 421 l 454 421 z "},"Ơ":{"ha":1065,"x_min":49,"x_max":1086,"o":"m 928 422 q 894 230 928 314 q 802 90 861 146 q 663 4 743 33 q 488 -25 582 -25 q 313 4 393 -25 q 174 90 232 33 q 82 231 115 147 q 49 422 49 314 q 83 614 49 531 q 176 753 117 697 q 315 839 235 810 q 488 868 394 868 q 682 831 593 868 q 832 719 771 793 q 876 766 860 735 q 893 850 893 797 l 893 897 q 931 913 913 907 q 978 918 950 918 q 1054 897 1022 918 q 1086 826 1086 876 l 1086 818 q 1035 658 1086 721 q 907 572 985 594 q 928 422 928 506 m 678 422 q 626 610 678 547 q 488 672 575 672 q 351 610 403 672 q 299 422 299 549 q 350 233 299 296 q 489 171 401 171 q 626 233 575 171 q 678 422 678 296 z "},"ơ":{"ha":906,"x_min":43,"x_max":919,"o":"m 771 338 q 745 188 771 254 q 672 74 719 121 q 557 3 624 28 q 407 -22 490 -22 q 257 2 324 -22 q 142 73 190 26 q 69 186 94 119 q 43 338 43 253 q 69 486 43 419 q 144 599 96 553 q 258 671 192 646 q 407 696 325 696 q 567 666 496 696 q 686 581 638 636 q 716 627 706 599 q 726 697 726 656 l 726 744 q 765 760 746 754 q 811 765 783 765 q 888 744 856 765 q 919 674 919 724 l 919 665 q 875 513 919 574 q 761 426 831 453 q 769 383 767 406 q 771 338 771 361 m 407 511 q 317 466 349 511 q 285 338 285 421 q 317 206 285 250 q 407 163 349 163 q 497 207 465 163 q 529 338 529 251 q 497 466 529 421 q 407 511 465 511 z "},"Ư":{"ha":1068,"x_min":81,"x_max":1100,"o":"m 831 563 l 831 308 q 805 172 831 233 q 731 66 779 110 q 613 -1 682 22 q 456 -25 543 -25 q 299 -1 368 -25 q 181 66 229 22 q 106 172 132 110 q 81 308 81 233 l 81 844 q 129 852 97 847 q 193 857 161 857 q 293 833 263 857 q 324 742 324 810 l 324 313 q 360 208 324 246 q 456 171 397 171 q 551 208 514 171 q 588 313 588 246 l 588 844 q 636 852 604 847 q 700 857 668 857 q 800 833 769 857 q 831 742 831 810 l 831 714 q 886 758 865 725 q 907 850 907 792 l 907 897 q 945 913 926 907 q 992 918 964 918 q 1068 897 1036 918 q 1100 826 1100 876 l 1100 818 q 1080 711 1100 758 q 1024 631 1060 664 q 942 580 989 597 q 843 563 896 563 l 831 563 z "}}}
